SplineFontDB: 3.2
FontName: CherokeeHandoneB
FullName: CherokeeHandoneB
FamilyName: CherokeeHandoneB
Weight: Medium
Copyright: unnamed
Version: 001.000
ItalicAngle: 0
UnderlinePosition: -150
UnderlineWidth: 50
Ascent: 800
Descent: 200
InvalidEm: 0
sfntRevision: 0x00010000
LayerCount: 2
Layer: 0 1 "Back" 1
Layer: 1 1 "Fore" 0
XUID: [1021 902 -1420801867 15086142]
StyleMap: 0x0040
FSType: 0
OS2Version: 1
OS2_WeightWidthSlopeOnly: 0
OS2_UseTypoMetrics: 0
CreationTime: 1280473793
ModificationTime: 1682983984
PfmFamily: 17
TTFWeight: 500
TTFWidth: 5
LineGap: 90
VLineGap: 0
Panose: 2 0 6 3 0 0 0 0 0 0
OS2TypoAscent: 800
OS2TypoAOffset: 0
OS2TypoDescent: -200
OS2TypoDOffset: 0
OS2TypoLinegap: 90
OS2WinAscent: 807
OS2WinAOffset: 0
OS2WinDescent: 241
OS2WinDOffset: 0
HheadAscent: 808
HheadAOffset: 0
HheadDescent: -242
HheadDOffset: 0
OS2SubXSize: 650
OS2SubYSize: 699
OS2SubXOff: 0
OS2SubYOff: 140
OS2SupXSize: 650
OS2SupYSize: 699
OS2SupXOff: 0
OS2SupYOff: 479
OS2StrikeYSize: 49
OS2StrikeYPos: 258
OS2Vendor: '2ttf'
OS2CodePages: 00000001.00000000
OS2UnicodeRanges: 80000001.00010000.00001000.00000000
MarkAttachClasses: 1
DEI: 91125
ShortTable: cvt  2
  33
  633
EndShort
ShortTable: maxp 16
  1
  0
  188
  174
  5
  0
  0
  2
  0
  1
  1
  0
  64
  0
  0
  0
EndShort
LangName: 1033
GaspTable: 1 65535 2 0
Encoding: UnicodeBmp
UnicodeInterp: none
NameList: AGL For New Fonts
DisplaySize: -48
AntiAlias: 1
FitToEm: 0
WinInfo: 4864 38 13
BeginPrivate: 0
EndPrivate
BeginChars: 65539 188

StartChar: .notdef
Encoding: 65536 -1 0
Width: 364
Flags: W
LayerCount: 2
Fore
SplineSet
66 33 m 1,0,-1
 265 33 l 1,1,-1
 265 633 l 1,2,-1
 66 633 l 1,3,-1
 66 33 l 1,0,-1
33 0 m 1,4,-1
 33 666 l 1,5,-1
 298 666 l 1,6,-1
 298 0 l 1,7,-1
 33 0 l 1,4,-1
EndSplineSet
EndChar

StartChar: exclam
Encoding: 33 33 4
Width: 288
GlyphClass: 2
Flags: W
LayerCount: 2
Fore
SplineSet
252 684 m 0,0,1
 215 526 215 526 202 414 c 0,2,3
 182 243 182 243 212 158 c 0,4,5
 216 148 216 148 211.5 137.5 c 128,-1,6
 207 127 207 127 196.5 123.5 c 128,-1,7
 186 120 186 120 175.5 124.5 c 128,-1,8
 165 129 165 129 162 140 c 0,9,10
 127 237 127 237 148 420 c 0,11,12
 162 535 162 535 200 696 c 0,13,14
 202 707 202 707 211.5 713 c 128,-1,15
 221 719 221 719 232 716.5 c 128,-1,16
 243 714 243 714 249 704.5 c 128,-1,17
 255 695 255 695 252 684 c 0,0,1
234 54 m 128,-1,19
 234 43 234 43 226 35 c 128,-1,20
 218 27 218 27 207 27 c 128,-1,21
 196 27 196 27 188 35 c 128,-1,22
 180 43 180 43 180 54 c 128,-1,23
 180 65 180 65 188 73 c 128,-1,24
 196 81 196 81 207 81 c 128,-1,25
 218 81 218 81 226 73 c 128,-1,18
 234 65 234 65 234 54 c 128,-1,19
EndSplineSet
EndChar

StartChar: quotedbl
Encoding: 34 34 5
Width: 316
GlyphClass: 2
Flags: W
LayerCount: 2
Fore
SplineSet
141 652 m 0,0,1
 122 627 122 627 109 542 c 0,2,3
 104 508 104 508 94 408 c 0,4,5
 93 397 93 397 84.5 390 c 128,-1,6
 76 383 76 383 64.5 384 c 128,-1,7
 53 385 53 385 46 393.5 c 128,-1,8
 39 402 39 402 40 414 c 0,9,10
 50 515 50 515 56 550 c 0,11,12
 71 650 71 650 99 686 c 0,13,14
 105 694 105 694 116.5 695.5 c 128,-1,15
 128 697 128 697 136.5 690.5 c 128,-1,16
 145 684 145 684 146.5 672.5 c 128,-1,17
 148 661 148 661 141 652 c 0,0,1
278 614 m 0,18,19
 265 591 265 591 265 550 c 0,20,21
 264 536 264 536 266 510 c 0,22,23
 267 481 267 481 267 469 c 0,24,25
 267 458 267 458 259 450 c 128,-1,26
 251 442 251 442 240 442 c 128,-1,27
 229 442 229 442 221 450 c 128,-1,28
 213 458 213 458 213 469 c 128,-1,29
 213 480 213 480 211.5 507.5 c 128,-1,30
 210 535 210 535 211 551 c 0,31,32
 211 606 211 606 230 640 c 0,33,34
 236 650 236 650 246.5 653 c 128,-1,35
 257 656 257 656 267 650.5 c 128,-1,36
 277 645 277 645 280 634.5 c 128,-1,37
 283 624 283 624 278 614 c 0,18,19
EndSplineSet
EndChar

StartChar: numbersign
Encoding: 35 35 6
Width: 608
GlyphClass: 2
Flags: W
LayerCount: 2
Fore
SplineSet
361 460 m 1,0,1
 404 597 404 597 446 657 c 0,2,3
 452 666 452 666 463 668 c 128,-1,4
 474 670 474 670 483.5 663.5 c 128,-1,5
 493 657 493 657 495 646 c 128,-1,6
 497 635 497 635 490 625 c 0,7,8
 455 575 455 575 416 456 c 1,9,10
 497 447 497 447 557 421 c 0,11,12
 567 416 567 416 571 405.5 c 128,-1,13
 575 395 575 395 570.5 385 c 128,-1,14
 566 375 566 375 555.5 371 c 128,-1,15
 545 367 545 367 535 371 c 0,16,17
 479 396 479 396 401 404 c 1,18,19
 393 379 393 379 387 353 c 0,20,21
 377 316 377 316 369 280 c 1,22,23
 411 282 411 282 450 282 c 0,24,25
 461 282 461 282 469 274 c 128,-1,26
 477 266 477 266 477 255 c 128,-1,27
 477 244 477 244 469 236 c 128,-1,28
 461 228 461 228 450 228 c 0,29,30
 406 228 406 228 358 225 c 1,31,32
 338 120 338 120 336 59 c 0,33,34
 336 48 336 48 327.5 40.5 c 128,-1,35
 319 33 319 33 308 33 c 128,-1,36
 297 33 297 33 289.5 41.5 c 128,-1,37
 282 50 282 50 282 61 c 0,38,39
 284 121 284 121 302 220 c 1,40,41
 249 215 249 215 169 204 c 1,42,43
 137 46 137 46 137 -25 c 0,44,45
 137 -36 137 -36 129 -44 c 128,-1,46
 121 -52 121 -52 110 -52 c 128,-1,47
 99 -52 99 -52 91 -44 c 128,-1,48
 83 -36 83 -36 83 -25 c 0,49,50
 83 52 83 52 112 197 c 1,51,-1
 58 189 l 2,52,53
 46 188 46 188 37.5 194.5 c 128,-1,54
 29 201 29 201 27.5 212.5 c 128,-1,55
 26 224 26 224 32.5 232.5 c 128,-1,56
 39 241 39 241 50 243 c 2,57,-1
 123 253 l 1,58,59
 139 330 139 330 158 398 c 1,60,-1
 89 390 l 2,61,62
 38 385 38 385 12 383 c 0,63,64
 1 382 1 382 -7.5 389 c 128,-1,65
 -16 396 -16 396 -17 407.5 c 128,-1,66
 -18 419 -18 419 -11 427.5 c 128,-1,67
 -4 436 -4 436 8 437 c 0,68,69
 32 439 32 439 88 445 c 2,70,-1
 175 454 l 1,71,72
 209 560 209 560 258 659 c 0,73,74
 263 669 263 669 273.5 672.5 c 128,-1,75
 284 676 284 676 294 671 c 128,-1,76
 304 666 304 666 307.5 655.5 c 128,-1,77
 311 645 311 645 306 635 c 0,78,79
 264 550 264 550 234 458 c 1,80,81
 304 463 304 463 361 460 c 1,0,1
345 407 m 1,82,83
 290 409 290 409 216 403 c 1,84,85
 196 337 196 337 180 260 c 1,86,87
 257 271 257 271 313 276 c 1,88,-1
 334 366 l 1,89,-1
 345 407 l 1,82,83
EndSplineSet
EndChar

StartChar: dollar
Encoding: 36 36 7
Width: 569
GlyphClass: 2
Flags: W
LayerCount: 2
Fore
SplineSet
283 386 m 1,0,-1
 291 489 l 2,1,2
 296 555 296 555 297 576 c 1,3,-1
 283 570 l 2,4,5
 236 551 236 551 210 512 c 0,6,7
 185 476 185 476 196 448 c 128,-1,8
 207 420 207 420 264 394 c 0,9,10
 273 390 273 390 283 386 c 1,0,-1
332 311 m 1,11,12
 323 167 323 167 325 58 c 1,13,14
 374 60 374 60 411.5 82.5 c 128,-1,15
 449 105 449 105 467 146 c 0,16,17
 493 202 493 202 466 237 c 0,18,19
 444 266 444 266 373 295 c 2,20,-1
 332 311 l 1,11,12
459 483 m 0,21,22
 428 554 428 554 376 574 c 0,23,24
 364 578 364 578 352 580 c 1,25,26
 350 557 350 557 344 482 c 2,27,-1
 336 367 l 1,28,-1
 394 345 l 2,29,30
 477 311 477 311 509 270 c 0,31,32
 555 210 555 210 517 124 c 0,33,34
 491 67 491 67 440 37 c 128,-1,35
 389 7 389 7 327 4 c 1,36,-1
 331 -60 l 2,37,38
 332 -71 332 -71 324.5 -79.5 c 128,-1,39
 317 -88 317 -88 306 -89 c 128,-1,40
 295 -90 295 -90 286.5 -82.5 c 128,-1,41
 278 -75 278 -75 277 -64 c 0,42,43
 274 -30 274 -30 273 6 c 1,44,45
 255 8 255 8 237 13 c 0,46,47
 152 35 152 35 95 99 c 128,-1,48
 38 163 38 163 43 254 c 0,49,50
 44 265 44 265 52 272.5 c 128,-1,51
 60 280 60 280 71.5 279 c 128,-1,52
 83 278 83 278 90.5 270 c 128,-1,53
 98 262 98 262 97 250 c 0,54,55
 93 182 93 182 137 132.5 c 128,-1,56
 181 83 181 83 251 65 c 2,57,-1
 271 61 l 1,58,59
 270 176 270 176 279 330 c 1,60,61
 258 338 258 338 242 345 c 0,62,63
 164 380 164 380 146 428 c 0,64,65
 125 483 125 483 165 542 c 0,66,67
 200 595 200 595 263 620 c 0,68,69
 281 628 281 628 300 632 c 1,70,71
 300 668 300 668 301 686.5 c 128,-1,72
 302 705 302 705 306.5 736.5 c 128,-1,73
 311 768 311 768 321 792 c 0,74,75
 325 802 325 802 335.5 806.5 c 128,-1,76
 346 811 346 811 356 807 c 128,-1,77
 366 803 366 803 370.5 792.5 c 128,-1,78
 375 782 375 782 371 772 c 0,79,80
 368 765 368 765 366 758 c 128,-1,81
 364 751 364 751 362 742.5 c 128,-1,82
 360 734 360 734 359 728.5 c 128,-1,83
 358 723 358 723 357 713 c 128,-1,84
 356 703 356 703 355.5 699 c 128,-1,85
 355 695 355 695 355 682.5 c 128,-1,86
 355 670 355 670 354.5 667.5 c 128,-1,87
 354 665 354 665 354 650 c 2,88,-1
 354 634 l 1,89,90
 375 632 375 632 395 624 c 0,91,92
 468 596 468 596 509 505 c 0,93,94
 513 495 513 495 509 484.5 c 128,-1,95
 505 474 505 474 495 469.5 c 128,-1,96
 485 465 485 465 474.5 469 c 128,-1,97
 464 473 464 473 459 483 c 0,21,22
EndSplineSet
EndChar

StartChar: percent
Encoding: 37 37 8
Width: 748
GlyphClass: 2
Flags: W
LayerCount: 2
Fore
SplineSet
166 557 m 1,0,1
 139 530 139 530 128 492 c 0,2,3
 116 448 116 448 132 416 c 0,4,5
 149 383 149 383 196 377 c 0,6,7
 251 369 251 369 276 409 c 0,8,9
 299 447 299 447 291 505 c 0,10,11
 284 558 284 558 260 574 c 0,12,13
 253 578 253 578 245 576 c 0,14,15
 231 571 231 571 213 549 c 0,16,17
 207 540 207 540 195.5 538.5 c 128,-1,18
 184 537 184 537 176 544 c 0,19,20
 169 549 169 549 166 557 c 1,0,1
292 617 m 1,21,22
 335 587 335 587 345 512 c 0,23,24
 356 435 356 435 322 381 c 0,25,26
 279 311 279 311 188 323 c 0,27,28
 114 333 114 333 84 392 c 0,29,30
 58 443 58 443 76 507 c 0,31,32
 94 569 94 569 146 611 c 128,-1,33
 198 653 198 653 268 646 c 0,34,35
 279 645 279 645 286 636.5 c 128,-1,36
 293 628 293 628 292 617 c 1,21,22
578 291 m 1,37,38
 552 273 552 273 533.5 243.5 c 128,-1,39
 515 214 515 214 508 182 c 0,40,41
 499 139 499 139 516 115 c 128,-1,42
 533 91 533 91 579 96 c 0,43,44
 602 98 602 98 622.5 120.5 c 128,-1,45
 643 143 643 143 653 177 c 0,46,47
 663 212 663 212 657.5 240.5 c 128,-1,48
 652 269 652 269 632 283 c 0,49,50
 616 295 616 295 578 291 c 1,37,38
642 338 m 1,51,52
 654 334 654 334 664 327 c 0,53,54
 689 309 689 309 702 279.5 c 128,-1,55
 715 250 715 250 714 221 c 128,-1,56
 713 192 713 192 705 162 c 0,57,58
 692 116 692 116 660 81.5 c 128,-1,59
 628 47 628 47 585 42 c 0,60,61
 507 34 507 34 471 84 c 0,62,63
 442 127 442 127 455 192 c 0,64,65
 468 255 468 255 512 304 c 1,66,-1
 510 310 l 2,67,68
 509 321 509 321 516 329.5 c 128,-1,69
 523 338 523 338 534 340 c 0,70,71
 537 340 537 340 546 341.5 c 128,-1,72
 555 343 555 343 560 343 c 0,73,74
 584 357 584 357 611 362 c 0,75,76
 622 363 622 363 631 356.5 c 128,-1,77
 640 350 640 350 642 339 c 2,78,-1
 642 338 l 1,51,52
617 656 m 2,79,-1
 404 288 l 2,80,81
 386 257 386 257 321 158 c 0,82,83
 254 57 254 57 228 -3 c 0,84,85
 223 -13 223 -13 213 -17 c 128,-1,86
 203 -21 203 -21 192.5 -16.5 c 128,-1,87
 182 -12 182 -12 178 -2 c 128,-1,88
 174 8 174 8 178 19 c 0,89,90
 205 81 205 81 276.5 189.5 c 128,-1,91
 348 298 348 298 358 316 c 2,92,-1
 569 682 l 2,93,94
 575 692 575 692 585.5 695 c 128,-1,95
 596 698 596 698 606 692.5 c 128,-1,96
 616 687 616 687 619 676.5 c 128,-1,97
 622 666 622 666 617 656 c 2,79,-1
EndSplineSet
EndChar

StartChar: ampersand
Encoding: 38 38 9
Width: 744
GlyphClass: 2
Flags: W
LayerCount: 2
Fore
SplineSet
227 384 m 1,0,-1
 216 379 l 2,1,2
 162 351 162 351 132.5 312 c 128,-1,3
 103 273 103 273 102 204 c 0,4,5
 101 170 101 170 114.5 145.5 c 128,-1,6
 128 121 128 121 157 98 c 0,7,8
 192 70 192 70 266 68 c 0,9,10
 351 66 351 66 392 95 c 0,11,12
 419 114 419 114 434 153 c 1,13,14
 411 175 411 175 396 187 c 0,15,16
 391 192 391 192 358 218 c 128,-1,17
 325 244 325 244 305.5 263.5 c 128,-1,18
 286 283 286 283 270 307 c 0,19,20
 247 340 247 340 227 384 c 1,0,-1
496 169 m 1,21,22
 523 141 523 141 540 126.5 c 128,-1,23
 557 112 557 112 583.5 96 c 128,-1,24
 610 80 610 80 638 73 c 0,25,26
 649 70 649 70 654.5 60.5 c 128,-1,27
 660 51 660 51 657 40 c 128,-1,28
 654 29 654 29 644.5 23.5 c 128,-1,29
 635 18 635 18 624 21 c 0,30,31
 554 39 554 39 475 113 c 1,32,33
 456 74 456 74 424 52 c 0,34,35
 368 12 368 12 264 14 c 0,36,37
 173 16 173 16 123 56 c 0,38,39
 46 117 46 117 48 204 c 0,40,41
 49 250 49 250 60.5 287 c 128,-1,42
 72 324 72 324 93.5 350 c 128,-1,43
 115 376 115 376 138 393.5 c 128,-1,44
 161 411 161 411 192 427 c 2,45,-1
 207 435 l 1,46,47
 185 494 185 494 185 560 c 0,48,49
 185 653 185 653 239 686 c 0,50,51
 285 713 285 713 330 708.5 c 128,-1,52
 375 704 375 704 407 673 c 0,53,54
 440 642 440 642 443 597 c 128,-1,55
 446 552 446 552 414 503 c 0,56,57
 384 461 384 461 321 428 c 2,58,-1
 276 407 l 1,59,60
 294 366 294 366 314 337 c 0,61,62
 328 317 328 317 344 301 c 128,-1,63
 360 285 360 285 390 262 c 2,64,-1
 432 229 l 1,65,-1
 450 212 l 1,66,67
 451 214 451 214 455 232 c 2,68,-1
 460 256 l 1,69,-1
 465 277 l 2,70,71
 469 294 469 294 472 301 c 2,72,-1
 479 323 l 2,73,74
 484 338 484 338 488 348 c 2,75,-1
 499 370 l 2,76,77
 505 382 505 382 512 392.5 c 128,-1,78
 519 403 519 403 527 413 c 0,79,80
 551 442 551 442 581 453.5 c 128,-1,81
 611 465 611 465 641 455 c 0,82,83
 670 445 670 445 688 418 c 0,84,85
 706 392 706 392 709 356 c 0,86,87
 710 345 710 345 703 336.5 c 128,-1,88
 696 328 696 328 684.5 327 c 128,-1,89
 673 326 673 326 664.5 333 c 128,-1,90
 656 340 656 340 655 352 c 0,91,92
 651 394 651 394 624 404 c 0,93,94
 596 413 596 413 569 379 c 0,95,96
 546 351 546 351 534 320 c 128,-1,97
 522 289 522 289 511 237 c 128,-1,98
 500 185 500 185 496 169 c 1,21,22
256 457 m 1,99,100
 281 468 281 468 296 476 c 0,101,102
 348 503 348 503 370 535 c 0,103,104
 391 569 391 569 389 593.5 c 128,-1,105
 387 618 387 618 369 635 c 128,-1,106
 351 652 351 652 325 654.5 c 128,-1,107
 299 657 299 657 267 640 c 0,108,109
 239 623 239 623 239 560 c 0,110,111
 239 507 239 507 256 457 c 1,99,100
EndSplineSet
EndChar

StartChar: quotesingle
Encoding: 39 39 10
Width: 204
GlyphClass: 2
Flags: W
LayerCount: 2
Fore
SplineSet
166 645 m 0,0,1
 88 495 88 495 98 375 c 0,2,3
 99 363 99 363 92 354.5 c 128,-1,4
 85 346 85 346 73.5 345 c 128,-1,5
 62 344 62 344 53.5 351 c 128,-1,6
 45 358 45 358 44 369 c 0,7,8
 32 504 32 504 118 669 c 0,9,10
 123 679 123 679 134 682.5 c 128,-1,11
 145 686 145 686 154.5 681 c 128,-1,12
 164 676 164 676 167.5 665 c 128,-1,13
 171 654 171 654 166 645 c 0,0,1
EndSplineSet
EndChar

StartChar: parenleft
Encoding: 40 40 11
Width: 471
GlyphClass: 2
Flags: W
LayerCount: 2
Fore
SplineSet
415 645 m 0,0,1
 338 626 338 626 272 564 c 128,-1,2
 206 502 206 502 164.5 417 c 128,-1,3
 123 332 123 332 109 239 c 0,4,5
 87 94 87 94 140 -2 c 0,6,7
 199 -106 199 -106 333 -115 c 0,8,9
 344 -116 344 -116 351.5 -124.5 c 128,-1,10
 359 -133 359 -133 358 -144 c 128,-1,11
 357 -155 357 -155 348.5 -162.5 c 128,-1,12
 340 -170 340 -170 329 -169 c 0,13,14
 166 -158 166 -158 93 -28 c 0,15,16
 31 84 31 84 55 247 c 0,17,18
 70 347 70 347 115 440 c 128,-1,19
 160 533 160 533 236 604 c 128,-1,20
 312 675 312 675 403 697 c 0,21,22
 414 700 414 700 423.5 694 c 128,-1,23
 433 688 433 688 435.5 677 c 128,-1,24
 438 666 438 666 432 656.5 c 128,-1,25
 426 647 426 647 415 645 c 0,0,1
EndSplineSet
EndChar

StartChar: parenright
Encoding: 41 41 12
Width: 399
GlyphClass: 2
Flags: W
LayerCount: 2
Fore
SplineSet
62 684 m 0,0,1
 169 616 169 616 247 507.5 c 128,-1,2
 325 399 325 399 354 270 c 128,-1,3
 383 141 383 141 335 12 c 0,4,5
 325 -15 325 -15 318 -28 c 0,6,7
 312 -42 312 -42 297 -62.5 c 128,-1,8
 282 -83 282 -83 262 -97 c 0,9,10
 247 -107 247 -107 228.5 -115 c 128,-1,11
 210 -123 210 -123 197.5 -126 c 128,-1,12
 185 -129 185 -129 163.5 -133.5 c 128,-1,13
 142 -138 142 -138 136 -140 c 0,14,15
 125 -143 125 -143 115.5 -137 c 128,-1,16
 106 -131 106 -131 103 -120.5 c 128,-1,17
 100 -110 100 -110 106 -100.5 c 128,-1,18
 112 -91 112 -91 122 -88 c 0,19,20
 134 -85 134 -85 154 -80.5 c 128,-1,21
 174 -76 174 -76 183.5 -73.5 c 128,-1,22
 193 -71 193 -71 206.5 -66 c 128,-1,23
 220 -61 220 -61 230 -53 c 0,24,25
 250 -39 250 -39 260.5 -21.5 c 128,-1,26
 271 -4 271 -4 285 32 c 0,27,28
 325 144 325 144 300 259.5 c 128,-1,29
 275 375 275 375 203.5 475.5 c 128,-1,30
 132 576 132 576 34 638 c 0,31,32
 24 644 24 644 21.5 655 c 128,-1,33
 19 666 19 666 25 675.5 c 128,-1,34
 31 685 31 685 42 687.5 c 128,-1,35
 53 690 53 690 62 684 c 0,0,1
EndSplineSet
EndChar

StartChar: asterisk
Encoding: 42 42 13
Width: 568
GlyphClass: 2
Flags: W
LayerCount: 2
Fore
SplineSet
279 440 m 1,0,1
 211 413 211 413 161 406 c 0,2,3
 149 405 149 405 140.5 411.5 c 128,-1,4
 132 418 132 418 130.5 429.5 c 128,-1,5
 129 441 129 441 135.5 449.5 c 128,-1,6
 142 458 142 458 153 460 c 0,7,8
 199 466 199 466 262 492 c 1,9,-1
 159 576 l 2,10,11
 150 583 150 583 149 594 c 128,-1,12
 148 605 148 605 155 614 c 128,-1,13
 162 623 162 623 173 624 c 128,-1,14
 184 625 184 625 193 618 c 2,15,-1
 281 547 l 1,16,17
 284 603 284 603 294 646 c 0,18,19
 296 657 296 657 305.5 663 c 128,-1,20
 315 669 315 669 326 666.5 c 128,-1,21
 337 664 337 664 343 654.5 c 128,-1,22
 349 645 349 645 346 634 c 0,23,24
 336 589 336 589 334 525 c 1,25,26
 413 566 413 566 491 618 c 0,27,28
 500 625 500 625 511 622.5 c 128,-1,29
 522 620 522 620 528.5 611 c 128,-1,30
 535 602 535 602 532.5 591 c 128,-1,31
 530 580 530 580 521 574 c 0,32,33
 442 520 442 520 362 479 c 1,34,35
 410 437 410 437 448 399 c 0,36,37
 456 391 456 391 456 380 c 128,-1,38
 456 369 456 369 448 361 c 128,-1,39
 440 353 440 353 429 353 c 128,-1,40
 418 353 418 353 410 361 c 0,41,42
 376 395 376 395 333 433 c 1,43,44
 332 314 332 314 315 247 c 0,45,46
 312 236 312 236 302.5 230.5 c 128,-1,47
 293 225 293 225 282 228 c 128,-1,48
 271 231 271 231 265.5 240.5 c 128,-1,49
 260 250 260 250 263 261 c 0,50,51
 278 322 278 322 279 440 c 1,0,1
EndSplineSet
EndChar

StartChar: plus
Encoding: 43 43 14
Width: 530
GlyphClass: 2
Flags: W
LayerCount: 2
Fore
SplineSet
280 545 m 0,0,1
 276 525 276 525 275 502 c 128,-1,2
 274 479 274 479 274 462.5 c 128,-1,3
 274 446 274 446 274.5 417.5 c 128,-1,4
 275 389 275 389 275 374 c 1,5,6
 390 370 390 370 475 347 c 0,7,8
 486 344 486 344 491.5 334.5 c 128,-1,9
 497 325 497 325 494 314 c 128,-1,10
 491 303 491 303 481.5 297.5 c 128,-1,11
 472 292 472 292 461 295 c 0,12,13
 380 317 380 317 274 320 c 1,14,15
 270 160 270 160 270 102 c 0,16,17
 270 91 270 91 262 83 c 128,-1,18
 254 75 254 75 243 75 c 128,-1,19
 232 75 232 75 224 83 c 128,-1,20
 216 91 216 91 216 102 c 0,21,22
 216 160 216 160 220 321 c 1,23,24
 188 321 188 321 51 316 c 0,25,26
 40 316 40 316 31.5 323.5 c 128,-1,27
 23 331 23 331 23 342 c 128,-1,28
 23 353 23 353 30.5 361.5 c 128,-1,29
 38 370 38 370 49 370 c 0,30,31
 188 375 188 375 221 375 c 1,32,33
 221 384 221 384 220.5 416.5 c 128,-1,34
 220 449 220 449 220 465 c 128,-1,35
 220 481 220 481 221.5 507 c 128,-1,36
 223 533 223 533 226 553 c 0,37,38
 228 564 228 564 237 570.5 c 128,-1,39
 246 577 246 577 257 575.5 c 128,-1,40
 268 574 268 574 274.5 565 c 128,-1,41
 281 556 281 556 280 545 c 0,0,1
EndSplineSet
EndChar

StartChar: comma
Encoding: 44 44 15
Width: 244
GlyphClass: 2
Flags: W
LayerCount: 2
Fore
SplineSet
131 72 m 0,0,1
 128 71 128 71 117 68 c 0,2,3
 102 64 102 64 93 64 c 0,4,5
 72 63 72 63 59 78 c 0,6,7
 50 88 50 88 49 98 c 0,8,9
 46 112 46 112 54.5 124 c 128,-1,10
 63 136 63 136 82 141 c 0,11,12
 90 144 90 144 124 149 c 0,13,14
 135 150 135 150 144 143.5 c 128,-1,15
 153 137 153 137 155 126 c 2,16,-1
 155 120 l 1,17,18
 156 120 156 120 157 119 c 0,19,20
 184 103 184 103 197.5 78.5 c 128,-1,21
 211 54 211 54 210 29.5 c 128,-1,22
 209 5 209 5 202 -20 c 0,23,24
 183 -81 183 -81 132 -136 c 0,25,26
 124 -144 124 -144 113 -144 c 128,-1,27
 102 -144 102 -144 93.5 -136.5 c 128,-1,28
 85 -129 85 -129 85 -118 c 128,-1,29
 85 -107 85 -107 92 -98 c 0,30,31
 135 -53 135 -53 151 -4 c 0,32,33
 167 48 167 48 131 72 c 0,0,1
EndSplineSet
EndChar

StartChar: hyphen
Encoding: 45 45 16
Width: 387
GlyphClass: 2
Flags: W
LayerCount: 2
Fore
SplineSet
19 309 m 0,0,1
 91 310 91 310 121 309.5 c 128,-1,2
 151 309 151 309 223.5 305.5 c 128,-1,3
 296 302 296 302 326 301 c 0,4,5
 337 301 337 301 344.5 292.5 c 128,-1,6
 352 284 352 284 352 273 c 128,-1,7
 352 262 352 262 343.5 254.5 c 128,-1,8
 335 247 335 247 324 247 c 0,9,10
 294 248 294 248 223 251.5 c 128,-1,11
 152 255 152 255 122 255.5 c 128,-1,12
 92 256 92 256 21 255 c 0,13,14
 10 255 10 255 1.5 262.5 c 128,-1,15
 -7 270 -7 270 -7 281 c 128,-1,16
 -7 292 -7 292 0.5 300.5 c 128,-1,17
 8 309 8 309 19 309 c 0,0,1
EndSplineSet
EndChar

StartChar: period
Encoding: 46 46 17
Width: 213
GlyphClass: 2
Flags: W
LayerCount: 2
Fore
SplineSet
170 74 m 2,0,-1
 152 57 l 1,1,-1
 148 54 l 1,2,-1
 148 53 l 2,3,4
 146 48 146 48 138 32 c 0,5,6
 134 22 134 22 123 18.5 c 128,-1,7
 112 15 112 15 102 19.5 c 128,-1,8
 92 24 92 24 88.5 35 c 128,-1,9
 85 46 85 46 90 56 c 0,10,11
 103 84 103 84 106 87 c 0,12,13
 109 91 109 91 116 98 c 2,14,-1
 132 112 l 2,15,16
 140 120 140 120 151.5 120 c 128,-1,17
 163 120 163 120 170.5 112 c 128,-1,18
 178 104 178 104 178 92.5 c 128,-1,19
 178 81 178 81 170 74 c 2,0,-1
EndSplineSet
EndChar

StartChar: slash
Encoding: 47 47 18
Width: 427
GlyphClass: 2
Flags: W
LayerCount: 2
Fore
SplineSet
-30 -153 m 0,0,1
 2 -91 2 -91 45 35.5 c 128,-1,2
 88 162 88 162 96 182 c 0,3,4
 118 241 118 241 174 365 c 128,-1,5
 230 489 230 489 251 545 c 0,6,7
 254 555 254 555 266 590.5 c 128,-1,8
 278 626 278 626 285.5 645 c 128,-1,9
 293 664 293 664 309.5 691.5 c 128,-1,10
 326 719 326 719 346 739 c 0,11,12
 355 746 355 746 366 746 c 128,-1,13
 377 746 377 746 384.5 737.5 c 128,-1,14
 392 729 392 729 392 718 c 128,-1,15
 392 707 392 707 384 699 c 0,16,17
 367 684 367 684 354.5 662.5 c 128,-1,18
 342 641 342 641 335.5 625 c 128,-1,19
 329 609 329 609 318 575.5 c 128,-1,20
 307 542 307 542 301 527 c 0,21,22
 277 461 277 461 224 343 c 0,23,24
 164 209 164 209 146 162 c 2,25,-1
 97 20 l 2,26,27
 51 -113 51 -113 18 -177 c 0,28,29
 13 -187 13 -187 2 -190.5 c 128,-1,30
 -9 -194 -9 -194 -18.5 -189 c 128,-1,31
 -28 -184 -28 -184 -31.5 -173 c 128,-1,32
 -35 -162 -35 -162 -30 -153 c 0,0,1
EndSplineSet
EndChar

StartChar: zero
Encoding: 48 48 19
Width: 523
GlyphClass: 2
Flags: W
LayerCount: 2
Fore
SplineSet
236 652 m 1,0,1
 243 667 243 667 260 667 c 0,2,3
 368 667 368 667 431 563 c 0,4,5
 484 476 484 476 488 347 c 0,6,7
 492 222 492 222 448 125 c 0,8,9
 397 14 397 14 305 -3 c 0,10,11
 269 -9 269 -9 230 -1 c 0,12,13
 193 7 193 7 161 26 c 0,14,15
 81 75 81 75 51 143 c 0,16,17
 28 205 28 205 35 286.5 c 128,-1,18
 42 368 42 368 73 450 c 0,19,20
 100 521 100 521 142 576 c 128,-1,21
 184 631 184 631 236 652 c 1,0,1
284 609 m 0,22,23
 239 605 239 605 196 556.5 c 128,-1,24
 153 508 153 508 123 430 c 0,25,26
 95 356 95 356 88.5 282 c 128,-1,27
 82 208 82 208 101 165 c 0,28,29
 124 111 124 111 189 72 c 0,30,31
 241 41 241 41 295 51 c 0,32,33
 360 62 360 62 399 148 c 0,34,35
 438 232 438 232 434 346 c 0,36,37
 430 461 430 461 385 535 c 0,38,39
 347 597 347 597 289 610 c 0,40,41
 287 609 287 609 284 609 c 0,22,23
EndSplineSet
EndChar

StartChar: one
Encoding: 49 49 20
Width: 447
GlyphClass: 2
Flags: W
LayerCount: 2
Fore
SplineSet
192 73 m 0,0,1
 232 65 232 65 292 66 c 1,2,3
 287 114 287 114 293 201 c 128,-1,4
 299 288 299 288 299 307 c 0,5,6
 299 339 299 339 290 392 c 0,7,8
 279 461 279 461 277 483 c 0,9,10
 276 492 276 492 272 568 c 0,11,12
 270 592 270 592 268 609 c 1,13,14
 235 571 235 571 228 561 c 0,15,16
 222 552 222 552 211 550 c 128,-1,17
 200 548 200 548 190.5 554.5 c 128,-1,18
 181 561 181 561 179 572 c 128,-1,19
 177 583 177 583 184 593 c 0,20,21
 193 605 193 605 228 645 c 0,22,23
 251 670 251 670 260 691 c 0,24,25
 265 701 265 701 275.5 705 c 128,-1,26
 286 709 286 709 296 705 c 0,27,28
 306 700 306 700 310 690.5 c 128,-1,29
 314 681 314 681 311 671 c 1,30,31
 315 666 315 666 317 658 c 0,32,33
 321 629 321 629 325 571 c 0,34,35
 330 496 330 496 331 487 c 0,36,37
 332 474 332 474 344 400 c 0,38,39
 353 343 353 343 353 307 c 0,40,41
 353 272 353 272 349 222 c 128,-1,42
 345 172 345 172 343.5 144.5 c 128,-1,43
 342 117 342 117 346 67 c 1,44,-1
 385 67 l 2,45,46
 396 67 396 67 404 59 c 128,-1,47
 412 51 412 51 412 40 c 128,-1,48
 412 29 412 29 404 21 c 128,-1,49
 396 13 396 13 385 13 c 0,50,51
 371 13 371 13 338 12.5 c 128,-1,52
 305 12 305 12 284.5 12 c 128,-1,53
 264 12 264 12 235 13.5 c 128,-1,54
 206 15 206 15 182 19 c 0,55,56
 171 21 171 21 164.5 30.5 c 128,-1,57
 158 40 158 40 160 51 c 128,-1,58
 162 62 162 62 171.5 68.5 c 128,-1,59
 181 75 181 75 192 73 c 0,0,1
EndSplineSet
EndChar

StartChar: two
Encoding: 50 50 21
Width: 655
GlyphClass: 2
Flags: W
LayerCount: 2
Fore
SplineSet
149 87 m 1,0,1
 130 84 130 84 117 79 c 1,2,3
 122 79 122 79 128 80 c 0,4,5
 137 82 137 82 149 87 c 1,0,1
101 436 m 0,6,7
 92 487 92 487 104 530 c 128,-1,8
 116 573 116 573 142.5 599.5 c 128,-1,9
 169 626 169 626 205 640.5 c 128,-1,10
 241 655 241 655 277 654 c 128,-1,11
 313 653 313 653 346.5 635.5 c 128,-1,12
 380 618 380 618 401 585 c 0,13,14
 465 483 465 483 404 328 c 0,15,16
 361 221 361 221 279 126 c 1,17,18
 296 121 296 121 329 109.5 c 128,-1,19
 362 98 362 98 377 94 c 0,20,21
 485 63 485 63 588 83 c 0,22,23
 599 86 599 86 608 79.5 c 128,-1,24
 617 73 617 73 619.5 62 c 128,-1,25
 622 51 622 51 615.5 42 c 128,-1,26
 609 33 609 33 598 31 c 0,27,28
 484 8 484 8 363 42 c 0,29,30
 339 49 339 49 298 62 c 0,31,32
 256 77 256 77 235 82 c 1,33,34
 213 63 213 63 193 50 c 0,35,36
 164 32 164 32 139 27 c 0,37,38
 104 20 104 20 79 38 c 0,39,40
 45 64 45 64 56 94 c 0,41,42
 63 114 63 114 91 127 c 0,43,44
 120 140 120 140 155 143 c 0,45,46
 185 146 185 146 219 140 c 1,47,48
 224 146 224 146 228 150 c 0,49,50
 310 240 310 240 353 348 c 0,51,52
 405 478 405 478 355 557 c 0,53,54
 340 581 340 581 311.5 592 c 128,-1,55
 283 603 283 603 253.5 598 c 128,-1,56
 224 593 224 593 198 576.5 c 128,-1,57
 172 560 172 560 159 525 c 128,-1,58
 146 490 146 490 155 446 c 0,59,60
 157 435 157 435 150.5 425.5 c 128,-1,61
 144 416 144 416 133 414 c 128,-1,62
 122 412 122 412 112.5 418.5 c 128,-1,63
 103 425 103 425 101 436 c 0,6,7
EndSplineSet
EndChar

StartChar: three
Encoding: 51 51 22
Width: 590
GlyphClass: 2
Flags: W
LayerCount: 2
Fore
SplineSet
77 477 m 0,0,1
 81 509 81 509 84 524.5 c 128,-1,2
 87 540 87 540 97 564 c 128,-1,3
 107 588 107 588 124 610 c 0,4,5
 154 648 154 648 201 666 c 0,6,7
 248 685 248 685 296 680 c 0,8,9
 347 675 347 675 386 644 c 128,-1,10
 425 613 425 613 436 560 c 0,11,12
 439 546 439 546 441 521 c 0,13,14
 442 490 442 490 438 475 c 0,15,16
 430 447 430 447 399 404 c 1,17,18
 424 398 424 398 448 383 c 0,19,20
 490 360 490 360 518 321 c 128,-1,21
 546 282 546 282 553.5 234.5 c 128,-1,22
 561 187 561 187 538 137 c 0,23,24
 508 73 508 73 459 35.5 c 128,-1,25
 410 -2 410 -2 357 -10.5 c 128,-1,26
 304 -19 304 -19 253.5 -11.5 c 128,-1,27
 203 -4 203 -4 160 18 c 0,28,29
 117 39 117 39 87.5 71 c 128,-1,30
 58 103 58 103 56 139 c 0,31,32
 53 181 53 181 89 210.5 c 128,-1,33
 125 240 125 240 191 253 c 0,34,35
 201 256 201 256 210.5 249.5 c 128,-1,36
 220 243 220 243 222.5 232.5 c 128,-1,37
 225 222 225 222 218.5 212.5 c 128,-1,38
 212 203 212 203 201 201 c 0,39,40
 173 195 173 195 153 186.5 c 128,-1,41
 133 178 133 178 124.5 169.5 c 128,-1,42
 116 161 116 161 113 154.5 c 128,-1,43
 110 148 110 148 110 142 c 0,44,45
 111 125 111 125 130 104 c 128,-1,46
 149 83 149 83 184 66 c 0,47,48
 221 47 221 47 262.5 41 c 128,-1,49
 304 35 304 35 346.5 42.5 c 128,-1,50
 389 50 389 50 427 80 c 128,-1,51
 465 110 465 110 490 161 c 0,52,53
 511 210 511 210 491 259 c 128,-1,54
 471 308 471 308 422 337 c 0,55,56
 389 355 389 355 355 357 c 1,57,58
 347 350 347 350 340 346 c 0,59,60
 303 327 303 327 275 350 c 0,61,62
 263 360 263 360 263 374 c 0,63,64
 263 389 263 389 276 398 c 0,65,66
 283 403 283 403 295 405 c 0,67,68
 298 406 298 406 321 409 c 0,69,70
 328 410 328 410 334 410 c 1,71,72
 339 415 339 415 344 421 c 0,73,74
 359 439 359 439 371.5 460 c 128,-1,75
 384 481 384 481 386 489 c 0,76,77
 388 496 388 496 387 518 c 0,78,79
 386 539 386 539 384 548 c 0,80,81
 376 583 376 583 351 602.5 c 128,-1,82
 326 622 326 622 290.5 626 c 128,-1,83
 255 630 255 630 221 616.5 c 128,-1,84
 187 603 187 603 166 576 c 0,85,86
 148 553 148 553 142 532.5 c 128,-1,87
 136 512 136 512 131 471 c 0,88,89
 129 459 129 459 120.5 452.5 c 128,-1,90
 112 446 112 446 100.5 447.5 c 128,-1,91
 89 449 89 449 82.5 457.5 c 128,-1,92
 76 466 76 466 77 477 c 0,0,1
EndSplineSet
EndChar

StartChar: four
Encoding: 52 52 23
Width: 568
GlyphClass: 2
Flags: W
LayerCount: 2
Fore
SplineSet
339 281 m 1,0,1
 341 432 341 432 363 589 c 1,2,3
 236 471 236 471 140 328 c 1,4,-1
 110 279 l 1,5,-1
 105 271 l 1,6,7
 113 272 113 272 121 272 c 0,8,9
 138 274 138 274 161 276 c 0,10,11
 184 279 184 279 185 279 c 0,12,13
 252 283 252 283 339 281 c 1,0,1
374 662 m 1,14,15
 377 672 377 672 385.5 677.5 c 128,-1,16
 394 683 394 683 404 682 c 0,17,18
 415 680 415 680 421.5 671 c 128,-1,19
 428 662 428 662 427 651 c 0,20,21
 395 462 395 462 393 280 c 1,22,23
 401 280 401 280 507 276 c 0,24,25
 518 276 518 276 525.5 267.5 c 128,-1,26
 533 259 533 259 533 248 c 128,-1,27
 533 237 533 237 524.5 229.5 c 128,-1,28
 516 222 516 222 505 222 c 0,29,30
 501 222 501 222 458 223.5 c 128,-1,31
 415 225 415 225 392 226 c 1,32,33
 393 131 393 131 403 44 c 0,34,35
 404 33 404 33 397 24 c 128,-1,36
 390 15 390 15 379 14 c 128,-1,37
 368 13 368 13 359 20 c 128,-1,38
 350 27 350 27 349 38 c 0,39,40
 339 129 339 129 338 227 c 1,41,42
 255 229 255 229 189 225 c 0,43,44
 187 225 187 225 184.5 224.5 c 128,-1,45
 182 224 182 224 177 223.5 c 128,-1,46
 172 223 172 223 167 223 c 0,47,48
 143 220 143 220 125 219 c 0,49,50
 98 217 98 217 82 217 c 0,51,52
 70 218 70 218 62 220 c 0,53,54
 44 225 44 225 37 239 c 0,55,56
 34 247 34 247 35 255 c 0,57,58
 36 257 36 257 36 259 c 0,59,60
 37 261 37 261 38 262.5 c 128,-1,61
 39 264 39 264 40 267 c 0,62,63
 42 271 42 271 46 277 c 2,64,-1
 64 307 l 2,65,66
 88 347 88 347 96 358 c 0,67,68
 207 523 207 523 355 655 c 0,69,70
 363 662 363 662 374 662 c 1,14,15
EndSplineSet
EndChar

StartChar: five
Encoding: 53 53 24
Width: 557
GlyphClass: 2
Flags: W
LayerCount: 2
Fore
SplineSet
495 567 m 0,0,1
 486 567 486 567 321 592 c 0,2,3
 255 602 255 602 221 606 c 0,4,5
 204 607 204 607 194 608 c 1,6,7
 193 604 193 604 193 599 c 0,8,9
 191 581 191 581 191 548 c 0,10,11
 191 460 191 460 189 447 c 0,12,13
 188 446 188 446 186 438 c 2,14,-1
 183 418 l 2,15,16
 181 407 181 407 179 397 c 1,17,18
 192 409 192 409 200 413 c 0,19,20
 241 437 241 437 310 435 c 0,21,22
 382 433 382 433 420 403 c 0,23,24
 458 375 458 375 482 299 c 0,25,26
 511 205 511 205 470.5 128.5 c 128,-1,27
 430 52 430 52 351 18 c 0,28,29
 314 2 314 2 273.5 -0.5 c 128,-1,30
 233 -3 233 -3 194 8 c 128,-1,31
 155 19 155 19 119.5 48.5 c 128,-1,32
 84 78 84 78 61 124 c 0,33,34
 56 134 56 134 59.5 144.5 c 128,-1,35
 63 155 63 155 73 160 c 128,-1,36
 83 165 83 165 93.5 161.5 c 128,-1,37
 104 158 104 158 109 148 c 0,38,39
 133 102 133 102 171.5 77.5 c 128,-1,40
 210 53 210 53 249.5 53 c 128,-1,41
 289 53 289 53 330 68 c 0,42,43
 392 94 392 94 422.5 152.5 c 128,-1,44
 453 211 453 211 430 283 c 0,45,46
 412 342 412 342 388 361 c 0,47,48
 363 379 363 379 309 381 c 128,-1,49
 255 383 255 383 228 367 c 0,50,51
 223 364 223 364 195 338 c 2,52,-1
 175 320 l 2,53,54
 169 315 169 315 164 313 c 0,55,56
 152 306 152 306 141 308 c 0,57,58
 133 310 133 310 127.5 315.5 c 128,-1,59
 122 321 122 321 120 325 c 2,60,-1
 119 330 l 2,61,62
 118 334 118 334 118 339 c 0,63,64
 118 345 118 345 119 355 c 0,65,66
 120 370 120 370 124 394 c 0,67,68
 126 407 126 407 128 421 c 2,69,-1
 133 446 l 2,70,71
 135 456 135 456 135 457 c 0,72,73
 137 465 137 465 137 548 c 0,74,75
 137 584 137 584 139 603 c 0,76,77
 140 617 140 617 142 626 c 0,78,79
 145 641 145 641 152 649 c 0,80,81
 160 658 160 658 174 661 c 0,82,83
 180 662 180 662 189 662 c 0,84,85
 203 662 203 662 226 659 c 0,86,87
 262 656 262 656 329 645 c 0,88,89
 488 621 488 621 495 621 c 0,90,91
 506 621 506 621 514 613 c 128,-1,92
 522 605 522 605 522 594 c 128,-1,93
 522 583 522 583 514 575 c 128,-1,94
 506 567 506 567 495 567 c 0,0,1
EndSplineSet
EndChar

StartChar: six
Encoding: 54 54 25
Width: 530
GlyphClass: 2
Flags: W
LayerCount: 2
Fore
SplineSet
91 260 m 1,0,1
 96 178 96 178 130 120 c 0,2,3
 163 63 163 63 221 47 c 0,4,5
 281 30 281 30 322 45 c 0,6,7
 364 59 364 59 397 87 c 0,8,9
 416 103 416 103 428 134 c 128,-1,10
 440 165 440 165 441.5 202 c 128,-1,11
 443 239 443 239 433.5 270.5 c 128,-1,12
 424 302 424 302 406 318 c 0,13,14
 386 338 386 338 363 346 c 128,-1,15
 340 354 340 354 304 358 c 0,16,17
 229 366 229 366 197 350 c 0,18,19
 162 333 162 333 137 267 c 0,20,21
 133 257 133 257 123 252.5 c 128,-1,22
 113 248 113 248 102 252 c 0,23,24
 96 254 96 254 91 260 c 1,0,1
449 540 m 0,25,26
 398 587 398 587 340 610.5 c 128,-1,27
 282 634 282 634 232 616 c 0,28,29
 180 596 180 596 139 515 c 0,30,31
 99 433 99 433 92 330 c 0,32,33
 90 312 90 312 90 295 c 1,34,35
 122 373 122 373 173 399 c 0,36,37
 220 422 220 422 310 412 c 0,38,39
 353 407 353 407 384 396 c 128,-1,40
 415 385 415 385 444 358 c 0,41,42
 472 331 472 331 484.5 288.5 c 128,-1,43
 497 246 497 246 495 200 c 128,-1,44
 493 154 493 154 477 112.5 c 128,-1,45
 461 71 461 71 431 45 c 0,46,47
 391 11 391 11 340 -7 c 0,48,49
 283 -26 283 -26 207 -5 c 0,50,51
 157 9 157 9 120.5 44 c 128,-1,52
 84 79 84 79 65.5 127 c 128,-1,53
 47 175 47 175 40 227 c 0,54,55
 34 279 34 279 38 334 c 0,56,57
 46 447 46 447 91 538 c 0,58,59
 141 639 141 639 214 666 c 0,60,61
 244 677 244 677 276 677 c 128,-1,62
 308 677 308 677 336.5 669 c 128,-1,63
 365 661 365 661 393.5 646 c 128,-1,64
 422 631 422 631 444 614.5 c 128,-1,65
 466 598 466 598 485 580 c 0,66,67
 494 572 494 572 494 561 c 128,-1,68
 494 550 494 550 486.5 541.5 c 128,-1,69
 479 533 479 533 468 533 c 128,-1,70
 457 533 457 533 449 540 c 0,25,26
EndSplineSet
EndChar

StartChar: seven
Encoding: 55 55 26
Width: 594
GlyphClass: 2
Flags: W
LayerCount: 2
Fore
SplineSet
113 640 m 0,0,1
 149 643 149 643 227 634 c 0,2,3
 297 626 297 626 332 629 c 0,4,5
 333 629 333 629 368 637 c 0,6,7
 409 646 409 646 437 650 c 0,8,9
 482 656 482 656 508 652 c 0,10,11
 528 649 528 649 543.5 637.5 c 128,-1,12
 559 626 559 626 559 602 c 0,13,14
 559 591 559 591 550 576 c 0,15,16
 544 567 544 567 534 555 c 0,17,18
 519 537 519 537 491 506 c 2,19,-1
 460 474 l 1,20,-1
 432 443 l 2,21,22
 421 431 421 431 417 427 c 0,23,24
 368 368 368 368 341 331 c 128,-1,25
 314 294 314 294 286.5 244.5 c 128,-1,26
 259 195 259 195 248 143.5 c 128,-1,27
 237 92 237 92 237 30 c 0,28,29
 237 19 237 19 229 11 c 128,-1,30
 221 3 221 3 210 3 c 128,-1,31
 199 3 199 3 191 11 c 128,-1,32
 183 19 183 19 183 30 c 0,33,34
 183 86 183 86 193 136.5 c 128,-1,35
 203 187 203 187 217.5 225 c 128,-1,36
 232 263 232 263 260 307.5 c 128,-1,37
 288 352 288 352 312 382 c 2,38,-1
 375 461 l 2,39,40
 379 466 379 466 390 478 c 2,41,-1
 420 510 l 1,42,-1
 451 542 l 2,43,44
 477 571 477 571 492 589 c 0,45,46
 497 595 497 595 500 599 c 1,47,48
 481 602 481 602 444 597 c 0,49,50
 418 593 418 593 380 584 c 2,51,-1
 336 575 l 1,52,53
 296 572 296 572 221 580 c 0,54,55
 150 589 150 589 117 586 c 0,56,57
 106 585 106 585 97.5 592.5 c 128,-1,58
 89 600 89 600 88 611 c 128,-1,59
 87 622 87 622 94.5 630.5 c 128,-1,60
 102 639 102 639 113 640 c 0,0,1
EndSplineSet
EndChar

StartChar: eight
Encoding: 56 56 27
Width: 554
GlyphClass: 2
Flags: W
LayerCount: 2
Fore
SplineSet
150 354 m 1,0,1
 140 361 140 361 133 368 c 0,2,3
 108 391 108 391 101.5 423.5 c 128,-1,4
 95 456 95 456 101.5 485.5 c 128,-1,5
 108 515 108 515 123 546 c 0,6,7
 144 589 144 589 178.5 625 c 128,-1,8
 213 661 213 661 247 673 c 0,9,10
 290 687 290 687 362 672 c 0,11,12
 393 666 393 666 412 656 c 1,13,14
 413 663 413 663 416 669 c 0,15,16
 423 678 423 678 433.5 680.5 c 128,-1,17
 444 683 444 683 454 677 c 0,18,19
 490 653 490 653 505 613 c 128,-1,20
 520 573 520 573 518 528 c 0,21,22
 516 486 516 486 500.5 445 c 128,-1,23
 485 404 485 404 459 376 c 0,24,25
 443 358 443 358 422 345 c 1,26,27
 481 323 481 323 507 283 c 0,28,29
 513 272 513 272 516.5 260.5 c 128,-1,30
 520 249 520 249 519 236.5 c 128,-1,31
 518 224 518 224 517 216.5 c 128,-1,32
 516 209 516 209 513.5 197 c 128,-1,33
 511 185 511 185 510 185 c 0,34,35
 501 138 501 138 474 96 c 128,-1,36
 447 54 447 54 409 24.5 c 128,-1,37
 371 -5 371 -5 322 -18 c 0,38,39
 273 -30 273 -30 223 -18 c 0,40,41
 119 7 119 7 88 100 c 0,42,43
 62 180 62 180 98 277 c 0,44,45
 118 334 118 334 150 354 c 1,0,1
349 311 m 1,46,47
 343 308 343 308 336 309 c 0,48,49
 327 310 327 310 307 313 c 0,50,51
 288 312 288 312 269 314 c 128,-1,52
 250 316 250 316 230 320 c 1,53,54
 197 320 197 320 179 309 c 0,55,56
 163 299 163 299 148 259 c 0,57,58
 120 179 120 179 139 117 c 0,59,60
 161 52 161 52 235 34 c 0,61,62
 309 17 309 17 375.5 67 c 128,-1,63
 442 117 442 117 458 195 c 0,64,65
 459 201 459 201 461 212 c 128,-1,66
 463 223 463 223 464 226.5 c 128,-1,67
 465 230 465 230 465.5 236.5 c 128,-1,68
 466 243 466 243 465 246.5 c 128,-1,69
 464 250 464 250 461 253 c 0,70,71
 443 281 443 281 394 298 c 0,72,73
 376 304 376 304 349 311 c 1,46,47
417 569 m 0,74,75
 410 593 410 593 396 603 c 128,-1,76
 382 613 382 613 352 620 c 0,77,78
 294 631 294 631 265 621 c 0,79,80
 243 614 243 614 216 586 c 128,-1,81
 189 558 189 558 171 522 c 0,82,83
 153 484 153 484 152.5 453.5 c 128,-1,84
 152 423 152 423 169 408 c 0,85,86
 193 386 193 386 237 374 c 1,87,-1
 252 374 l 2,88,89
 267 373 267 373 288 370 c 1,90,91
 299 380 299 380 314 376 c 0,92,93
 323 373 323 373 335 370 c 1,94,95
 389 379 389 379 419 412 c 0,96,97
 438 433 438 433 450 465 c 128,-1,98
 462 497 462 497 464 530 c 0,99,100
 465 545 465 545 463 559 c 1,101,102
 458 553 458 553 451 551 c 0,103,104
 440 548 440 548 430 553.5 c 128,-1,105
 420 559 420 559 417 569 c 0,74,75
EndSplineSet
EndChar

StartChar: nine
Encoding: 57 57 28
Width: 582
GlyphClass: 2
Flags: W
LayerCount: 2
Fore
SplineSet
405 643 m 1,0,-1
 407 645 l 1,1,2
 419 651 419 651 432 647 c 0,3,4
 447 641 447 641 456 624 c 0,5,6
 461 614 461 614 463 599 c 0,7,8
 466 586 466 586 466 567 c 1,9,-1
 475 549 l 2,10,11
 496 507 496 507 503 490 c 0,12,13
 523 440 523 440 534 389.5 c 128,-1,14
 545 339 545 339 547.5 278.5 c 128,-1,15
 550 218 550 218 532 170 c 0,16,17
 508 100 508 100 446.5 56.5 c 128,-1,18
 385 13 385 13 310 5 c 0,19,20
 234 -4 234 -4 164.5 26.5 c 128,-1,21
 95 57 95 57 57 125 c 0,22,23
 52 135 52 135 55 145.5 c 128,-1,24
 58 156 58 156 68 161.5 c 128,-1,25
 78 167 78 167 88.5 164 c 128,-1,26
 99 161 99 161 105 151 c 0,27,28
 134 99 134 99 188 75.5 c 128,-1,29
 242 52 242 52 304 58 c 0,30,31
 365 65 365 65 414 100 c 0,32,33
 462 134 462 134 480 188 c 0,34,35
 493 226 493 226 493 274 c 128,-1,36
 493 322 493 322 484 366.5 c 128,-1,37
 475 411 475 411 458 456 c 1,38,39
 458 454 458 454 457 452 c 0,40,41
 432 347 432 347 386 300 c 0,42,43
 327 242 327 242 222 253 c 0,44,45
 179 258 179 258 147.5 281.5 c 128,-1,46
 116 305 116 305 102 339 c 128,-1,47
 88 373 88 373 83 413 c 128,-1,48
 78 453 78 453 90 491 c 0,49,50
 100 532 100 532 123.5 567 c 128,-1,51
 147 602 147 602 182 629 c 128,-1,52
 217 656 217 656 268.5 668.5 c 128,-1,53
 320 681 320 681 381 674 c 0,54,55
 392 673 392 673 399 664 c 128,-1,56
 406 655 406 655 405 644 c 2,57,-1
 405 643 l 1,0,-1
375 620 m 0,58,59
 278 631 278 631 218.5 588.5 c 128,-1,60
 159 546 159 546 142 477 c 0,61,62
 126 412 126 412 151 362.5 c 128,-1,63
 176 313 176 313 228 307 c 0,64,65
 307 298 307 298 348 339 c 0,66,67
 383 374 383 374 405 464 c 0,68,69
 411 490 411 490 412 545 c 2,70,-1
 412 555 l 1,71,72
 405 571 405 571 400 586 c 0,73,74
 400 587 400 587 399 590 c 128,-1,75
 398 593 398 593 398 594 c 0,76,77
 395 601 395 601 394 605 c 0,78,79
 391 616 391 616 393 624 c 2,80,-1
 393 625 l 1,81,82
 385 619 385 619 375 620 c 0,58,59
EndSplineSet
EndChar

StartChar: colon
Encoding: 58 58 29
Width: 180
GlyphClass: 2
Flags: W
LayerCount: 2
Fore
SplineSet
145 355 m 128,-1,1
 145 344 145 344 137 336 c 128,-1,2
 129 328 129 328 118 328 c 128,-1,3
 107 328 107 328 99 336 c 128,-1,4
 91 344 91 344 91 355 c 128,-1,5
 91 366 91 366 99 374 c 128,-1,6
 107 382 107 382 118 382 c 128,-1,7
 129 382 129 382 137 374 c 128,-1,0
 145 366 145 366 145 355 c 128,-1,1
145 19 m 128,-1,9
 145 8 145 8 137 0 c 128,-1,10
 129 -8 129 -8 118 -8 c 128,-1,11
 107 -8 107 -8 99 0 c 128,-1,12
 91 8 91 8 91 19 c 128,-1,13
 91 30 91 30 99 38 c 128,-1,14
 107 46 107 46 118 46 c 128,-1,15
 129 46 129 46 137 38 c 128,-1,8
 145 30 145 30 145 19 c 128,-1,9
EndSplineSet
EndChar

StartChar: semicolon
Encoding: 59 59 30
Width: 231
GlyphClass: 2
Flags: W
LayerCount: 2
Fore
SplineSet
143 83 m 1,0,1
 161 75 161 75 172 65 c 0,2,3
 203 38 203 38 195 -1 c 0,4,5
 188 -39 188 -39 139 -86 c 0,6,7
 131 -94 131 -94 119.5 -94 c 128,-1,8
 108 -94 108 -94 100.5 -86 c 128,-1,9
 93 -78 93 -78 93 -66.5 c 128,-1,10
 93 -55 93 -55 101 -48 c 0,11,12
 138 -12 138 -12 142 9 c 0,13,14
 144 18 144 18 136 24 c 0,15,16
 128 31 128 31 104 42 c 0,17,18
 90 48 90 48 84 52 c 0,19,20
 68 61 68 61 64 76 c 0,21,22
 58 98 58 98 77 111 c 0,23,24
 85 115 85 115 96 117 c 2,25,-1
 106 118 l 1,26,-1
 109 118 l 1,27,28
 119 122 119 122 129.5 117.5 c 128,-1,29
 140 113 140 113 143 102 c 0,30,31
 147 93 147 93 143 83 c 1,0,1
145 372 m 128,-1,33
 145 361 145 361 137 353 c 128,-1,34
 129 345 129 345 118 345 c 128,-1,35
 107 345 107 345 99 353 c 128,-1,36
 91 361 91 361 91 372 c 128,-1,37
 91 383 91 383 99 391 c 128,-1,38
 107 399 107 399 118 399 c 128,-1,39
 129 399 129 399 137 391 c 128,-1,32
 145 383 145 383 145 372 c 128,-1,33
EndSplineSet
EndChar

StartChar: less
Encoding: 60 60 31
Width: 479
GlyphClass: 2
Flags: W
LayerCount: 2
Fore
SplineSet
426 517 m 0,0,1
 383 473 383 473 290 439 c 0,2,3
 277 435 277 435 245 423.5 c 128,-1,4
 213 412 213 412 192.5 404 c 128,-1,5
 172 396 172 396 154 387 c 2,6,-1
 102 358 l 1,7,-1
 96 355 l 1,8,9
 153 328 153 328 263 264 c 0,10,11
 374 199 374 199 429 173 c 0,12,13
 439 169 439 169 442.5 158 c 128,-1,14
 446 147 446 147 441.5 137 c 128,-1,15
 437 127 437 127 426 123.5 c 128,-1,16
 415 120 415 120 405 125 c 0,17,18
 361 146 361 146 236 218 c 0,19,20
 128 280 128 280 70 308 c 1,21,-1
 68 308 l 1,22,-1
 66 308 l 2,23,24
 65 308 65 308 62 308.5 c 128,-1,25
 59 309 59 309 55 310 c 0,26,27
 29 315 29 315 19 333 c 0,28,29
 12 345 12 345 18 359 c 0,30,31
 21 364 21 364 25 370 c 0,32,33
 30 375 30 375 39 382 c 0,34,35
 52 391 52 391 74 404 c 2,36,-1
 130 435 l 2,37,38
 149 445 149 445 171.5 454 c 128,-1,39
 194 463 194 463 228 474.5 c 128,-1,40
 262 486 262 486 271 490 c 0,41,42
 353 520 353 520 388 555 c 0,43,44
 396 563 396 563 407 563 c 128,-1,45
 418 563 418 563 426 555 c 128,-1,46
 434 547 434 547 434 536 c 128,-1,47
 434 525 434 525 426 517 c 0,0,1
EndSplineSet
EndChar

StartChar: equal
Encoding: 61 61 32
Width: 585
GlyphClass: 2
Flags: W
LayerCount: 2
Fore
SplineSet
27 445 m 0,0,1
 111 448 111 448 255 440 c 0,2,3
 417 431 417 431 478 431 c 0,4,5
 489 431 489 431 497 423 c 128,-1,6
 505 415 505 415 505 404 c 128,-1,7
 505 393 505 393 497 385 c 128,-1,8
 489 377 489 377 478 377 c 0,9,10
 414 377 414 377 252 386 c 0,11,12
 109 394 109 394 29 391 c 0,13,14
 18 391 18 391 9.5 398.5 c 128,-1,15
 1 406 1 406 1 417 c 128,-1,16
 1 428 1 428 8.5 436.5 c 128,-1,17
 16 445 16 445 27 445 c 0,0,1
34 301 m 0,18,19
 65 301 65 301 130 308 c 0,20,21
 204 316 204 316 231 317 c 0,22,23
 368 324 368 324 525 312 c 0,24,25
 536 311 536 311 543.5 302.5 c 128,-1,26
 551 294 551 294 550 283 c 128,-1,27
 549 272 549 272 540.5 264.5 c 128,-1,28
 532 257 532 257 521 258 c 0,29,30
 367 270 367 270 233 263 c 0,31,32
 209 262 209 262 136 254 c 0,33,34
 72 247 72 247 34 247 c 0,35,36
 23 247 23 247 15 255 c 128,-1,37
 7 263 7 263 7 274 c 128,-1,38
 7 285 7 285 15 293 c 128,-1,39
 23 301 23 301 34 301 c 0,18,19
EndSplineSet
EndChar

StartChar: greater
Encoding: 62 62 33
Width: 507
GlyphClass: 2
Flags: W
LayerCount: 2
Fore
SplineSet
418 308 m 1,0,1
 422 311 422 311 423 312 c 2,2,-1
 419 320 l 2,3,4
 417 321 417 321 418 308 c 1,0,1
65 582 m 0,5,6
 93 554 93 554 133.5 524 c 128,-1,7
 174 494 174 494 200 477 c 128,-1,8
 226 460 226 460 283 426 c 128,-1,9
 340 392 340 392 357 381 c 0,10,11
 381 366 381 366 434 337 c 1,12,-1
 435 336 l 2,13,14
 438 336 438 336 445 333 c 0,15,16
 471 324 471 324 472 301 c 0,17,18
 473 284 473 284 459 272 c 0,19,20
 453 266 453 266 442 260 c 0,21,22
 427 253 427 253 402 244 c 2,23,-1
 382 238 l 2,24,25
 372 234 372 234 364 232 c 2,26,-1
 350 228 l 1,27,-1
 343 226 l 2,28,29
 197 182 197 182 61 106 c 0,30,31
 51 101 51 101 40.5 104 c 128,-1,32
 30 107 30 107 24.5 117 c 128,-1,33
 19 127 19 127 22 137.5 c 128,-1,34
 25 148 25 148 35 154 c 0,35,36
 175 232 175 232 327 278 c 0,37,38
 328 278 328 278 334.5 280 c 128,-1,39
 341 282 341 282 348 283.5 c 128,-1,40
 355 285 355 285 366 288 c 2,41,-1
 385 295 l 1,42,-1
 393 298 l 1,43,44
 367 312 367 312 329 335 c 2,45,-1
 256 379 l 1,46,-1
 170 432 l 2,47,48
 143 449 143 449 100 481.5 c 128,-1,49
 57 514 57 514 27 544 c 0,50,51
 19 552 19 552 19 563 c 128,-1,52
 19 574 19 574 27 582 c 128,-1,53
 35 590 35 590 46 590 c 128,-1,54
 57 590 57 590 65 582 c 0,5,6
EndSplineSet
EndChar

StartChar: question
Encoding: 63 63 34
Width: 523
GlyphClass: 2
Flags: W
LayerCount: 2
Fore
SplineSet
209 421 m 0,0,1
 207 421 207 421 201.5 419 c 128,-1,2
 196 417 196 417 190 415.5 c 128,-1,3
 184 414 184 414 179 412 c 0,4,5
 152 405 152 405 135 410 c 0,6,7
 105 419 105 419 87 445 c 128,-1,8
 69 471 69 471 68 499.5 c 128,-1,9
 67 528 67 528 76 554 c 0,10,11
 81 564 81 564 86 572 c 128,-1,12
 91 580 91 580 98 587.5 c 128,-1,13
 105 595 105 595 109 598 c 2,14,-1
 122 609 l 2,15,16
 130 616 130 616 133 618 c 0,17,18
 198 675 198 675 281.5 672.5 c 128,-1,19
 365 670 365 670 427 603 c 0,20,21
 447 582 447 582 462.5 547.5 c 128,-1,22
 478 513 478 513 484 482 c 0,23,24
 500 394 500 394 464 340 c 0,25,26
 442 305 442 305 383 274 c 0,27,28
 333 247 333 247 323 233 c 0,29,30
 306 211 306 211 321 167 c 0,31,32
 324 156 324 156 319 146 c 128,-1,33
 314 136 314 136 303.5 132.5 c 128,-1,34
 293 129 293 129 283 134 c 128,-1,35
 273 139 273 139 269 149 c 0,36,37
 245 222 245 222 280 267 c 0,38,39
 285 272 285 272 289.5 277 c 128,-1,40
 294 282 294 282 300.5 286.5 c 128,-1,41
 307 291 307 291 311.5 294.5 c 128,-1,42
 316 298 316 298 324 302.5 c 128,-1,43
 332 307 332 307 335 309 c 128,-1,44
 338 311 338 311 347 316 c 2,45,-1
 358 321 l 2,46,47
 404 346 404 346 419 370 c 0,48,49
 443 406 443 406 430 472 c 0,50,51
 426 497 426 497 414 524 c 128,-1,52
 402 551 402 551 387 567 c 0,53,54
 341 616 341 616 280 618 c 128,-1,55
 219 620 219 620 167 576 c 0,56,57
 163 573 163 573 156 566 c 2,58,-1
 145 558 l 1,59,-1
 138 551 l 2,60,61
 133 547 133 547 130.5 542.5 c 128,-1,62
 128 538 128 538 126 532 c 0,63,64
 117 511 117 511 125 489 c 128,-1,65
 133 467 133 467 151 462 c 0,66,67
 154 462 154 462 166 465 c 0,68,69
 171 466 171 466 176 468 c 2,70,-1
 186 470 l 2,71,72
 191 472 191 472 193 473 c 0,73,74
 204 476 204 476 214 470.5 c 128,-1,75
 224 465 224 465 227 454.5 c 128,-1,76
 230 444 230 444 224.5 434 c 128,-1,77
 219 424 219 424 209 421 c 0,0,1
302 41 m 128,-1,79
 302 30 302 30 294 22 c 128,-1,80
 286 14 286 14 275 14 c 128,-1,81
 264 14 264 14 256 22 c 128,-1,82
 248 30 248 30 248 41 c 128,-1,83
 248 52 248 52 256 60 c 128,-1,84
 264 68 264 68 275 68 c 128,-1,85
 286 68 286 68 294 60 c 128,-1,78
 302 52 302 52 302 41 c 128,-1,79
EndSplineSet
EndChar

StartChar: at
Encoding: 64 64 35
Width: 664
GlyphClass: 2
Flags: W
LayerCount: 2
Fore
SplineSet
401 428 m 1,0,1
 360 448 360 448 324.5 438.5 c 128,-1,2
 289 429 289 429 262 397 c 0,3,4
 232 361 232 361 228 322 c 128,-1,5
 224 283 224 283 248 260 c 0,6,7
 274 235 274 235 310 236.5 c 128,-1,8
 346 238 346 238 362 264 c 0,9,10
 375 283 375 283 380 314 c 0,11,12
 389 375 389 375 391 381 c 0,13,14
 392 384 392 384 394 398 c 0,15,16
 397 414 397 414 399 422 c 2,17,-1
 401 428 l 1,0,1
401 225 m 1,18,19
 363 181 363 181 306 182.5 c 128,-1,20
 249 184 249 184 210 222 c 0,21,22
 181 250 181 250 175 289.5 c 128,-1,23
 169 329 169 329 182 365.5 c 128,-1,24
 195 402 195 402 221 431 c 0,25,26
 247 463 247 463 282 480.5 c 128,-1,27
 317 498 317 498 361.5 495.5 c 128,-1,28
 406 493 406 493 447 463 c 0,29,30
 452 459 452 459 455 453 c 2,31,-1
 461 447 l 2,32,33
 480 424 480 424 468 378 c 0,34,35
 465 366 465 366 458 345 c 0,36,37
 451 321 451 321 448 313 c 0,38,39
 439 280 439 280 442 265 c 0,40,41
 445 252 445 252 464 247 c 0,42,43
 478 243 478 243 485 245 c 0,44,45
 491 246 491 246 501 254 c 2,46,-1
 524 277 l 2,47,48
 556 310 556 310 561 319 c 0,49,50
 581 363 581 363 574 432 c 0,51,52
 564 536 564 536 524 564 c 0,53,54
 495 584 495 584 442.5 586.5 c 128,-1,55
 390 589 390 589 331 575 c 0,56,57
 273 562 273 562 224 537.5 c 128,-1,58
 175 513 175 513 152 486 c 0,59,60
 111 438 111 438 100 354 c 0,61,62
 98 344 98 344 98 313 c 0,63,64
 98 281 98 281 99 274 c 0,65,66
 111 225 111 225 157.5 178.5 c 128,-1,67
 204 132 204 132 266 108 c 0,68,69
 326 82 326 82 380.5 92.5 c 128,-1,70
 435 103 435 103 464 150 c 0,71,72
 470 160 470 160 481 162.5 c 128,-1,73
 492 165 492 165 501.5 159 c 128,-1,74
 511 153 511 153 513.5 142 c 128,-1,75
 516 131 516 131 510 122 c 0,76,77
 481 75 481 75 435 54 c 128,-1,78
 389 33 389 33 342 36 c 128,-1,79
 295 39 295 39 246 58 c 0,80,81
 174 86 174 86 118 142 c 128,-1,82
 62 198 62 198 47 262 c 0,83,84
 44 275 44 275 44 314 c 0,85,86
 44 348 44 348 46 362 c 0,87,88
 59 462 59 462 112 522 c 0,89,90
 142 556 142 556 198.5 584.5 c 128,-1,91
 255 613 255 613 319 628 c 0,92,93
 378 644 378 644 445 640.5 c 128,-1,94
 512 637 512 637 554 608 c 0,95,96
 575 594 575 594 589.5 572.5 c 128,-1,97
 604 551 604 551 611.5 525 c 128,-1,98
 619 499 619 499 622 480.5 c 128,-1,99
 625 462 625 462 628 438 c 0,100,101
 636 353 636 353 609 297 c 0,102,103
 601 280 601 280 562 239 c 0,104,105
 537 214 537 214 535 212 c 0,106,107
 514 195 514 195 495 192 c 0,108,109
 477 188 477 188 450 195 c 0,110,111
 418 203 418 203 401 225 c 1,18,19
EndSplineSet
EndChar

StartChar: A
Encoding: 65 65 36
Width: 693
GlyphClass: 2
Flags: W
LayerCount: 2
Fore
SplineSet
179 314 m 1,0,1
 239 305 239 305 366 313 c 1,2,-1
 380 313 l 1,3,4
 363 367 363 367 354 414 c 0,5,6
 353 422 353 422 348 469 c 0,7,8
 342 519 342 519 337 551 c 0,9,10
 330 595 330 595 323 619 c 1,11,-1
 321 616 l 2,12,13
 306 588 306 588 282 538 c 2,14,-1
 220 402 l 1,15,-1
 179 314 l 1,0,1
4 34 m 0,16,17
 18 60 18 60 32.5 92.5 c 128,-1,18
 47 125 47 125 54 144 c 2,19,-1
 79 210 l 2,20,21
 96 255 96 255 101 267 c 0,22,23
 108 287 108 287 170 424 c 2,24,-1
 233 561 l 2,25,26
 258 613 258 613 274 643 c 0,27,28
 285 661 285 661 292 671 c 0,29,30
 298 678 298 678 302 682 c 0,31,32
 312 692 312 692 324 692 c 0,33,34
 346 692 346 692 360 671 c 0,35,36
 367 659 367 659 373 640 c 0,37,38
 382 611 382 611 390 560 c 0,39,40
 395 527 395 527 401 476 c 0,41,42
 407 428 407 428 408 424 c 0,43,44
 417 374 417 374 436 316 c 1,45,46
 458 317 458 317 476 317 c 0,47,48
 487 317 487 317 495 309 c 128,-1,49
 503 301 503 301 503 290 c 128,-1,50
 503 279 503 279 495 271 c 128,-1,51
 487 263 487 263 476 263 c 2,52,-1
 456 263 l 1,53,54
 472 223 472 223 491 188 c 0,55,56
 562 52 562 52 644 6 c 0,57,58
 654 0 654 0 657 -10.5 c 128,-1,59
 660 -21 660 -21 654.5 -31 c 128,-1,60
 649 -41 649 -41 638.5 -44 c 128,-1,61
 628 -47 628 -47 618 -42 c 0,62,63
 522 12 522 12 443 163 c 0,64,65
 419 209 419 209 399 260 c 0,66,67
 395 260 395 260 373.5 258.5 c 128,-1,68
 352 257 352 257 345.5 257 c 128,-1,69
 339 257 339 257 319.5 256 c 128,-1,70
 300 255 300 255 291 255 c 128,-1,71
 282 255 282 255 264.5 254.5 c 128,-1,72
 247 254 247 254 236 255 c 128,-1,73
 225 256 225 256 210.5 256.5 c 128,-1,74
 196 257 196 257 183 259 c 2,75,-1
 157 263 l 1,76,-1
 151 247 l 2,77,78
 147 237 147 237 130 191 c 128,-1,79
 113 145 113 145 105 125 c 128,-1,80
 97 105 97 105 81.5 70 c 128,-1,81
 66 35 66 35 52 8 c 0,82,83
 46 -2 46 -2 35.5 -5 c 128,-1,84
 25 -8 25 -8 15 -2.5 c 128,-1,85
 5 3 5 3 2 13.5 c 128,-1,86
 -1 24 -1 24 4 34 c 0,16,17
EndSplineSet
EndChar

StartChar: B
Encoding: 66 66 37
Width: 671
GlyphClass: 2
Flags: W
LayerCount: 2
Fore
SplineSet
370 433 m 1,0,1
 430 457 430 457 468 495 c 0,2,3
 502 528 502 528 506 560 c 0,4,5
 510 595 510 595 474 630 c 0,6,7
 427 676 427 676 355 687.5 c 128,-1,8
 283 699 283 699 189 691 c 0,9,10
 181 690 181 690 155 691 c 0,11,12
 135 691 135 691 124 689 c 0,13,14
 100 686 100 686 96 674 c 0,15,16
 90 656 90 656 94 615 c 0,17,18
 95 612 95 612 99 578 c 0,19,20
 102 554 102 554 102 542 c 0,21,22
 103 495 103 495 110 410 c 1,23,24
 228 447 228 447 367 433 c 1,25,-1
 370 433 l 1,0,1
107 46 m 1,26,27
 187 18 187 18 269 26 c 0,28,29
 311 30 311 30 375 52.5 c 128,-1,30
 439 75 439 75 491 109 c 0,31,32
 614 191 614 191 571 276 c 0,33,34
 529 359 529 359 377 378 c 1,35,36
 337 364 337 364 303 361 c 0,37,38
 278 359 278 359 228 357.5 c 128,-1,39
 178 356 178 356 171 356 c 0,40,41
 163 356 163 356 117 348 c 1,42,-1
 116 348 l 1,43,44
 130 167 130 167 116 62 c 0,45,46
 114 53 114 53 107 46 c 1,26,27
62 70 m 1,47,48
 69 123 69 123 69 186.5 c 128,-1,49
 69 250 69 250 65 300 c 2,50,-1
 56 420 l 2,51,52
 50 491 50 491 48 540 c 0,53,54
 48 551 48 551 45 571 c 0,55,56
 41 605 41 605 41 609 c 0,57,58
 35 662 35 662 44 690 c 0,59,60
 59 736 59 736 117 743 c 0,61,62
 132 745 132 745 156 745 c 0,63,64
 179 744 179 744 185 745 c 0,65,66
 230 749 230 749 267.5 749 c 128,-1,67
 305 749 305 749 351.5 743 c 128,-1,68
 398 737 398 737 439 718 c 128,-1,69
 480 699 480 699 512 668 c 0,70,71
 566 615 566 615 560 554 c 0,72,73
 554 503 554 503 506 456 c 0,74,75
 485 435 485 435 457 417 c 1,76,77
 578 383 578 383 619 300 c 0,78,79
 634 271 634 271 635.5 242 c 128,-1,80
 637 213 637 213 629 188.5 c 128,-1,81
 621 164 621 164 603.5 140.5 c 128,-1,82
 586 117 586 117 565.5 99 c 128,-1,83
 545 81 545 81 520 64 c 0,84,85
 463 27 463 27 393 2 c 0,86,87
 324 -23 324 -23 273 -28 c 0,88,89
 253 -30 253 -30 236 -30 c 0,90,91
 219 -31 219 -31 200 -28.5 c 128,-1,92
 181 -26 181 -26 168.5 -25 c 128,-1,93
 156 -24 156 -24 136 -18.5 c 128,-1,94
 116 -13 116 -13 108 -11 c 128,-1,95
 100 -9 100 -9 78 0 c 2,96,-1
 50 10 l 2,97,98
 44 12 44 12 17.5 23 c 128,-1,99
 -9 34 -9 34 -13 36 c 0,100,101
 -24 40 -24 40 -28 50.5 c 128,-1,102
 -32 61 -32 61 -28 71.5 c 128,-1,103
 -24 82 -24 82 -13.5 86 c 128,-1,104
 -3 90 -3 90 7 86 c 2,105,-1
 62 63 l 1,106,-1
 62 70 l 1,47,48
EndSplineSet
EndChar

StartChar: C
Encoding: 67 67 38
Width: 682
GlyphClass: 2
Flags: W
LayerCount: 2
Fore
SplineSet
575 504 m 0,0,1
 555 526 555 526 533 559 c 0,2,3
 507 598 507 598 501 606 c 0,4,5
 466 651 466 651 412 667 c 0,6,7
 343 689 343 689 283 677.5 c 128,-1,8
 223 666 223 666 178 631.5 c 128,-1,9
 133 597 133 597 107 539 c 128,-1,10
 81 481 81 481 80 411 c 0,11,12
 79 355 79 355 84 322 c 0,13,14
 89 287 89 287 106 252 c 0,15,16
 125 214 125 214 155.5 182.5 c 128,-1,17
 186 151 186 151 221 136 c 0,18,19
 282 109 282 109 387 108 c 0,20,21
 497 108 497 108 539 142 c 0,22,23
 548 149 548 149 555.5 159.5 c 128,-1,24
 563 170 563 170 567 178.5 c 128,-1,25
 571 187 571 187 575.5 202.5 c 128,-1,26
 580 218 580 218 582 226 c 128,-1,27
 584 234 584 234 588 255 c 128,-1,28
 592 276 592 276 594 284 c 0,29,30
 596 295 596 295 605 301.5 c 128,-1,31
 614 308 614 308 625 305.5 c 128,-1,32
 636 303 636 303 642.5 294 c 128,-1,33
 649 285 649 285 646 274 c 0,34,35
 646 273 646 273 640.5 243 c 128,-1,36
 635 213 635 213 632 202.5 c 128,-1,37
 629 192 629 192 621 168.5 c 128,-1,38
 613 145 613 145 601 129 c 128,-1,39
 589 113 589 113 573 100 c 0,40,41
 517 54 517 54 387 54 c 0,42,43
 271 55 271 55 199 86 c 0,44,45
 154 106 154 106 117.5 144 c 128,-1,46
 81 182 81 182 58 228 c 0,47,48
 43 257 43 257 35.5 291 c 128,-1,49
 28 325 28 325 27 348.5 c 128,-1,50
 26 372 26 372 26 411 c 0,51,52
 27 493 27 493 58.5 562 c 128,-1,53
 90 631 90 631 144.5 673.5 c 128,-1,54
 199 716 199 716 272 730 c 0,55,56
 345 745 345 745 428 719 c 0,57,58
 499 697 499 697 544 639 c 0,59,60
 549 633 549 633 578 589 c 0,61,62
 598 559 598 559 615 540 c 0,63,64
 623 532 623 532 622 520.5 c 128,-1,65
 621 509 621 509 613 501.5 c 128,-1,66
 605 494 605 494 593.5 495 c 128,-1,67
 582 496 582 496 575 504 c 0,0,1
EndSplineSet
EndChar

StartChar: D
Encoding: 68 68 39
Width: 731
GlyphClass: 2
Flags: W
LayerCount: 2
Fore
SplineSet
156 7 m 1,0,1
 164 7 164 7 173 8 c 0,2,3
 194 10 194 10 217 15.5 c 128,-1,4
 240 21 240 21 272 30 c 0,5,6
 302 38 302 38 320 42 c 0,7,8
 446 72 446 72 506 137 c 0,9,10
 523 154 523 154 536 168 c 2,11,-1
 563 200 l 2,12,13
 578 218 578 218 588 233 c 128,-1,14
 598 248 598 248 609.5 267.5 c 128,-1,15
 621 287 621 287 626.5 303 c 128,-1,16
 632 319 632 319 638 339 c 128,-1,17
 644 359 644 359 642 375.5 c 128,-1,18
 640 392 640 392 638 413 c 0,19,20
 620 487 620 487 562 548 c 0,21,22
 506 609 506 609 421 650 c 0,23,24
 340 689 340 689 255 701 c 0,25,26
 169 713 169 713 97 694 c 1,27,28
 92 668 92 668 96 631 c 0,29,30
 97 620 97 620 102 585 c 0,31,32
 107 554 107 554 108 535 c 2,33,-1
 114 408 l 2,34,35
 118 304 118 304 125 247 c 0,36,37
 127 227 127 227 143 130 c 0,38,39
 154 57 154 57 156 9 c 2,40,-1
 156 7 l 1,0,1
86 747 m 0,41,42
 170 767 170 767 263.5 754 c 128,-1,43
 357 741 357 741 444 699 c 0,44,45
 537 654 537 654 603.5 583.5 c 128,-1,46
 670 513 670 513 690 425 c 0,47,48
 696 401 696 401 696 376.5 c 128,-1,49
 696 352 696 352 690.5 328.5 c 128,-1,50
 685 305 685 305 677.5 284 c 128,-1,51
 670 263 670 263 656 241 c 2,52,-1
 632 202 l 2,53,54
 620 184 620 184 603 163.5 c 128,-1,55
 586 143 586 143 574 130 c 2,56,-1
 546 99 l 2,57,58
 476 26 476 26 332 -10 c 0,59,60
 320 -13 320 -13 287 -22 c 128,-1,61
 254 -31 254 -31 227.5 -37 c 128,-1,62
 201 -43 201 -43 178 -45 c 0,63,64
 78 -55 78 -55 20 11 c 0,65,66
 12 19 12 19 13 30.5 c 128,-1,67
 14 42 14 42 22 49.5 c 128,-1,68
 30 57 30 57 41.5 56 c 128,-1,69
 53 55 53 55 60 47 c 0,70,71
 79 26 79 26 102 17 c 1,72,73
 99 55 99 55 89 122 c 0,74,75
 74 220 74 220 71 241 c 0,76,77
 65 297 65 297 60 404 c 2,78,-1
 54 531 l 2,79,80
 53 549 53 549 49 577 c 0,81,82
 43 614 43 614 42 625 c 0,83,84
 39 653 39 653 40 674 c 1,85,86
 31 668 31 668 20 655 c 0,87,88
 12 646 12 646 1 645 c 128,-1,89
 -10 644 -10 644 -18.5 651.5 c 128,-1,90
 -27 659 -27 659 -28 670 c 128,-1,91
 -29 681 -29 681 -22 689 c 0,92,93
 -3 711 -3 711 14 722 c 0,94,95
 30 732 30 732 55 739 c 1,96,97
 66 754 66 754 84 748 c 0,98,99
 85 747 85 747 86 747 c 0,41,42
EndSplineSet
EndChar

StartChar: E
Encoding: 69 69 40
Width: 621
GlyphClass: 2
Flags: W
LayerCount: 2
Fore
SplineSet
534 642 m 0,0,1
 518 640 518 640 442 640 c 2,2,-1
 297 640 l 2,3,4
 209 639 209 639 161 635 c 0,5,6
 132 632 132 632 117 629 c 2,7,-1
 115 629 l 1,8,-1
 115 626 l 2,9,10
 114 612 114 612 113 586 c 0,11,12
 112 539 112 539 111 465 c 2,13,-1
 111 393 l 1,14,15
 123 392 123 392 255 377.5 c 128,-1,16
 387 363 387 363 455 359 c 0,17,18
 466 358 466 358 473.5 349.5 c 128,-1,19
 481 341 481 341 480 330 c 128,-1,20
 479 319 479 319 470.5 311.5 c 128,-1,21
 462 304 462 304 451 305 c 0,22,23
 401 308 401 308 344 314 c 2,24,-1
 218 328 l 1,25,-1
 111 339 l 1,26,27
 111 284 111 284 112 273 c 0,28,29
 115 228 115 228 136 141 c 0,30,31
 138 132 138 132 142 108 c 0,32,33
 145 86 145 86 148 75 c 0,34,35
 154 47 154 47 164 44 c 0,36,37
 193 36 193 36 269 42 c 0,38,39
 370 50 370 50 394 48 c 0,40,41
 415 47 415 47 448 43 c 128,-1,42
 481 39 481 39 507 37 c 128,-1,43
 533 35 533 35 557 37 c 0,44,45
 569 38 569 38 577 30.5 c 128,-1,46
 585 23 585 23 586 11.5 c 128,-1,47
 587 0 587 0 579.5 -8 c 128,-1,48
 572 -16 572 -16 561 -17 c 0,49,50
 535 -19 535 -19 505 -17 c 128,-1,51
 475 -15 475 -15 441 -11 c 128,-1,52
 407 -7 407 -7 390 -6 c 0,53,54
 369 -5 369 -5 273 -12 c 0,55,56
 185 -18 185 -18 150 -8 c 0,57,58
 109 3 109 3 95 62 c 0,59,60
 92 76 92 76 88 101 c 0,61,62
 85 123 85 123 84 129 c 0,63,64
 62 219 62 219 58 269 c 0,65,66
 56 297 56 297 57 466 c 0,67,68
 58 540 58 540 59 588 c 0,69,70
 60 614 60 614 61 629 c 0,71,72
 62 638 62 638 62 643 c 0,73,74
 62 647 62 647 63 649 c 0,75,76
 64 655 64 655 66 659 c 0,77,78
 72 670 72 670 86 676 c 0,79,80
 94 679 94 679 106 682 c 0,81,82
 124 686 124 686 156 689 c 0,83,84
 207 693 207 693 297 694 c 2,85,-1
 442 694 l 2,86,87
 515 694 515 694 528 696 c 0,88,89
 539 697 539 697 548 690 c 128,-1,90
 557 683 557 683 558 672 c 128,-1,91
 559 661 559 661 552 652 c 128,-1,92
 545 643 545 643 534 642 c 0,0,1
EndSplineSet
EndChar

StartChar: F
Encoding: 70 70 41
Width: 568
GlyphClass: 2
Flags: W
LayerCount: 2
Fore
SplineSet
69 45 m 0,0,1
 75 82 75 82 75.5 118 c 128,-1,2
 76 154 76 154 73 212 c 2,3,-1
 69 290 l 2,4,5
 66 393 66 393 80 576 c 0,6,7
 80 577 80 577 80.5 582.5 c 128,-1,8
 81 588 81 588 81.5 597 c 128,-1,9
 82 606 82 606 82 613 c 0,10,11
 83 627 83 627 84 635 c 0,12,13
 84 641 84 641 85 643 c 2,14,-1
 85 646 l 1,15,-1
 85 649 l 2,16,17
 86 653 86 653 89 659 c 0,18,19
 103 680 103 680 141 687 c 0,20,21
 162 692 162 692 197 690 c 0,22,23
 233 687 233 687 243 688 c 0,24,25
 265 689 265 689 305 693.5 c 128,-1,26
 345 698 345 698 374.5 701 c 128,-1,27
 404 704 404 704 442.5 703 c 128,-1,28
 481 702 481 702 512 695 c 0,29,30
 523 693 523 693 529 683.5 c 128,-1,31
 535 674 535 674 532.5 663 c 128,-1,32
 530 652 530 652 520.5 646 c 128,-1,33
 511 640 511 640 500 643 c 0,34,35
 472 649 472 649 438.5 649.5 c 128,-1,36
 405 650 405 650 379 647 c 128,-1,37
 353 644 353 644 313 640 c 128,-1,38
 273 636 273 636 247 634 c 0,39,40
 235 633 235 633 194 636 c 0,41,42
 166 638 166 638 151 635 c 0,43,44
 143 633 143 633 138 631 c 1,45,46
 137 623 137 623 136 609 c 0,47,48
 136 602 136 602 135.5 593 c 128,-1,49
 135 584 135 584 134.5 578.5 c 128,-1,50
 134 573 134 573 134 572 c 0,51,52
 125 455 125 455 123 387 c 1,53,-1
 208 387 l 2,54,55
 264 387 264 387 309 386 c 128,-1,56
 354 385 354 385 394 382 c 0,57,58
 405 381 405 381 412.5 372.5 c 128,-1,59
 420 364 420 364 419 353 c 128,-1,60
 418 342 418 342 409.5 334.5 c 128,-1,61
 401 327 401 327 390 328 c 0,62,63
 350 331 350 331 305.5 332 c 128,-1,64
 261 333 261 333 206 333 c 2,65,-1
 122 333 l 1,66,67
 122 312 122 312 123 292 c 0,68,69
 123 278 123 278 126.5 217 c 128,-1,70
 130 156 130 156 129.5 116.5 c 128,-1,71
 129 77 129 77 123 37 c 0,72,73
 121 26 121 26 112 19.5 c 128,-1,74
 103 13 103 13 92 14.5 c 128,-1,75
 81 16 81 16 74.5 25 c 128,-1,76
 68 34 68 34 69 45 c 0,0,1
EndSplineSet
EndChar

StartChar: G
Encoding: 71 71 42
Width: 673
GlyphClass: 2
Flags: W
LayerCount: 2
Fore
SplineSet
555 483 m 0,0,1
 540 507 540 507 525 519.5 c 128,-1,2
 510 532 510 532 478 546 c 0,3,4
 412 576 412 576 351.5 578 c 128,-1,5
 291 580 291 580 246.5 559.5 c 128,-1,6
 202 539 202 539 170 500 c 0,7,8
 120 441 120 441 113 357 c 128,-1,9
 106 273 106 273 150 178 c 0,10,11
 163 152 163 152 201.5 122.5 c 128,-1,12
 240 93 240 93 291 71 c 0,13,14
 342 48 342 48 389 40 c 128,-1,15
 436 32 436 32 464 42 c 0,16,17
 505 55 505 55 531.5 92 c 128,-1,18
 558 129 558 129 568.5 173.5 c 128,-1,19
 579 218 579 218 579 269 c 0,20,21
 579 271 579 271 584 305 c 1,22,-1
 584 315 l 1,23,24
 577 317 577 317 564 319 c 0,25,26
 540 322 540 322 499 321 c 0,27,28
 469 321 469 321 425 318.5 c 128,-1,29
 381 316 381 316 380 316 c 0,30,31
 369 316 369 316 360.5 323.5 c 128,-1,32
 352 331 352 331 352 342 c 128,-1,33
 352 353 352 353 359.5 361.5 c 128,-1,34
 367 370 367 370 378 370 c 0,35,36
 380 370 380 370 424.5 372.5 c 128,-1,37
 469 375 469 375 498 375 c 0,38,39
 543 376 543 376 571 373 c 0,40,41
 589 370 589 370 601 366 c 0,42,43
 620 360 620 360 629 347 c 0,44,45
 641 328 641 328 637 298 c 2,46,-1
 635 286 l 2,47,48
 634 280 634 280 633.5 276.5 c 128,-1,49
 633 273 633 273 633 269 c 0,50,51
 633 228 633 228 626 189.5 c 128,-1,52
 619 151 619 151 603.5 110 c 128,-1,53
 588 69 588 69 556.5 37 c 128,-1,54
 525 5 525 5 482 -10 c 1,55,56
 433 -22 433 -22 379.5 -13 c 128,-1,57
 326 -4 326 -4 269 22 c 0,58,59
 212 47 212 47 166.5 82 c 128,-1,60
 121 117 121 117 102 154 c 0,61,62
 51 261 51 261 59.5 361.5 c 128,-1,63
 68 462 68 462 128 535 c 0,64,65
 169 583 169 583 225 608.5 c 128,-1,66
 281 634 281 634 353 632 c 128,-1,67
 425 630 425 630 500 596 c 0,68,69
 539 578 539 578 560.5 560.5 c 128,-1,70
 582 543 582 543 601 509 c 0,71,72
 607 500 607 500 604 489 c 128,-1,73
 601 478 601 478 591.5 472.5 c 128,-1,74
 582 467 582 467 571 470 c 128,-1,75
 560 473 560 473 555 483 c 0,0,1
EndSplineSet
EndChar

StartChar: H
Encoding: 72 72 43
Width: 637
GlyphClass: 2
Flags: W
LayerCount: 2
Fore
SplineSet
601 687 m 0,0,1
 598 674 598 674 596 660 c 2,2,-1
 592 636 l 2,3,4
 590 628 590 628 589 608 c 128,-1,5
 588 588 588 588 587.5 583.5 c 128,-1,6
 587 579 587 579 586.5 553.5 c 128,-1,7
 586 528 586 528 586 526 c 0,8,9
 585 502 585 502 581.5 434.5 c 128,-1,10
 578 367 578 367 578 332 c 0,11,12
 581 325 581 325 580 318 c 0,13,14
 579 315 579 315 578 311 c 0,15,16
 579 290 579 290 581 269 c 0,17,18
 599 84 599 84 602 42 c 0,19,20
 603 31 603 31 595.5 22.5 c 128,-1,21
 588 14 588 14 577 13 c 128,-1,22
 566 12 566 12 557.5 19.5 c 128,-1,23
 549 27 549 27 548 38 c 0,24,25
 545 80 545 80 527 263 c 0,26,27
 526 279 526 279 525 297 c 1,28,29
 478 302 478 302 392 314 c 0,30,31
 309 326 309 326 273 330 c 0,32,33
 248 333 248 333 203 334 c 0,34,35
 165 336 165 336 149 337 c 1,36,37
 155 234 155 234 162 31 c 0,38,39
 162 20 162 20 154.5 11.5 c 128,-1,40
 147 3 147 3 136 3 c 128,-1,41
 125 3 125 3 116.5 10.5 c 128,-1,42
 108 18 108 18 108 29 c 0,43,44
 97 322 97 322 87 472 c 0,45,46
 86 487 86 487 84 504 c 2,47,-1
 78 540 l 2,48,49
 75 561 75 561 73 573 c 0,50,51
 64 641 64 641 74 685 c 0,52,53
 76 697 76 697 85 709 c 2,54,-1
 90 715 l 2,55,56
 91 717 91 717 92 718 c 0,57,58
 98 728 98 728 109 730.5 c 128,-1,59
 120 733 120 733 129.5 727 c 128,-1,60
 139 721 139 721 141.5 710 c 128,-1,61
 144 699 144 699 138 690 c 0,62,63
 136 686 136 686 132 682 c 2,64,-1
 128 676 l 1,65,-1
 126 674 l 1,66,67
 119 639 119 639 127 580 c 0,68,69
 127 578 127 578 133.5 537 c 128,-1,70
 140 496 140 496 141 476 c 0,71,72
 144 435 144 435 146 391 c 1,73,74
 162 390 162 390 204 388 c 0,75,76
 253 387 253 387 279 384 c 2,77,-1
 396 368 l 2,78,79
 479 356 479 356 524 351 c 1,80,81
 524 385 524 385 527.5 445 c 128,-1,82
 531 505 531 505 532 528 c 0,83,84
 532 534 532 534 532.5 551.5 c 128,-1,85
 533 569 533 569 533.5 576.5 c 128,-1,86
 534 584 534 584 534.5 600 c 128,-1,87
 535 616 535 616 536 626 c 128,-1,88
 537 636 537 636 539 649.5 c 128,-1,89
 541 663 541 663 543.5 675.5 c 128,-1,90
 546 688 546 688 549 701 c 0,91,92
 552 712 552 712 561.5 717.5 c 128,-1,93
 571 723 571 723 582 720 c 128,-1,94
 593 717 593 717 598.5 707.5 c 128,-1,95
 604 698 604 698 601 687 c 0,0,1
EndSplineSet
EndChar

StartChar: I
Encoding: 73 73 44
Width: 349
GlyphClass: 2
Flags: W
LayerCount: 2
Fore
SplineSet
-19 711 m 0,0,1
 24 727 24 727 82 729 c 128,-1,2
 140 731 140 731 177 726.5 c 128,-1,3
 214 722 214 722 273 712 c 0,4,5
 284 710 284 710 290.5 700.5 c 128,-1,6
 297 691 297 691 295 680 c 128,-1,7
 293 669 293 669 283.5 662.5 c 128,-1,8
 274 656 274 656 263 658 c 0,9,10
 185 672 185 672 143 675 c 1,11,12
 138 639 138 639 138 602.5 c 128,-1,13
 138 566 138 566 141 505.5 c 128,-1,14
 144 445 144 445 145 428 c 0,15,16
 149 311 149 311 168 47 c 1,17,18
 228 51 228 51 278 68 c 0,19,20
 289 72 289 72 299 67.5 c 128,-1,21
 309 63 309 63 312.5 52 c 128,-1,22
 316 41 316 41 311.5 31 c 128,-1,23
 307 21 307 21 296 18 c 0,24,25
 193 -19 193 -19 37 -2 c 0,26,27
 26 -1 26 -1 19 8 c 128,-1,28
 12 17 12 17 13 28 c 128,-1,29
 14 39 14 39 23 46 c 128,-1,30
 32 53 32 53 43 52 c 0,31,32
 81 48 81 48 114 47 c 1,33,34
 95 308 95 308 91 426 c 0,35,36
 91 440 91 440 87.5 500 c 128,-1,37
 84 560 84 560 84 599 c 128,-1,38
 84 638 84 638 89 677 c 1,39,40
 38 675 38 675 1 661 c 0,41,42
 -10 657 -10 657 -20 661.5 c 128,-1,43
 -30 666 -30 666 -34 676.5 c 128,-1,44
 -38 687 -38 687 -33.5 697 c 128,-1,45
 -29 707 -29 707 -19 711 c 0,0,1
EndSplineSet
EndChar

StartChar: J
Encoding: 74 74 45
Width: 562
GlyphClass: 2
Flags: W
LayerCount: 2
Fore
SplineSet
204 688 m 0,0,1
 253 688 253 688 352 689 c 128,-1,2
 451 690 451 690 500 690 c 0,3,4
 511 690 511 690 519 682 c 128,-1,5
 527 674 527 674 527 663 c 128,-1,6
 527 652 527 652 519 644 c 128,-1,7
 511 636 511 636 500 636 c 0,8,9
 456 636 456 636 389 635 c 1,10,11
 399 579 399 579 400.5 485 c 128,-1,12
 402 391 402 391 391 283 c 0,13,14
 378 167 378 167 350 92 c 0,15,16
 314 -5 314 -5 254 -31 c 0,17,18
 198 -51 198 -51 146.5 -36 c 128,-1,19
 95 -21 95 -21 56 20 c 0,20,21
 30 46 30 46 15 78.5 c 128,-1,22
 0 111 0 111 0 150 c 128,-1,23
 0 189 0 189 19 224 c 0,24,25
 25 234 25 234 35.5 237 c 128,-1,26
 46 240 46 240 56 234.5 c 128,-1,27
 66 229 66 229 69 218.5 c 128,-1,28
 72 208 72 208 67 198 c 0,29,30
 48 162 48 162 56 125 c 128,-1,31
 64 88 64 88 94 58 c 0,32,33
 124 27 124 27 162 16 c 128,-1,34
 200 5 200 5 232 19 c 0,35,36
 271 36 271 36 299 110 c 0,37,38
 325 180 325 180 337 289 c 0,39,40
 347 394 347 394 346 484 c 128,-1,41
 345 574 345 574 335 625 c 1,42,-1
 335 635 l 1,43,44
 252 634 252 634 204 634 c 0,45,46
 193 634 193 634 185 642 c 128,-1,47
 177 650 177 650 177 661 c 128,-1,48
 177 672 177 672 185 680 c 128,-1,49
 193 688 193 688 204 688 c 0,0,1
EndSplineSet
EndChar

StartChar: K
Encoding: 75 75 46
Width: 627
GlyphClass: 2
Flags: W
LayerCount: 2
Fore
SplineSet
272 377 m 1,0,-1
 242 355 l 2,1,2
 233 349 233 349 215 335 c 2,3,-1
 186 312 l 2,4,5
 174 304 174 304 155.5 293.5 c 128,-1,6
 137 283 137 283 120 276 c 1,7,8
 117 130 117 130 136 30 c 0,9,10
 139 19 139 19 132.5 10 c 128,-1,11
 126 1 126 1 115 -1.5 c 128,-1,12
 104 -4 104 -4 95 2.5 c 128,-1,13
 86 9 86 9 84 20 c 0,14,15
 73 71 73 71 69 133.5 c 128,-1,16
 65 196 65 196 65 231.5 c 128,-1,17
 65 267 65 267 68 348.5 c 128,-1,18
 71 430 71 430 71 450 c 0,19,20
 74 591 74 591 68 655 c 1,21,-1
 68 656 l 2,22,23
 68 657 68 657 67.5 658 c 128,-1,24
 67 659 67 659 66 661.5 c 128,-1,25
 65 664 65 664 64 668 c 0,26,27
 55 694 55 694 70 711 c 0,28,29
 84 726 84 726 104 720 c 0,30,31
 111 717 111 717 119 710 c 0,32,33
 120 710 120 710 127 704 c 2,34,-1
 128 702 l 1,35,36
 137 696 137 696 140 685.5 c 128,-1,37
 143 675 143 675 137 665 c 0,38,39
 132 657 132 657 123 653 c 1,40,41
 128 588 128 588 125 448 c 0,42,43
 125 430 125 430 121 336 c 1,44,45
 135 343 135 343 148 352 c 128,-1,46
 161 361 161 361 180 376 c 128,-1,47
 199 391 199 391 210 399 c 2,48,-1
 299 460 l 1,49,-1
 395 528 l 2,50,51
 429 553 429 553 472.5 594 c 128,-1,52
 516 635 516 635 542 676 c 0,53,54
 548 685 548 685 559 687.5 c 128,-1,55
 570 690 570 690 579.5 684 c 128,-1,56
 589 678 589 678 591.5 667 c 128,-1,57
 594 656 594 656 588 646 c 0,58,59
 564 610 564 610 533.5 577 c 128,-1,60
 503 544 503 544 461.5 511.5 c 128,-1,61
 420 479 420 479 394 460 c 2,62,-1
 317 407 l 1,63,64
 320 402 320 402 326.5 393.5 c 128,-1,65
 333 385 333 385 344.5 369 c 128,-1,66
 356 353 356 353 365 341 c 0,67,68
 396 299 396 299 415 268 c 0,69,70
 428 248 428 248 450 205 c 0,71,72
 471 163 471 163 484 143 c 0,73,74
 524 78 524 78 571 61 c 0,75,76
 582 58 582 58 586.5 48 c 128,-1,77
 591 38 591 38 587.5 27 c 128,-1,78
 584 16 584 16 574 11.5 c 128,-1,79
 564 7 564 7 553 11 c 0,80,81
 488 34 488 34 438 115 c 0,82,83
 424 136 424 136 402 180 c 0,84,85
 380 222 380 222 369 240 c 0,86,87
 352 267 352 267 321 309 c 0,88,89
 283 360 283 360 272 377 c 1,0,-1
EndSplineSet
EndChar

StartChar: L
Encoding: 76 76 47
Width: 580
GlyphClass: 2
Flags: W
LayerCount: 2
Fore
SplineSet
115 700 m 0,0,1
 127 655 127 655 127.5 607.5 c 128,-1,2
 128 560 128 560 121.5 498.5 c 128,-1,3
 115 437 115 437 114 415 c 0,4,5
 112 360 112 360 112 215 c 0,6,7
 112 211 112 211 111.5 194.5 c 128,-1,8
 111 178 111 178 111 164 c 2,9,-1
 111 128 l 2,10,11
 112 98 112 98 114 81 c 2,12,-1
 116 73 l 1,13,-1
 120 73 l 2,14,15
 136 72 136 72 164 71 c 0,16,17
 212 70 212 70 296 71 c 0,18,19
 338 71 338 71 389.5 72 c 128,-1,20
 441 73 441 73 475 73.5 c 128,-1,21
 509 74 509 74 518 74 c 0,22,23
 529 74 529 74 537 66 c 128,-1,24
 545 58 545 58 545 47 c 128,-1,25
 545 36 545 36 537 28 c 128,-1,26
 529 20 529 20 518 20 c 0,27,28
 509 20 509 20 475 19.5 c 128,-1,29
 441 19 441 19 390 18 c 128,-1,30
 339 17 339 17 297 17 c 0,31,32
 212 16 212 16 163 17 c 0,33,34
 134 18 134 18 117 19 c 0,35,36
 107 20 107 20 101 21 c 0,37,38
 89 22 89 22 82 27 c 0,39,40
 72 35 72 35 66 50 c 0,41,42
 63 59 63 59 61 73 c 0,43,44
 58 94 58 94 57 127 c 2,45,-1
 57 163 l 2,46,47
 57 178 57 178 57.5 194.5 c 128,-1,48
 58 211 58 211 58 215 c 0,49,50
 58 359 58 359 60 417 c 0,51,52
 61 448 61 448 65 488 c 2,53,-1
 72 558 l 2,54,55
 74 585 74 585 72.5 620 c 128,-1,56
 71 655 71 655 63 686 c 0,57,58
 60 697 60 697 65.5 706.5 c 128,-1,59
 71 716 71 716 82 719 c 128,-1,60
 93 722 93 722 102.5 716.5 c 128,-1,61
 112 711 112 711 115 700 c 0,0,1
EndSplineSet
EndChar

StartChar: M
Encoding: 77 77 48
Width: 812
GlyphClass: 2
Flags: W
LayerCount: 2
Fore
SplineSet
49 73 m 0,0,1
 52 143 52 143 52 308 c 2,2,-1
 52 457 l 2,3,4
 52 553 52 553 59 602 c 0,5,6
 67 659 67 659 85 683 c 0,7,8
 101 705 101 705 126 704 c 0,9,10
 147 703 147 703 169 682 c 0,11,12
 188 663 188 663 211 601 c 0,13,14
 229 554 229 554 250 480 c 2,15,-1
 285 355 l 2,16,17
 304 286 304 286 310 269 c 0,18,19
 323 235 323 235 326 231 c 0,20,21
 336 216 336 216 350 186 c 0,22,23
 353 178 353 178 373.5 130 c 128,-1,24
 394 82 394 82 407 58 c 1,25,26
 408 65 408 65 409 73 c 2,27,-1
 412 99 l 1,28,-1
 416 129 l 2,29,30
 417 142 417 142 419 149 c 0,31,32
 437 225 437 225 481 349 c 0,33,34
 529 484 529 484 547 544 c 0,35,36
 569 618 569 618 579 645 c 0,37,38
 593 684 593 684 606 706 c 0,39,40
 615 722 615 722 625 730 c 0,41,42
 641 745 641 745 660 743 c 0,43,44
 690 739 690 739 709 701 c 0,45,46
 721 678 721 678 729 640 c 0,47,48
 738 597 738 597 742 535 c 0,49,50
 747 463 747 463 756 366 c 0,51,52
 767 253 767 253 770 191 c 0,53,54
 771 172 771 172 770 81 c 0,55,56
 769 17 769 17 777 -21 c 0,57,58
 779 -32 779 -32 772.5 -41 c 128,-1,59
 766 -50 766 -50 755 -52.5 c 128,-1,60
 744 -55 744 -55 735 -48.5 c 128,-1,61
 726 -42 726 -42 723 -31 c 0,62,63
 715 12 715 12 716 82 c 0,64,65
 717 170 717 170 716 189 c 0,66,67
 713 251 713 251 702 362 c 0,68,69
 691 477 691 477 688 531 c 0,70,71
 684 590 684 590 676 629 c 0,72,73
 670 660 670 660 661 677 c 0,74,75
 659 682 659 682 656 685 c 1,76,77
 655 682 655 682 653 679 c 0,78,79
 642 661 642 661 629 626 c 0,80,81
 620 601 620 601 599 528 c 0,82,83
 583 475 583 475 532 331 c 0,84,85
 488 206 488 206 471 137 c 0,86,87
 470 131 470 131 469 121 c 128,-1,88
 468 111 468 111 466 95 c 128,-1,89
 464 79 464 79 463 67 c 0,90,91
 459 40 459 40 454 23 c 0,92,93
 447 -4 447 -4 433 -16 c 0,94,95
 416 -31 416 -31 396 -20 c 0,96,97
 388 -16 388 -16 382 -6 c 0,98,99
 379 -2 379 -2 375 4 c 0,100,101
 372 10 372 10 372 11 c 0,102,103
 359 32 359 32 346.5 58 c 128,-1,104
 334 84 334 84 320 117.5 c 128,-1,105
 306 151 306 151 300 164 c 0,106,107
 289 190 289 190 281 200 c 0,108,109
 274 210 274 210 260 251 c 0,110,111
 251 273 251 273 233 341 c 2,112,-1
 198 465 l 2,113,114
 176 542 176 542 161 583 c 0,115,116
 142 633 142 633 131 644 c 0,117,118
 128 646 128 646 126 648 c 1,119,120
 118 633 118 633 112 594 c 0,121,122
 106 550 106 550 106 457 c 2,123,-1
 106 308 l 2,124,125
 106 142 106 142 103 71 c 0,126,127
 103 60 103 60 94.5 52.5 c 128,-1,128
 86 45 86 45 75 45 c 128,-1,129
 64 45 64 45 56.5 53.5 c 128,-1,130
 49 62 49 62 49 73 c 0,0,1
EndSplineSet
EndChar

StartChar: N
Encoding: 78 78 49
Width: 619
GlyphClass: 2
Flags: W
LayerCount: 2
Fore
SplineSet
66 31 m 0,0,1
 65 100 65 100 69 292 c 0,2,3
 72 455 72 455 73 479 c 0,4,5
 74 526 74 526 77 656 c 2,6,-1
 77 659 l 2,7,8
 77 660 77 660 76 663.5 c 128,-1,9
 75 667 75 667 75 673 c 0,10,11
 71 700 71 700 89 714 c 0,12,13
 105 726 105 726 123 724 c 0,14,15
 137 722 137 722 151 711 c 0,16,17
 167 698 167 698 182 669 c 0,18,19
 192 649 192 649 204 621 c 2,20,-1
 209 609 l 2,21,22
 212 602 212 602 213.5 597.5 c 128,-1,23
 215 593 215 593 217 590 c 0,24,25
 220 584 220 584 248 524 c 2,26,-1
 282 447 l 1,27,-1
 314 382 l 2,28,29
 339 332 339 332 353.5 307 c 128,-1,30
 368 282 368 282 391 247 c 0,31,32
 412 214 412 214 435 185 c 2,33,-1
 511 86 l 1,34,-1
 511 92 l 1,35,-1
 511 128 l 2,36,37
 511 147 511 147 510.5 160.5 c 128,-1,38
 510 174 510 174 510 178 c 0,39,40
 516 375 516 375 516 521 c 0,41,42
 516 532 516 532 514 556 c 128,-1,43
 512 580 512 580 512 585 c 0,44,45
 509 633 509 633 517 659 c 0,46,47
 520 669 520 669 526 679 c 0,48,49
 527 680 527 680 529.5 684 c 128,-1,50
 532 688 532 688 533 690 c 0,51,52
 539 700 539 700 549.5 703 c 128,-1,53
 560 706 560 706 570 700.5 c 128,-1,54
 580 695 580 695 583 684.5 c 128,-1,55
 586 674 586 674 581 664 c 0,56,57
 580 663 580 663 572 650 c 0,58,59
 569 646 569 646 569 645 c 0,60,61
 564 627 564 627 566 588 c 0,62,63
 566 585 566 585 568 558.5 c 128,-1,64
 570 532 570 532 570 521 c 0,65,66
 570 375 570 375 564 176 c 0,67,68
 564 173 564 173 564.5 143 c 128,-1,69
 565 113 565 113 565 92 c 0,70,71
 565 58 565 58 563 39 c 0,72,73
 562 26 562 26 559 18 c 0,74,75
 557 11 557 11 555 6 c 0,76,77
 548 -5 548 -5 536 -8 c 0,78,79
 508 -15 508 -15 493 15 c 0,80,81
 491 19 491 19 490 21.5 c 128,-1,82
 489 24 489 24 488.5 25 c 128,-1,83
 488 26 488 26 488 26.5 c 128,-1,84
 488 27 488 27 487 28 c 2,85,-1
 393 151 l 2,86,87
 370 180 370 180 346 217 c 2,88,-1
 307 280 l 2,89,90
 291 307 291 307 266 357 c 2,91,-1
 234 424 l 2,92,93
 225 442 225 442 198 501.5 c 128,-1,94
 171 561 171 561 167 568 c 0,95,96
 166 570 166 570 164 575 c 2,97,-1
 159 588 l 1,98,-1
 154 601 l 2,99,100
 143 627 143 627 135 643 c 2,101,-1
 131 650 l 1,102,103
 128 526 128 526 127 479 c 0,104,105
 123 307 123 307 123 290 c 0,106,107
 119 95 119 95 120 33 c 0,108,109
 120 21 120 21 112.5 13 c 128,-1,110
 105 5 105 5 93.5 5 c 128,-1,111
 82 5 82 5 74 12.5 c 128,-1,112
 66 20 66 20 66 31 c 0,0,1
EndSplineSet
EndChar

StartChar: O
Encoding: 79 79 50
Width: 674
GlyphClass: 2
Flags: W
LayerCount: 2
Fore
SplineSet
336 687 m 1,0,1
 242 684 242 684 174 606 c 0,2,3
 107 528 107 528 88 411 c 0,4,5
 74 328 74 328 88 254 c 0,6,7
 102 178 102 178 150 117 c 128,-1,8
 198 56 198 56 274 31 c 0,9,10
 338 12 338 12 391 28 c 0,11,12
 443 45 443 45 489 93 c 0,13,14
 532 139 532 139 558 200 c 0,15,16
 583 261 583 261 585 320 c 0,17,18
 589 446 589 446 522.5 539 c 128,-1,19
 456 632 456 632 336 687 c 1,0,1
391 720 m 1,20,21
 510 657 510 657 576.5 555.5 c 128,-1,22
 643 454 643 454 639 318 c 0,23,24
 637 249 637 249 607.5 178.5 c 128,-1,25
 578 108 578 108 528 55 c 0,26,27
 493 19 493 19 452 -3.5 c 128,-1,28
 411 -26 411 -26 360 -33 c 128,-1,29
 309 -40 309 -40 256 -21 c 0,30,31
 200 -2 200 -2 156 33.5 c 128,-1,32
 112 69 112 69 86 113 c 128,-1,33
 60 157 60 157 44 209 c 128,-1,34
 28 261 28 261 27.5 314 c 128,-1,35
 27 367 27 367 34 420 c 0,36,37
 48 502 48 502 85.5 571.5 c 128,-1,38
 123 641 123 641 186 689 c 128,-1,39
 249 737 249 737 326 741 c 0,40,41
 337 745 337 745 347 741 c 0,42,43
 357 741 357 741 368 740 c 0,44,45
 386 738 386 738 391 720 c 1,20,21
EndSplineSet
EndChar

StartChar: P
Encoding: 80 80 51
Width: 494
GlyphClass: 2
Flags: W
LayerCount: 2
Fore
SplineSet
99 387 m 1,0,1
 106 387 106 387 112 385 c 0,2,3
 145 370 145 370 198 364.5 c 128,-1,4
 251 359 251 359 305 367 c 0,5,6
 358 377 358 377 384 402 c 0,7,8
 411 427 411 427 404 470 c 0,9,10
 398 511 398 511 374 553.5 c 128,-1,11
 350 596 350 596 315 626 c 0,12,13
 237 692 237 692 164 651 c 0,14,15
 146 641 146 641 141 637 c 0,16,17
 136 632 136 632 133 621 c 0,18,19
 103 525 103 525 99 387 c 1,0,1
68 13 m 0,20,21
 70 38 70 38 68.5 62 c 128,-1,22
 67 86 67 86 61.5 123.5 c 128,-1,23
 56 161 56 161 54 177 c 0,24,25
 46 252 46 252 44.5 327.5 c 128,-1,26
 43 403 43 403 52 487 c 128,-1,27
 61 571 61 571 81 637 c 0,28,29
 89 662 89 662 105 677 c 0,30,31
 114 685 114 685 138 699 c 0,32,33
 175 719 175 719 214.5 719.5 c 128,-1,34
 254 720 254 720 286.5 706 c 128,-1,35
 319 692 319 692 350 667 c 0,36,37
 392 631 392 631 421 580 c 128,-1,38
 450 529 450 529 458 478 c 0,39,40
 468 407 468 407 421 363 c 0,41,42
 384 327 384 327 315 314 c 0,43,44
 257 305 257 305 199 310 c 128,-1,45
 141 315 141 315 99 332 c 1,46,47
 100 260 100 260 108 183 c 0,48,49
 109 172 109 172 114 133 c 0,50,51
 120 93 120 93 122 64.5 c 128,-1,52
 124 36 124 36 122 9 c 0,53,54
 121 -2 121 -2 112.5 -9.5 c 128,-1,55
 104 -17 104 -17 93 -16 c 128,-1,56
 82 -15 82 -15 74.5 -6.5 c 128,-1,57
 67 2 67 2 68 13 c 0,20,21
EndSplineSet
EndChar

StartChar: Q
Encoding: 81 81 52
Width: 751
GlyphClass: 2
Flags: W
LayerCount: 2
Fore
SplineSet
543 50 m 0,0,1
 516 25 516 25 490 16 c 0,2,3
 408 -14 408 -14 290 33 c 0,4,5
 239 53 239 53 196 84 c 128,-1,6
 153 115 153 115 131 152 c 0,7,8
 60 271 60 271 80 413 c 0,9,10
 100 554 100 554 198 652 c 0,11,12
 246 700 246 700 308 716 c 0,13,14
 370 733 370 733 427.5 720.5 c 128,-1,15
 485 708 485 708 536 670 c 128,-1,16
 587 632 587 632 617 576 c 0,17,18
 661 490 661 490 658.5 378 c 128,-1,19
 656 266 656 266 610 172 c 1,20,21
 624 158 624 158 613 140 c 0,22,23
 596 112 596 112 580 90 c 1,24,25
 585 86 585 86 598 74 c 2,26,-1
 618 57 l 1,27,-1
 636 42 l 2,28,29
 648 33 648 33 656 27.5 c 128,-1,30
 664 22 664 22 676 15.5 c 128,-1,31
 688 9 688 9 700 4 c 0,32,33
 710 -1 710 -1 714 -11.5 c 128,-1,34
 718 -22 718 -22 713.5 -32 c 128,-1,35
 709 -42 709 -42 698.5 -46 c 128,-1,36
 688 -50 688 -50 678 -46 c 2,37,-1
 658 -36 l 1,38,-1
 640 -26 l 2,39,40
 633 -22 633 -22 621.5 -13.5 c 128,-1,41
 610 -5 610 -5 605.5 -2 c 128,-1,42
 601 1 601 1 588 12 c 2,43,-1
 574 24 l 2,44,45
 571 26 571 26 557.5 37.5 c 128,-1,46
 544 49 544 49 543 50 c 0,0,1
488 93 m 1,47,48
 460 111 460 111 395 144 c 0,49,50
 385 149 385 149 381.5 159.5 c 128,-1,51
 378 170 378 170 383 180 c 128,-1,52
 388 190 388 190 398.5 193.5 c 128,-1,53
 409 197 409 197 419 192 c 0,54,55
 491 156 491 156 522 135 c 1,56,57
 588 214 588 214 602 338 c 128,-1,58
 616 462 616 462 569 550 c 0,59,60
 545 597 545 597 503.5 627.5 c 128,-1,61
 462 658 462 658 416 667.5 c 128,-1,62
 370 677 370 677 321.5 663.5 c 128,-1,63
 273 650 273 650 236 614 c 0,64,65
 151 530 151 530 133.5 405.5 c 128,-1,66
 116 281 116 281 177 180 c 0,67,68
 194 153 194 153 229.5 127 c 128,-1,69
 265 101 265 101 310 83 c 0,70,71
 409 44 409 44 472 66 c 0,72,73
 481 70 481 70 490 76 c 1,74,75
 486 84 486 84 488 93 c 1,47,48
EndSplineSet
EndChar

StartChar: R
Encoding: 82 82 53
Width: 641
GlyphClass: 2
Flags: W
LayerCount: 2
Fore
SplineSet
88 19 m 0,0,1
 88 73 88 73 73 176 c 0,2,3
 56 294 56 294 55 339 c 0,4,5
 53 407 53 407 77 543 c 0,6,7
 78 547 78 547 83 591 c 0,8,9
 87 626 87 626 95 647 c 0,10,11
 118 709 118 709 196 724 c 0,12,13
 259 736 259 736 341 714 c 0,14,15
 420 694 420 694 486 650.5 c 128,-1,16
 552 607 552 607 571 552 c 0,17,18
 594 484 594 484 570 431 c 0,19,20
 550 386 550 386 497 356 c 0,21,22
 482 347 482 347 464 340 c 1,23,24
 473 332 473 332 481 322 c 0,25,26
 514 280 514 280 526 237 c 0,27,28
 533 212 533 212 533 163 c 0,29,30
 534 101 534 101 535 87 c 0,31,32
 538 49 538 49 549 30 c 128,-1,33
 560 11 560 11 584 7 c 0,34,35
 595 4 595 4 601.5 -5 c 128,-1,36
 608 -14 608 -14 605.5 -25 c 128,-1,37
 603 -36 603 -36 594 -42.5 c 128,-1,38
 585 -49 585 -49 574 -47 c 0,39,40
 490 -30 490 -30 481 83 c 0,41,42
 480 98 480 98 479 162 c 0,43,44
 479 205 479 205 474 223 c 0,45,46
 465 255 465 255 439 288 c 0,47,48
 424 307 424 307 399 320 c 1,49,50
 352 310 352 310 294 305 c 0,51,52
 266 303 266 303 217 308 c 0,53,54
 189 312 189 312 171 317 c 0,55,56
 158 321 158 321 150 327 c 0,57,58
 135 337 135 337 132 352 c 0,59,60
 128 377 128 377 155 391 c 0,61,62
 167 398 167 398 188 401 c 0,63,64
 228 409 228 409 281 405 c 0,65,66
 351 400 351 400 404 377 c 1,67,68
 443 388 443 388 470 403 c 0,69,70
 508 424 508 424 521 453 c 0,71,72
 536 486 536 486 519 534 c 0,73,74
 507 572 507 572 452.5 608 c 128,-1,75
 398 644 398 644 328 662 c 0,76,77
 257 680 257 680 206 671 c 0,78,79
 158 662 158 662 145 629 c 0,80,81
 140 614 140 614 137 586 c 0,82,83
 132 538 132 538 131 533 c 0,84,85
 107 403 107 403 109 341 c 0,86,87
 110 291 110 291 126 183 c 128,-1,88
 142 75 142 75 142 19 c 0,89,90
 142 8 142 8 134 0 c 128,-1,91
 126 -8 126 -8 115 -8 c 128,-1,92
 104 -8 104 -8 96 0 c 128,-1,93
 88 8 88 8 88 19 c 0,0,1
EndSplineSet
EndChar

StartChar: S
Encoding: 83 83 54
Width: 607
GlyphClass: 2
Flags: W
LayerCount: 2
Fore
SplineSet
473 509 m 2,0,-1
 473 514 l 2,1,2
 473 519 473 519 473.5 525.5 c 128,-1,3
 474 532 474 532 474 538 c 2,4,-1
 474 556 l 1,5,-1
 474 562 l 1,6,7
 463 600 463 600 435 626 c 128,-1,8
 407 652 407 652 372.5 662.5 c 128,-1,9
 338 673 338 673 299.5 669 c 128,-1,10
 261 665 261 665 229 648 c 128,-1,11
 197 631 197 631 174 596 c 0,12,13
 150 561 150 561 145 515 c 0,14,15
 141 481 141 481 156 461 c 0,16,17
 170 442 170 442 202 429 c 0,18,19
 227 419 227 419 272 409 c 0,20,21
 337 395 337 395 347 392 c 0,22,23
 432 366 432 366 492 318 c 0,24,25
 574 252 574 252 572 167 c 0,26,27
 571 133 571 133 562 108.5 c 128,-1,28
 553 84 553 84 528 62 c 0,29,30
 479 18 479 18 373 -13 c 0,31,32
 265 -45 265 -45 199 -33 c 0,33,34
 153 -24 153 -24 113 8 c 128,-1,35
 73 40 73 40 51 84 c 0,36,37
 35 114 35 114 31 145.5 c 128,-1,38
 27 177 27 177 37 210.5 c 128,-1,39
 47 244 47 244 74 271 c 0,40,41
 81 279 81 279 92.5 279 c 128,-1,42
 104 279 104 279 112 271.5 c 128,-1,43
 120 264 120 264 120 252.5 c 128,-1,44
 120 241 120 241 112 233 c 0,45,46
 62 181 62 181 99 108 c 0,47,48
 116 75 116 75 146 51 c 128,-1,49
 176 27 176 27 209 21 c 0,50,51
 262 11 262 11 358 39 c 0,52,53
 452 66 452 66 492 102 c 0,54,55
 507 115 507 115 512 129.5 c 128,-1,56
 517 144 517 144 518 169 c 0,57,58
 519 227 519 227 458 276 c 0,59,60
 407 318 407 318 331 340 c 0,61,62
 320 344 320 344 261 356 c 0,63,64
 210 367 210 367 181 379 c 0,65,66
 136 398 136 398 113 429 c 0,67,68
 85 466 85 466 91 521 c 0,69,70
 98 580 98 580 128.5 625 c 128,-1,71
 159 670 159 670 201.5 693.5 c 128,-1,72
 244 717 244 717 294 723 c 128,-1,73
 344 729 344 729 390 715.5 c 128,-1,74
 436 702 436 702 473 666 c 128,-1,75
 510 630 510 630 526 577 c 0,76,77
 528 571 528 571 528 558 c 2,78,-1
 528 537 l 2,79,80
 528 531 528 531 527.5 524.5 c 128,-1,81
 527 518 527 518 527 513 c 2,82,-1
 527 507 l 2,83,84
 527 496 527 496 518.5 488.5 c 128,-1,85
 510 481 510 481 499 481 c 128,-1,86
 488 481 488 481 480.5 489.5 c 128,-1,87
 473 498 473 498 473 509 c 2,0,-1
EndSplineSet
EndChar

StartChar: T
Encoding: 84 84 55
Width: 652
GlyphClass: 2
Flags: W
LayerCount: 2
Fore
SplineSet
61 709 m 0,0,1
 140 702 140 702 227 696 c 128,-1,2
 314 690 314 690 426 684 c 2,3,-1
 592 674 l 2,4,5
 603 673 603 673 610.5 664.5 c 128,-1,6
 618 656 618 656 617 645 c 128,-1,7
 616 634 616 634 607.5 626.5 c 128,-1,8
 599 619 599 619 588 620 c 0,9,10
 534 624 534 624 432.5 629.5 c 128,-1,11
 331 635 331 635 288 638 c 1,12,13
 293 575 293 575 292 474 c 0,14,15
 291 328 291 328 292 297 c 0,16,17
 294 254 294 254 298 207 c 0,18,19
 303 160 303 160 310 102 c 128,-1,20
 317 44 317 44 320 13 c 0,21,22
 321 2 321 2 314 -7 c 128,-1,23
 307 -16 307 -16 296 -17 c 128,-1,24
 285 -18 285 -18 276 -11 c 128,-1,25
 267 -4 267 -4 266 7 c 0,26,27
 263 38 263 38 256 97.5 c 128,-1,28
 249 157 249 157 244.5 204.5 c 128,-1,29
 240 252 240 252 238 295 c 0,30,31
 237 326 237 326 238 474 c 0,32,33
 239 579 239 579 234 641 c 1,34,35
 151 647 151 647 57 655 c 0,36,37
 45 656 45 656 38 664.5 c 128,-1,38
 31 673 31 673 32 684.5 c 128,-1,39
 33 696 33 696 41.5 703 c 128,-1,40
 50 710 50 710 61 709 c 0,0,1
EndSplineSet
EndChar

StartChar: U
Encoding: 85 85 56
Width: 647
GlyphClass: 2
Flags: W
LayerCount: 2
Fore
SplineSet
138 700 m 0,0,1
 122 651 122 651 120 563.5 c 128,-1,2
 118 476 118 476 130 382 c 0,3,4
 143 283 143 283 166 203 c 0,5,6
 190 123 190 123 221 86 c 0,7,8
 245 57 245 57 288 42 c 0,9,10
 331 28 331 28 371 35 c 0,11,12
 394 38 394 38 412 54 c 128,-1,13
 430 70 430 70 451 101 c 0,14,15
 470 131 470 131 486 159.5 c 128,-1,16
 502 188 502 188 513 220 c 2,17,-1
 532 276 l 2,18,19
 540 300 540 300 545 336 c 2,20,-1
 553 394 l 2,21,22
 556 415 556 415 557 457.5 c 128,-1,23
 558 500 558 500 558.5 519 c 128,-1,24
 559 538 559 538 558.5 588 c 128,-1,25
 558 638 558 638 558 657 c 0,26,27
 558 668 558 668 566 676 c 128,-1,28
 574 684 574 684 585 684 c 128,-1,29
 596 684 596 684 604 676 c 128,-1,30
 612 668 612 668 612 657 c 0,31,32
 612 638 612 638 612.5 588.5 c 128,-1,33
 613 539 613 539 612.5 519 c 128,-1,34
 612 499 612 499 611 455.5 c 128,-1,35
 610 412 610 412 607 389 c 128,-1,36
 604 366 604 366 598.5 327.5 c 128,-1,37
 593 289 593 289 584.5 262 c 128,-1,38
 576 235 576 235 563.5 200.5 c 128,-1,39
 551 166 551 166 534 134.5 c 128,-1,40
 517 103 517 103 495 71 c 0,41,42
 480 48 480 48 467.5 33 c 128,-1,43
 455 18 455 18 431 2 c 128,-1,44
 407 -14 407 -14 379 -19 c 0,45,46
 326 -27 326 -27 269.5 -8 c 128,-1,47
 213 11 213 11 179 52 c 0,48,49
 142 97 142 97 116 184 c 128,-1,50
 90 271 90 271 77 375 c 0,51,52
 64 469 64 469 66 564.5 c 128,-1,53
 68 660 68 660 86 716 c 0,54,55
 90 727 90 727 100 732 c 128,-1,56
 110 737 110 737 120.5 733.5 c 128,-1,57
 131 730 131 730 136 720 c 128,-1,58
 141 710 141 710 138 700 c 0,0,1
EndSplineSet
EndChar

StartChar: V
Encoding: 86 86 57
Width: 655
GlyphClass: 2
Flags: W
LayerCount: 2
Fore
SplineSet
41 712 m 0,0,1
 42 711 42 711 50 706 c 128,-1,2
 58 701 58 701 66 695 c 128,-1,3
 74 689 74 689 79 683 c 0,4,5
 101 659 101 659 129 594 c 0,6,7
 152 540 152 540 179 463 c 0,8,9
 214 360 214 360 251 229 c 0,10,11
 258 204 258 204 273 163 c 0,12,13
 287 123 287 123 293 102 c 1,14,15
 298 110 298 110 302 120 c 0,16,17
 311 138 311 138 322 166 c 0,18,19
 333 197 333 197 335 201 c 0,20,21
 353 240 353 240 370 284 c 2,22,-1
 405 382 l 2,23,24
 424 436 424 436 435 465 c 0,25,26
 497 628 497 628 572 722 c 0,27,28
 579 731 579 731 590 732 c 128,-1,29
 601 733 601 733 610 726 c 128,-1,30
 619 719 619 719 620 708 c 128,-1,31
 621 697 621 697 614 688 c 0,32,33
 544 598 544 598 486 446 c 2,34,-1
 456 362 l 1,35,-1
 419 262 l 2,36,37
 402 217 402 217 385 179 c 0,38,39
 384 177 384 177 372 147 c 128,-1,40
 360 117 360 117 351 97 c 0,41,42
 337 67 337 67 324 51 c 0,43,44
 299 19 299 19 270 30 c 0,45,46
 248 37 248 37 245 65 c 0,47,48
 245 69 245 69 244.5 72 c 128,-1,49
 244 75 244 75 244 76 c 2,50,-1
 244 78 l 1,51,-1
 244 79 l 1,52,53
 238 101 238 101 222 145 c 0,54,55
 206 191 206 191 199 215 c 0,56,57
 160 347 160 347 127 445 c 0,58,59
 99 526 99 526 80 572 c 0,60,61
 55 629 55 629 39 647 c 0,62,63
 36 650 36 650 32.5 652.5 c 128,-1,64
 29 655 29 655 22.5 659 c 128,-1,65
 16 663 16 663 9 668 c 0,66,67
 0 675 0 675 -1.5 686 c 128,-1,68
 -3 697 -3 697 3.5 706 c 128,-1,69
 10 715 10 715 21 716.5 c 128,-1,70
 32 718 32 718 41 712 c 0,0,1
EndSplineSet
EndChar

StartChar: W
Encoding: 87 87 58
Width: 918
GlyphClass: 2
Flags: W
LayerCount: 2
Fore
SplineSet
52 709 m 0,0,1
 87 653 87 653 115 579.5 c 128,-1,2
 143 506 143 506 176.5 387 c 128,-1,3
 210 268 210 268 216 251 c 0,4,5
 222 231 222 231 245 169 c 0,6,7
 257 138 257 138 263 118 c 1,8,-1
 264 128 l 2,9,10
 265 139 265 139 267 178 c 0,11,12
 268 206 268 206 269 214 c 0,13,14
 276 267 276 267 298 335.5 c 128,-1,15
 320 404 320 404 337 446 c 128,-1,16
 354 488 354 488 385 558 c 2,17,-1
 417 627 l 2,18,19
 430 654 430 654 438 669 c 0,20,21
 443 679 443 679 446 684 c 0,22,23
 448 688 448 688 450.5 691 c 128,-1,24
 453 694 453 694 456 696 c 0,25,26
 464 702 464 702 474 702 c 0,27,28
 489 702 489 702 500 688 c 0,29,30
 506 681 506 681 510 671 c 0,31,32
 516 657 516 657 522 633 c 0,33,34
 527 608 527 608 533 570 c 0,35,36
 561 369 561 369 632 189 c 0,37,38
 639 172 639 172 663 121 c 1,39,-1
 665 118 l 1,40,41
 667 129 667 129 669 143 c 0,42,43
 672 161 672 161 675 184.5 c 128,-1,44
 678 208 678 208 680.5 223.5 c 128,-1,45
 683 239 683 239 683 243 c 0,46,47
 740 540 740 540 833 696 c 0,48,49
 838 705 838 705 849 708 c 128,-1,50
 860 711 860 711 869.5 705.5 c 128,-1,51
 879 700 879 700 882 689 c 128,-1,52
 885 678 885 678 879 668 c 0,53,54
 792 520 792 520 737 233 c 0,55,56
 736 229 736 229 734 214 c 128,-1,57
 732 199 732 199 728 176 c 2,58,-1
 722 134 l 2,59,60
 715 93 715 93 711 73 c 0,61,62
 707 58 707 58 704 49 c 2,63,-1
 699 39 l 2,64,65
 692 28 692 28 683 25 c 0,66,67
 671 20 671 20 660 26 c 0,68,69
 656 28 656 28 653 31 c 0,70,71
 649 34 649 34 646 39 c 0,72,73
 642 44 642 44 637 54 c 0,74,75
 628 70 628 70 615 98 c 0,76,77
 589 150 589 150 582 169 c 0,78,79
 508 355 508 355 479 562 c 0,80,81
 475 594 475 594 470 614 c 1,82,-1
 466 604 l 1,83,-1
 435 536 l 2,84,85
 404 468 404 468 387 426 c 128,-1,86
 370 384 370 384 349.5 320 c 128,-1,87
 329 256 329 256 323 208 c 0,88,89
 322 201 322 201 321 175 c 0,90,91
 318 136 318 136 318 124 c 0,92,93
 316 93 316 93 313 73 c 0,94,95
 309 44 309 44 302 32 c 0,96,97
 290 14 290 14 266 14 c 0,98,99
 246 14 246 14 233 26 c 0,100,101
 219 39 219 39 221 62 c 0,102,103
 221 69 221 69 222 69 c 1,104,105
 214 99 214 99 195 150 c 0,106,107
 170 218 170 218 164 235 c 0,108,109
 156 260 156 260 123.5 374.5 c 128,-1,110
 91 489 91 489 65 558.5 c 128,-1,111
 39 628 39 628 6 679 c 0,112,113
 0 689 0 689 2.5 700 c 128,-1,114
 5 711 5 711 14.5 717 c 128,-1,115
 24 723 24 723 35 720.5 c 128,-1,116
 46 718 46 718 52 709 c 0,0,1
EndSplineSet
EndChar

StartChar: X
Encoding: 88 88 59
Width: 594
GlyphClass: 2
Flags: W
LayerCount: 2
Fore
SplineSet
26 59 m 2,0,-1
 71 130 l 2,1,2
 100 178 100 178 118 204 c 2,3,-1
 253 385 l 1,4,5
 243 402 243 402 234 414 c 0,6,7
 234 415 234 415 187 477 c 0,8,9
 158 516 158 516 142 545 c 0,10,11
 133 560 133 560 100 623 c 0,12,13
 77 669 77 669 59 696 c 0,14,15
 52 705 52 705 54.5 716 c 128,-1,16
 57 727 57 727 66 733.5 c 128,-1,17
 75 740 75 740 86 737.5 c 128,-1,18
 97 735 97 735 103 726 c 0,19,20
 122 699 122 699 148 648 c 2,21,-1
 188 571 l 2,22,23
 201 550 201 550 231 509 c 0,24,25
 277 447 277 447 278 446 c 0,26,27
 283 438 283 438 289 430 c 1,28,29
 391 557 391 557 509 687 c 0,30,31
 517 695 517 695 528 696 c 128,-1,32
 539 697 539 697 547 689 c 128,-1,33
 555 681 555 681 556 670 c 128,-1,34
 557 659 557 659 549 651 c 0,35,36
 424 514 424 514 318 380 c 1,37,38
 326 365 326 365 333 355 c 0,39,40
 350 327 350 327 397 262 c 0,41,42
 440 202 440 202 462 166 c 2,43,-1
 490 118 l 2,44,45
 508 86 508 86 522 64 c 128,-1,46
 536 42 536 42 553 22 c 0,47,48
 560 13 560 13 559 2 c 128,-1,49
 558 -9 558 -9 549 -16 c 128,-1,50
 540 -23 540 -23 529 -22 c 128,-1,51
 518 -21 518 -21 511 -12 c 0,52,53
 493 10 493 10 477.5 34.5 c 128,-1,54
 462 59 462 59 443 92 c 2,55,-1
 416 138 l 2,56,57
 395 172 395 172 353 231 c 0,58,59
 298 309 298 309 287 325 c 2,60,-1
 282 334 l 1,61,-1
 162 172 l 2,62,63
 145 148 145 148 117 102 c 0,64,65
 85 51 85 51 70 29 c 0,66,67
 64 20 64 20 53 17.5 c 128,-1,68
 42 15 42 15 33 21.5 c 128,-1,69
 24 28 24 28 21.5 39 c 128,-1,70
 19 50 19 50 26 59 c 2,0,-1
EndSplineSet
EndChar

StartChar: Y
Encoding: 89 89 60
Width: 612
GlyphClass: 2
Flags: W
LayerCount: 2
Fore
SplineSet
65 664 m 0,0,1
 60 667 60 667 57 671 c 2,2,-1
 53 677 l 1,3,-1
 52 679 l 1,4,-1
 38 709 l 2,5,6
 33 719 33 719 36.5 729.5 c 128,-1,7
 40 740 40 740 50 745 c 128,-1,8
 60 750 60 750 70.5 746.5 c 128,-1,9
 81 743 81 743 86 733 c 2,10,-1
 98 708 l 1,11,-1
 102 704 l 2,12,13
 110 695 110 695 127 670 c 0,14,15
 151 633 151 633 177 588 c 2,16,-1
 232 488 l 2,17,18
 262 434 262 434 279 405 c 0,19,20
 289 387 289 387 305 363 c 2,21,-1
 318 342 l 1,22,-1
 324 348 l 2,23,24
 334 362 334 362 348 396 c 0,25,26
 369 446 369 446 374 456 c 2,27,-1
 422 542 l 2,28,29
 439 574 439 574 469.5 621.5 c 128,-1,30
 500 669 500 669 529 703 c 0,31,32
 537 712 537 712 548 713 c 128,-1,33
 559 714 559 714 567.5 706.5 c 128,-1,34
 576 699 576 699 577 688 c 128,-1,35
 578 677 578 677 571 669 c 0,36,37
 543 636 543 636 514.5 592 c 128,-1,38
 486 548 486 548 468 516 c 2,39,-1
 422 430 l 2,40,41
 417 421 417 421 398 376 c 0,42,43
 380 334 380 334 366 316 c 0,44,45
 353 298 353 298 340 290 c 1,46,47
 329 221 329 221 324 139.5 c 128,-1,48
 319 58 319 58 327 4 c 0,49,50
 329 -7 329 -7 322.5 -16 c 128,-1,51
 316 -25 316 -25 305 -27.5 c 128,-1,52
 294 -30 294 -30 285 -23.5 c 128,-1,53
 276 -17 276 -17 273 -6 c 0,54,55
 265 57 265 57 270 139 c 128,-1,56
 275 221 275 221 287 295 c 1,57,58
 283 298 283 298 279 305 c 0,59,60
 271 316 271 316 259 334 c 0,61,62
 243 359 243 359 233 377 c 0,63,64
 215 407 215 407 186 461 c 2,65,-1
 132 559 l 2,66,67
 106 603 106 603 81 640 c 0,68,69
 71 656 71 656 65 664 c 0,0,1
EndSplineSet
EndChar

StartChar: Z
Encoding: 90 90 61
Width: 644
GlyphClass: 2
Flags: W
LayerCount: 2
Fore
SplineSet
46 706 m 0,0,1
 273 682 273 682 421 682 c 2,2,-1
 500 682 l 2,3,4
 501 682 501 682 501.5 682.5 c 128,-1,5
 502 683 502 683 505.5 684 c 128,-1,6
 509 685 509 685 515 687 c 0,7,8
 548 696 548 696 562 672 c 0,9,10
 572 656 572 656 565 636 c 0,11,12
 561 624 561 624 552 609 c 0,13,14
 537 588 537 588 508 558 c 0,15,16
 490 538 490 538 460 510 c 0,17,18
 433 485 433 485 430 482 c 0,19,20
 380 428 380 428 293 324 c 2,21,-1
 168 176 l 1,22,-1
 147 155 l 1,23,-1
 113 123 l 1,24,-1
 83 93 l 1,25,-1
 86 93 l 2,26,27
 98 92 98 92 117 92 c 0,28,29
 151 92 151 92 207 96 c 0,30,31
 246 98 246 98 301.5 102.5 c 128,-1,32
 357 107 357 107 358 107 c 0,33,34
 373 108 373 108 470 111 c 0,35,36
 538 113 538 113 579 118 c 0,37,38
 590 119 590 119 599 112 c 128,-1,39
 608 105 608 105 609 94 c 128,-1,40
 610 83 610 83 603 74 c 128,-1,41
 596 65 596 65 585 64 c 0,42,43
 542 59 542 59 472 57 c 0,44,45
 379 54 379 54 362 53 c 0,46,47
 360 53 360 53 304.5 48.5 c 128,-1,48
 249 44 249 44 210 42 c 0,49,50
 153 38 153 38 118 38 c 0,51,52
 97 38 97 38 83 39 c 0,53,54
 64 40 64 40 54 44 c 0,55,56
 41 50 41 50 30.5 64 c 128,-1,57
 20 78 20 78 21 95 c 0,58,59
 22 103 22 103 27 110 c 0,60,61
 28 113 28 113 31 116 c 0,62,63
 36 121 36 121 43 129 c 2,64,-1
 76 161 l 1,65,-1
 109 194 l 2,66,67
 125 209 125 209 128 212 c 2,68,-1
 252 359 l 2,69,70
 340 464 340 464 390 518 c 2,71,-1
 423 550 l 2,72,73
 452 577 452 577 469 595 c 0,74,75
 487 614 487 614 498 628 c 1,76,77
 496 627 496 627 460 627.5 c 128,-1,78
 424 628 424 628 421 628 c 0,79,80
 270 628 270 628 40 652 c 0,81,82
 29 653 29 653 22 662 c 128,-1,83
 15 671 15 671 16 682 c 128,-1,84
 17 693 17 693 26 700 c 128,-1,85
 35 707 35 707 46 706 c 0,0,1
EndSplineSet
EndChar

StartChar: bracketleft
Encoding: 91 91 62
Width: 429
GlyphClass: 2
Flags: W
LayerCount: 2
Fore
SplineSet
354 598 m 0,0,1
 289 613 289 613 229 620 c 0,2,3
 186 625 186 625 161 623 c 0,4,5
 153 623 153 623 147 621 c 1,6,-1
 149 611 l 1,7,-1
 159 549 l 2,8,9
 174 454 174 454 175 437 c 0,10,11
 176 395 176 395 174.5 350 c 128,-1,12
 173 305 173 305 170 246 c 128,-1,13
 167 187 167 187 166 159 c 0,14,15
 165 144 165 144 165 69 c 0,16,17
 164 12 164 12 161 -23 c 0,18,19
 160 -33 160 -33 156 -52 c 0,20,21
 151 -78 151 -78 151 -81 c 0,22,23
 145 -113 145 -113 149 -122 c 0,24,25
 150 -126 150 -126 157 -128 c 0,26,27
 163 -130 163 -130 190 -130 c 0,28,29
 213 -130 213 -130 252 -128 c 0,30,31
 269 -128 269 -128 295.5 -126.5 c 128,-1,32
 322 -125 322 -125 340 -124.5 c 128,-1,33
 358 -124 358 -124 367 -124 c 0,34,35
 378 -124 378 -124 386 -132 c 128,-1,36
 394 -140 394 -140 394 -151 c 128,-1,37
 394 -162 394 -162 386 -170 c 128,-1,38
 378 -178 378 -178 367 -178 c 0,39,40
 358 -178 358 -178 340.5 -178.5 c 128,-1,41
 323 -179 323 -179 297 -180.5 c 128,-1,42
 271 -182 271 -182 254 -182 c 0,43,44
 214 -184 214 -184 190 -184 c 0,45,46
 156 -184 156 -184 143 -180 c 0,47,48
 108 -170 108 -170 97 -140 c 0,49,50
 90 -117 90 -117 97 -72 c 0,51,52
 98 -68 98 -68 103 -41 c 0,53,54
 106 -26 106 -26 107 -19 c 0,55,56
 110 15 110 15 111 70 c 0,57,58
 111 145 111 145 112 161 c 0,59,60
 113 189 113 189 116 246.5 c 128,-1,61
 119 304 119 304 120.5 349 c 128,-1,62
 122 394 122 394 121 435 c 0,63,64
 121 449 121 449 105 540 c 2,65,-1
 95 602 l 1,66,-1
 92 623 l 2,67,68
 91 627 91 627 91 630 c 2,69,-1
 91 634 l 1,70,-1
 91 637 l 2,71,72
 92 643 92 643 94 648 c 0,73,74
 103 664 103 664 124 671 c 0,75,76
 137 676 137 676 157 677 c 0,77,78
 188 679 188 679 235 673 c 0,79,80
 298 666 298 666 366 650 c 0,81,82
 377 648 377 648 383 638.5 c 128,-1,83
 389 629 389 629 386.5 618 c 128,-1,84
 384 607 384 607 374.5 601 c 128,-1,85
 365 595 365 595 354 598 c 0,0,1
EndSplineSet
EndChar

StartChar: backslash
Encoding: 92 92 63
Width: 493
GlyphClass: 2
Flags: W
LayerCount: 2
Fore
SplineSet
69 745 m 0,0,1
 103 674 103 674 151 532 c 0,2,3
 197 391 197 391 228 325 c 0,4,5
 300 174 300 174 377 43 c 0,6,7
 383 32 383 32 417 -19 c 0,8,9
 442 -58 442 -58 455 -87 c 0,10,11
 460 -97 460 -97 456.5 -107.5 c 128,-1,12
 453 -118 453 -118 442.5 -122.5 c 128,-1,13
 432 -127 432 -127 421.5 -123.5 c 128,-1,14
 411 -120 411 -120 407 -109 c 0,15,16
 396 -87 396 -87 371 -48 c 0,17,18
 337 4 337 4 331 15 c 0,19,20
 253 147 253 147 180 301 c 0,21,22
 146 372 146 372 99 515 c 0,23,24
 53 654 53 654 21 721 c 0,25,26
 16 731 16 731 19.5 741.5 c 128,-1,27
 23 752 23 752 33 757 c 128,-1,28
 43 762 43 762 53.5 758.5 c 128,-1,29
 64 755 64 755 69 745 c 0,0,1
EndSplineSet
EndChar

StartChar: bracketright
Encoding: 93 93 64
Width: 367
GlyphClass: 2
Flags: W
LayerCount: 2
Fore
SplineSet
269 589 m 1,0,-1
 268 589 l 1,1,2
 148 599 148 599 81 631 c 0,3,4
 71 635 71 635 67.5 645.5 c 128,-1,5
 64 656 64 656 68.5 666.5 c 128,-1,6
 73 677 73 677 83.5 680.5 c 128,-1,7
 94 684 94 684 105 679 c 0,8,9
 162 652 162 652 272 643 c 1,10,-1
 281 645 l 2,11,12
 310 650 310 650 322 628 c 0,13,14
 326 619 326 619 326 607 c 0,15,16
 326 600 326 600 324 590 c 0,17,18
 322 576 322 576 317 553 c 2,19,-1
 308 515 l 2,20,21
 303 497 303 497 303 492 c 0,22,23
 296 443 296 443 295.5 388 c 128,-1,24
 295 333 295 333 297.5 260.5 c 128,-1,25
 300 188 300 188 300 152 c 0,26,27
 300 40 300 40 325 -121 c 1,28,-1
 325 -122 l 2,29,30
 326 -123 326 -123 329 -131 c 0,31,32
 340 -160 340 -160 319 -176 c 0,33,34
 313 -180 313 -180 303 -182 c 0,35,36
 298 -183 298 -183 290 -184 c 0,37,38
 279 -184 279 -184 261 -183 c 0,39,40
 237 -182 237 -182 183 -176 c 0,41,42
 59 -162 59 -162 51 -162 c 0,43,44
 40 -162 40 -162 32 -154 c 128,-1,45
 24 -146 24 -146 24 -135 c 128,-1,46
 24 -124 24 -124 32 -116 c 128,-1,47
 40 -108 40 -108 51 -108 c 128,-1,48
 62 -108 62 -108 189 -122 c 0,49,50
 246 -128 246 -128 264 -129 c 0,51,52
 268 -130 268 -130 271 -130 c 1,53,-1
 271 -129 l 1,54,55
 246 35 246 35 246 152 c 0,56,57
 246 184 246 184 243.5 258 c 128,-1,58
 241 332 241 332 241.5 390 c 128,-1,59
 242 448 242 448 249 500 c 0,60,61
 250 507 250 507 255 528 c 2,62,-1
 264 565 l 2,63,64
 268 580 268 580 269 589 c 1,0,-1
EndSplineSet
EndChar

StartChar: asciicircum
Encoding: 94 94 65
Width: 466
GlyphClass: 2
Flags: W
LayerCount: 2
Fore
SplineSet
40 377 m 0,0,1
 50 400 50 400 124 524 c 2,2,-1
 179 614 l 2,3,4
 190 632 190 632 199 644 c 0,5,6
 204 651 204 651 208 655 c 0,7,8
 215 664 215 664 223 666 c 0,9,10
 251 677 251 677 280 655 c 0,11,12
 288 649 288 649 297 632 c 0,13,14
 304 621 304 621 314 601 c 0,15,16
 329 572 329 572 358 512 c 2,17,-1
 386 451 l 1,18,-1
 414 392 l 1,19,-1
 428 362 l 2,20,21
 433 353 433 353 429.5 342 c 128,-1,22
 426 331 426 331 416.5 326 c 128,-1,23
 407 321 407 321 396 324.5 c 128,-1,24
 385 328 385 328 380 338 c 0,25,26
 376 345 376 345 366 368 c 2,27,-1
 338 428 l 1,28,-1
 309 489 l 1,29,-1
 266 576 l 2,30,31
 257 595 257 595 251 605 c 0,32,33
 249 607 249 607 246 613 c 0,34,35
 245 613 245 613 244 614 c 1,36,-1
 243 613 l 2,37,38
 236 603 236 603 224 584 c 2,39,-1
 170 496 l 2,40,41
 98 375 98 375 90 355 c 0,42,43
 86 345 86 345 75.5 341 c 128,-1,44
 65 337 65 337 54.5 341 c 128,-1,45
 44 345 44 345 40 355.5 c 128,-1,46
 36 366 36 366 40 377 c 0,0,1
EndSplineSet
EndChar

StartChar: underscore
Encoding: 95 95 66
Width: 530
GlyphClass: 2
Flags: W
LayerCount: 2
Fore
SplineSet
-2 -58 m 0,0,1
 72 -63 72 -63 230 -68 c 128,-1,2
 388 -73 388 -73 470 -79 c 0,3,4
 481 -80 481 -80 488.5 -88.5 c 128,-1,5
 496 -97 496 -97 495 -108 c 128,-1,6
 494 -119 494 -119 485.5 -126.5 c 128,-1,7
 477 -134 477 -134 466 -133 c 0,8,9
 384 -127 384 -127 226 -122 c 128,-1,10
 68 -117 68 -117 -6 -112 c 0,11,12
 -17 -111 -17 -111 -24.5 -102.5 c 128,-1,13
 -32 -94 -32 -94 -31 -83 c 128,-1,14
 -30 -72 -30 -72 -21.5 -64.5 c 128,-1,15
 -13 -57 -13 -57 -2 -58 c 0,0,1
EndSplineSet
EndChar

StartChar: grave
Encoding: 96 96 67
Width: 388
GlyphClass: 2
Flags: W
LayerCount: 2
Fore
SplineSet
163 681 m 0,0,1
 273 656 273 656 344 591 c 0,2,3
 353 583 353 583 353 572 c 128,-1,4
 353 561 353 561 345.5 552.5 c 128,-1,5
 338 544 338 544 327 544 c 128,-1,6
 316 544 316 544 308 551 c 0,7,8
 247 607 247 607 151 629 c 0,9,10
 140 631 140 631 134 640.5 c 128,-1,11
 128 650 128 650 130.5 661 c 128,-1,12
 133 672 133 672 142.5 678 c 128,-1,13
 152 684 152 684 163 681 c 0,0,1
EndSplineSet
EndChar

StartChar: a
Encoding: 97 97 68
Width: 532
GlyphClass: 2
Flags: W
LayerCount: 2
Fore
SplineSet
79 392 m 0,0,1
 95 436 95 436 127.5 467 c 128,-1,2
 160 498 160 498 199 510 c 128,-1,3
 238 522 238 522 278 518.5 c 128,-1,4
 318 515 318 515 355 489.5 c 128,-1,5
 392 464 392 464 416 421 c 0,6,7
 428 398 428 398 434.5 372 c 128,-1,8
 441 346 441 346 440 311.5 c 128,-1,9
 439 277 439 277 437.5 260 c 128,-1,10
 436 243 436 243 429 200.5 c 128,-1,11
 422 158 422 158 422 154 c 0,12,13
 412 86 412 86 421 57 c 0,14,15
 431 26 431 26 474 20 c 0,16,17
 485 18 485 18 491.5 9 c 128,-1,18
 498 0 498 0 496.5 -11 c 128,-1,19
 495 -22 495 -22 486 -28.5 c 128,-1,20
 477 -35 477 -35 466 -34 c 0,21,22
 390 -22 390 -22 370 41 c 0,23,24
 367 49 367 49 366 59 c 1,25,26
 326 13 326 13 288 -3 c 0,27,28
 248 -19 248 -19 199.5 -19.5 c 128,-1,29
 151 -20 151 -20 108 -3 c 0,30,31
 60 16 60 16 33.5 55.5 c 128,-1,32
 7 95 7 95 16 151 c 0,33,34
 26 212 26 212 73 259.5 c 128,-1,35
 120 307 120 307 183 329 c 0,36,37
 231 348 231 348 288 343.5 c 128,-1,38
 345 339 345 339 386 307 c 1,39,40
 387 361 387 361 368 395 c 0,41,42
 348 433 348 433 313 451 c 128,-1,43
 278 469 278 469 243.5 465.5 c 128,-1,44
 209 462 209 462 177 438 c 128,-1,45
 145 414 145 414 129 372 c 0,46,47
 125 362 125 362 115 357.5 c 128,-1,48
 105 353 105 353 94.5 357 c 128,-1,49
 84 361 84 361 79.5 371 c 128,-1,50
 75 381 75 381 79 392 c 0,0,1
374 243 m 0,51,52
 346 279 346 279 298 288 c 128,-1,53
 250 297 250 297 201 278 c 0,54,55
 149 260 149 260 113 223 c 128,-1,56
 77 186 77 186 70 143 c 0,57,58
 59 75 59 75 128 47 c 0,59,60
 161 34 161 34 199.5 34.5 c 128,-1,61
 238 35 238 35 268 47 c 0,62,63
 285 54 285 54 304 72.5 c 128,-1,64
 323 91 323 91 334 106 c 2,65,-1
 365 148 l 2,66,67
 366 150 366 150 367 151 c 2,68,-1
 368 161 l 1,69,-1
 374 200 l 1,70,-1
 380 238 l 1,71,72
 376 240 376 240 374 243 c 0,51,52
EndSplineSet
EndChar

StartChar: b
Encoding: 98 98 69
Width: 469
GlyphClass: 2
Flags: W
LayerCount: 2
Fore
SplineSet
99 146 m 1,0,1
 109 143 109 143 114 134 c 0,2,3
 130 104 130 104 152 91.5 c 128,-1,4
 174 79 174 79 209 79 c 0,5,6
 232 79 232 79 257 81 c 0,7,8
 288 83 288 83 297 87 c 0,9,10
 327 102 327 102 348.5 143.5 c 128,-1,11
 370 185 370 185 378 242 c 0,12,13
 385 298 385 298 377 348 c 128,-1,14
 369 398 369 398 349 423 c 0,15,16
 309 474 309 474 211 458 c 0,17,18
 166 451 166 451 142 432 c 0,19,20
 120 414 120 414 99 371 c 0,21,22
 97 364 97 364 91 360 c 1,23,24
 90 312 90 312 90 309 c 0,25,26
 89 246 89 246 92 206 c 0,27,28
 94 183 94 183 99 146 c 1,0,1
97 687 m 0,29,30
 90 624 90 624 92 459 c 1,31,32
 99 467 99 467 108 474 c 0,33,34
 143 502 143 502 203 512 c 0,35,36
 332 533 332 533 391 457 c 0,37,38
 420 420 420 420 430 360 c 0,39,40
 440 299 440 299 431 235 c 0,41,42
 423 169 423 169 395 115 c 128,-1,43
 367 61 367 61 321 39 c 0,44,45
 303 30 303 30 261 27 c 0,46,47
 234 25 234 25 209 25 c 0,48,49
 148 26 148 26 111 55 c 1,50,51
 112 42 112 42 112 30 c 0,52,53
 112 19 112 19 104.5 10.5 c 128,-1,54
 97 2 97 2 86 2 c 128,-1,55
 75 2 75 2 66.5 9.5 c 128,-1,56
 58 17 58 17 58 28 c 0,57,58
 57 60 57 60 49 113 c 0,59,60
 40 177 40 177 38 202 c 0,61,62
 35 245 35 245 36 310 c 0,63,64
 36 322 36 322 36.5 343.5 c 128,-1,65
 37 365 37 365 37.5 382.5 c 128,-1,66
 38 400 38 400 38 415.5 c 128,-1,67
 38 431 38 431 37 498 c 128,-1,68
 36 565 36 565 37 608 c 128,-1,69
 38 651 38 651 43 693 c 0,70,71
 44 704 44 704 53 711 c 128,-1,72
 62 718 62 718 73 717 c 128,-1,73
 84 716 84 716 91 707 c 128,-1,74
 98 698 98 698 97 687 c 0,29,30
EndSplineSet
EndChar

StartChar: c
Encoding: 99 99 70
Width: 487
GlyphClass: 2
Flags: W
LayerCount: 2
Fore
SplineSet
358 353 m 0,0,1
 363 384 363 384 347.5 410.5 c 128,-1,2
 332 437 332 437 301 455 c 128,-1,3
 270 473 270 473 235.5 477 c 128,-1,4
 201 481 201 481 179 471 c 0,5,6
 167 466 167 466 150 442.5 c 128,-1,7
 133 419 133 419 115 383 c 0,8,9
 82 314 82 314 72 264 c 0,10,11
 55 176 55 176 99 121.5 c 128,-1,12
 143 67 143 67 235 62 c 0,13,14
 296 59 296 59 315 70 c 0,15,16
 357 95 357 95 400 200 c 0,17,18
 404 211 404 211 414.5 215 c 128,-1,19
 425 219 425 219 435.5 215 c 128,-1,20
 446 211 446 211 450 200.5 c 128,-1,21
 454 190 454 190 450 180 c 0,22,23
 401 58 401 58 343 24 c 0,24,25
 310 4 310 4 233 8 c 0,26,27
 116 14 116 14 57 87 c 0,28,29
 -3 161 -3 161 20 274 c 0,30,31
 31 331 31 331 67 406 c 0,32,33
 86 447 86 447 106 474 c 0,34,35
 132 510 132 510 157 521 c 0,36,37
 197 536 197 536 242.5 530.5 c 128,-1,38
 288 525 288 525 328 502 c 0,39,40
 371 477 371 477 395.5 436 c 128,-1,41
 420 395 420 395 412 345 c 0,42,43
 410 334 410 334 401 327.5 c 128,-1,44
 392 321 392 321 381 322.5 c 128,-1,45
 370 324 370 324 363.5 333 c 128,-1,46
 357 342 357 342 358 353 c 0,0,1
EndSplineSet
EndChar

StartChar: d
Encoding: 100 100 71
Width: 493
GlyphClass: 2
Flags: W
LayerCount: 2
Fore
SplineSet
348 381 m 1,0,1
 292 433 292 433 233 432 c 0,2,3
 175 431 175 431 126 378 c 0,4,5
 77 324 77 324 61.5 247 c 128,-1,6
 46 170 46 170 76 99 c 0,7,8
 97 51 97 51 136.5 29.5 c 128,-1,9
 176 8 176 8 221 13.5 c 128,-1,10
 266 19 266 19 303 49.5 c 128,-1,11
 340 80 340 80 355 130 c 0,12,13
 357 135 357 135 360 139 c 0,14,15
 342 253 342 253 348 381 c 1,0,1
353 446 m 1,16,17
 366 586 366 586 405 718 c 0,18,19
 408 728 408 728 418 733.5 c 128,-1,20
 428 739 428 739 438.5 736 c 128,-1,21
 449 733 449 733 454.5 723 c 128,-1,22
 460 713 460 713 457 702 c 0,23,24
 414 557 414 557 404 402 c 1,25,-1
 404 401 l 1,26,27
 411 393 411 393 411 382 c 128,-1,28
 411 371 411 371 402 363 c 1,29,-1
 402 362 l 1,30,31
 394 159 394 159 449 2 c 0,32,33
 452 -9 452 -9 447 -19 c 128,-1,34
 442 -29 442 -29 431.5 -32.5 c 128,-1,35
 421 -36 421 -36 411 -31 c 128,-1,36
 401 -26 401 -26 397 -16 c 0,37,38
 386 17 386 17 377 52 c 1,39,40
 351 13 351 13 311.5 -11 c 128,-1,41
 272 -35 272 -35 228 -40 c 0,42,43
 166 -48 166 -48 111 -18 c 128,-1,44
 56 12 56 12 26 77 c 0,45,46
 -10 166 -10 166 8.5 258 c 128,-1,47
 27 350 27 350 86 414 c 0,48,49
 151 484 151 484 232 486 c 0,50,51
 294 487 294 487 353 446 c 1,16,17
EndSplineSet
EndChar

StartChar: e
Encoding: 101 101 72
Width: 533
GlyphClass: 2
Flags: W
LayerCount: 2
Fore
SplineSet
442 289 m 1,0,-1
 444 292 l 1,1,2
 448 315 448 315 427 344 c 0,3,4
 406 374 406 374 365 401 c 0,5,6
 326 427 326 427 286 440 c 0,7,8
 245 453 245 453 221 448 c 0,9,10
 159 434 159 434 116 363 c 0,11,12
 99 334 99 334 88 298 c 1,13,14
 97 298 97 298 131.5 296 c 128,-1,15
 166 294 166 294 203 292.5 c 128,-1,16
 240 291 240 291 273 290 c 0,17,18
 347 287 347 287 391 287 c 0,19,20
 416 287 416 287 431 288 c 0,21,22
 434 288 434 288 436.5 288.5 c 128,-1,23
 439 289 439 289 440 289 c 2,24,-1
 442 289 l 1,0,-1
75 245 m 1,25,-1
 73 222 l 2,26,27
 69 165 69 165 106.5 117 c 128,-1,28
 144 69 144 69 203 49.5 c 128,-1,29
 262 30 262 30 316 49 c 0,30,31
 374 70 374 70 429 168 c 0,32,33
 435 178 435 178 445.5 181 c 128,-1,34
 456 184 456 184 466 178.5 c 128,-1,35
 476 173 476 173 479 162.5 c 128,-1,36
 482 152 482 152 477 142 c 0,37,38
 411 26 411 26 334 -1 c 0,39,40
 290 -14 290 -14 245 -12.5 c 128,-1,41
 200 -11 200 -11 158 10 c 128,-1,42
 116 31 116 31 84 61.5 c 128,-1,43
 52 92 52 92 34 135.5 c 128,-1,44
 16 179 16 179 19 226 c 0,45,46
 25 315 25 315 70 391 c 0,47,48
 124 482 124 482 209 500 c 0,49,50
 248 509 248 509 299 492.5 c 128,-1,51
 350 476 350 476 395 446 c 0,52,53
 443 413 443 413 473.5 371 c 128,-1,54
 504 329 504 329 498 284 c 0,55,56
 494 257 494 257 468 242 c 0,57,58
 458 236 458 236 435 234 c 0,59,60
 418 233 418 233 391 233 c 0,61,62
 346 233 346 233 271 236 c 0,63,64
 223 238 223 238 152.5 241.5 c 128,-1,65
 82 245 82 245 75 245 c 1,25,-1
EndSplineSet
EndChar

StartChar: f
Encoding: 102 102 73
Width: 346
GlyphClass: 2
Flags: W
LayerCount: 2
Fore
SplineSet
77 9 m 0,0,1
 82 54 82 54 81 76 c 128,-1,2
 80 98 80 98 75 145.5 c 128,-1,3
 70 193 70 193 69 221 c 0,4,5
 65 343 65 343 72 446 c 1,6,7
 52 441 52 441 35 433 c 0,8,9
 25 428 25 428 14.5 431.5 c 128,-1,10
 4 435 4 435 -1 445 c 128,-1,11
 -6 455 -6 455 -2.5 465.5 c 128,-1,12
 1 476 1 476 11 481 c 0,13,14
 40 496 40 496 77 501 c 1,15,-1
 83 553 l 2,16,17
 90 602 90 602 117 642.5 c 128,-1,18
 144 683 144 683 181 697 c 0,19,20
 226 715 226 715 262 685 c 0,21,22
 297 658 297 658 310 591 c 0,23,24
 313 581 313 581 306.5 571.5 c 128,-1,25
 300 562 300 562 289.5 559.5 c 128,-1,26
 279 557 279 557 269.5 563.5 c 128,-1,27
 260 570 260 570 258 581 c 0,28,29
 248 628 248 628 228 643 c 0,30,31
 216 653 216 653 200 647 c 0,32,33
 180 639 180 639 161 611 c 128,-1,34
 142 583 142 583 137 545 c 0,35,36
 134 525 134 525 132 504 c 1,37,38
 152 504 152 504 175 502 c 128,-1,39
 198 500 198 500 224 497 c 128,-1,40
 250 494 250 494 261 493 c 0,41,42
 273 492 273 492 280 483.5 c 128,-1,43
 287 475 287 475 286 463.5 c 128,-1,44
 285 452 285 452 276.5 445 c 128,-1,45
 268 438 268 438 257 439 c 0,46,47
 242 440 242 440 214.5 443.5 c 128,-1,48
 187 447 187 447 166 448.5 c 128,-1,49
 145 450 145 450 127 451 c 1,50,51
 119 347 119 347 123 223 c 0,52,53
 124 203 124 203 129 153.5 c 128,-1,54
 134 104 134 104 135 76.5 c 128,-1,55
 136 49 136 49 131 -1 c 0,56,57
 129 -12 129 -12 119.5 -18.5 c 128,-1,58
 110 -25 110 -25 99 -23 c 128,-1,59
 88 -21 88 -21 81.5 -11.5 c 128,-1,60
 75 -2 75 -2 77 9 c 0,0,1
EndSplineSet
EndChar

StartChar: g
Encoding: 103 103 74
Width: 471
GlyphClass: 2
Flags: W
LayerCount: 2
Fore
SplineSet
349 169 m 1,0,1
 350 185 350 185 362 335 c 0,2,3
 364 353 364 353 365 391 c 128,-1,4
 366 429 366 429 367 442 c 1,5,6
 350 444 350 444 316 449 c 2,7,-1
 268 455 l 2,8,9
 216 459 216 459 182 444 c 0,10,11
 123 416 123 416 81 340 c 128,-1,12
 39 264 39 264 50 202 c 0,13,14
 58 153 58 153 81.5 121 c 128,-1,15
 105 89 105 89 138 76 c 0,16,17
 207 47 207 47 285 104 c 0,18,19
 325 134 325 134 349 169 c 1,0,1
430 523 m 0,20,21
 424 496 424 496 422 465 c 128,-1,22
 420 434 420 434 419 395 c 128,-1,23
 418 356 418 356 416 331 c 0,24,25
 415 320 415 320 414 307 c 128,-1,26
 413 294 413 294 412 280 c 2,27,-1
 409 256 l 1,28,29
 414 256 414 256 418 254 c 0,30,31
 429 250 429 250 433.5 240 c 128,-1,32
 438 230 438 230 434 220 c 0,33,34
 420 181 420 181 403 152 c 1,35,36
 402 92 402 92 409 44 c 0,37,38
 410 33 410 33 418 2 c 0,39,40
 427 -32 427 -32 430 -51 c 0,41,42
 443 -126 443 -126 410 -165 c 0,43,44
 378 -204 378 -204 325 -221 c 128,-1,45
 272 -238 272 -238 222 -235 c 128,-1,46
 172 -232 172 -232 127 -216 c 0,47,48
 50 -189 50 -189 35 -141 c 0,49,50
 25 -109 25 -109 45 -83 c 128,-1,51
 65 -57 65 -57 106 -39 c 0,52,53
 116 -35 116 -35 126.5 -39 c 128,-1,54
 137 -43 137 -43 141.5 -53 c 128,-1,55
 146 -63 146 -63 142 -73.5 c 128,-1,56
 138 -84 138 -84 128 -89 c 0,57,58
 107 -98 107 -98 96.5 -107.5 c 128,-1,59
 86 -117 86 -117 86 -120 c 2,60,-1
 86 -125 l 2,61,62
 89 -133 89 -133 104 -144.5 c 128,-1,63
 119 -156 119 -156 145 -165 c 0,64,65
 184 -179 184 -179 226 -181 c 128,-1,66
 268 -183 268 -183 307.5 -170.5 c 128,-1,67
 347 -158 347 -158 369 -131 c 0,68,69
 386 -111 386 -111 377 -60 c 0,70,71
 374 -44 374 -44 366 -11 c 0,72,73
 357 22 357 22 355 36 c 0,74,75
 352 61 352 61 350 87 c 1,76,77
 335 74 335 74 317 60 c 0,78,79
 268 25 268 25 216 16 c 0,80,81
 163 7 163 7 117 26 c 0,82,83
 70 45 70 45 38 88 c 0,84,85
 7 132 7 132 -4 192 c 0,86,87
 -18 273 -18 273 34 367 c 0,88,89
 85 458 85 458 160 492 c 0,90,91
 206 514 206 514 272 509 c 0,92,93
 290 507 290 507 324 502 c 0,94,95
 360 497 360 497 371 496 c 1,96,97
 374 517 374 517 378 535 c 0,98,99
 380 546 380 546 389.5 552 c 128,-1,100
 399 558 399 558 410 555.5 c 128,-1,101
 421 553 421 553 427 543.5 c 128,-1,102
 433 534 433 534 430 523 c 0,20,21
EndSplineSet
EndChar

StartChar: h
Encoding: 104 104 75
Width: 459
GlyphClass: 2
Flags: W
LayerCount: 2
Fore
SplineSet
92 306 m 1,0,1
 94 156 94 156 108 0 c 0,2,3
 109 -11 109 -11 102 -20 c 128,-1,4
 95 -29 95 -29 84 -30 c 128,-1,5
 73 -31 73 -31 64 -24 c 128,-1,6
 55 -17 55 -17 54 -6 c 0,7,8
 37 152 37 152 38 349 c 128,-1,9
 39 546 39 546 58 703 c 0,10,11
 60 714 60 714 68.5 721 c 128,-1,12
 77 728 77 728 88 726.5 c 128,-1,13
 99 725 99 725 106 716.5 c 128,-1,14
 113 708 113 708 112 697 c 0,15,16
 97 579 97 579 93 434 c 1,17,18
 109 458 109 458 127 475 c 0,19,20
 158 504 158 504 201 510.5 c 128,-1,21
 244 517 244 517 280 504 c 0,22,23
 318 492 318 492 349.5 465.5 c 128,-1,24
 381 439 381 439 395 403 c 0,25,26
 417 347 417 347 422 286 c 128,-1,27
 427 225 427 225 421.5 137.5 c 128,-1,28
 416 50 416 50 416 27 c 0,29,30
 416 16 416 16 408 8 c 128,-1,31
 400 0 400 0 389 0 c 128,-1,32
 378 0 378 0 370 8 c 128,-1,33
 362 16 362 16 362 27 c 0,34,35
 362 61 362 61 367.5 143.5 c 128,-1,36
 373 226 373 226 369 280 c 0,37,38
 365 332 365 332 345 383 c 0,39,40
 336 406 336 406 314 424.5 c 128,-1,41
 292 443 292 443 264 452 c 0,42,43
 203 471 203 471 163 435 c 0,44,45
 158 430 158 430 152.5 423.5 c 128,-1,46
 147 417 147 417 143 411.5 c 128,-1,47
 139 406 139 406 134 396 c 2,48,-1
 126 382 l 2,49,50
 124 378 124 378 119 366 c 128,-1,51
 114 354 114 354 112 350 c 128,-1,52
 110 346 110 346 104.5 332 c 128,-1,53
 99 318 99 318 98 315 c 0,54,55
 96 310 96 310 92 306 c 1,0,1
EndSplineSet
EndChar

StartChar: i
Encoding: 105 105 76
Width: 151
GlyphClass: 2
Flags: W
LayerCount: 2
Fore
SplineSet
62 27 m 0,0,1
 60 64 60 64 52 132.5 c 128,-1,2
 44 201 44 201 39.5 248.5 c 128,-1,3
 35 296 35 296 35.5 359 c 128,-1,4
 36 422 36 422 46 474 c 0,5,6
 49 485 49 485 58 491.5 c 128,-1,7
 67 498 67 498 78 495.5 c 128,-1,8
 89 493 89 493 95.5 484 c 128,-1,9
 102 475 102 475 100 464 c 0,10,11
 90 415 90 415 89.5 356.5 c 128,-1,12
 89 298 89 298 93.5 253.5 c 128,-1,13
 98 209 98 209 105.5 140.5 c 128,-1,14
 113 72 113 72 116 31 c 0,15,16
 117 20 117 20 109.5 11.5 c 128,-1,17
 102 3 102 3 91 2 c 128,-1,18
 80 1 80 1 71.5 8.5 c 128,-1,19
 63 16 63 16 62 27 c 0,0,1
100 675 m 128,-1,21
 100 664 100 664 92 656 c 128,-1,22
 84 648 84 648 73 648 c 128,-1,23
 62 648 62 648 54 656 c 128,-1,24
 46 664 46 664 46 675 c 128,-1,25
 46 686 46 686 54 694 c 128,-1,26
 62 702 62 702 73 702 c 128,-1,27
 84 702 84 702 92 694 c 128,-1,20
 100 686 100 686 100 675 c 128,-1,21
EndSplineSet
EndChar

StartChar: j
Encoding: 106 106 77
Width: 189
GlyphClass: 2
Flags: W
LayerCount: 2
Fore
SplineSet
-6 -93 m 0,0,1
 -5 -97 -5 -97 -4 -104 c 0,2,3
 -4 -105 -4 -105 -3.5 -107.5 c 128,-1,4
 -3 -110 -3 -110 -2 -112 c 2,5,-1
 -2 -115 l 1,6,7
 7 -126 7 -126 38 -119 c 0,8,9
 54 -116 54 -116 66 -109.5 c 128,-1,10
 78 -103 78 -103 81 -98 c 128,-1,11
 84 -93 84 -93 94 -55 c 0,12,13
 101 -30 101 -30 100.5 0 c 128,-1,14
 100 30 100 30 96 54 c 2,15,-1
 86 114 l 2,16,17
 80 151 80 151 77 176 c 0,18,19
 62 316 62 316 77 441 c 0,20,21
 78 452 78 452 87 459 c 128,-1,22
 96 466 96 466 107 465 c 128,-1,23
 118 464 118 464 125 455 c 128,-1,24
 132 446 132 446 131 435 c 0,25,26
 117 316 117 316 131 182 c 0,27,28
 133 163 133 163 139.5 126 c 128,-1,29
 146 89 146 89 150 61.5 c 128,-1,30
 154 34 154 34 154 -2.5 c 128,-1,31
 154 -39 154 -39 146 -69 c 0,32,33
 134 -114 134 -114 127 -126 c 0,34,35
 106 -160 106 -160 49 -172 c 0,36,37
 -15 -185 -15 -185 -44 -149 c 0,38,39
 -53 -138 -53 -138 -56 -122 c 0,40,41
 -56 -121 -56 -121 -57 -112 c 0,42,43
 -58 -109 -58 -109 -58 -107 c 0,44,45
 -61 -97 -61 -97 -55.5 -87 c 128,-1,46
 -50 -77 -50 -77 -39.5 -74 c 128,-1,47
 -29 -71 -29 -71 -19 -76.5 c 128,-1,48
 -9 -82 -9 -82 -6 -93 c 0,0,1
106 649 m 128,-1,50
 106 638 106 638 98 630 c 128,-1,51
 90 622 90 622 79 622 c 128,-1,52
 68 622 68 622 60 630 c 128,-1,53
 52 638 52 638 52 649 c 128,-1,54
 52 660 52 660 60 668 c 128,-1,55
 68 676 68 676 79 676 c 128,-1,56
 90 676 90 676 98 668 c 128,-1,49
 106 660 106 660 106 649 c 128,-1,50
EndSplineSet
EndChar

StartChar: k
Encoding: 107 107 78
Width: 447
GlyphClass: 2
Flags: W
LayerCount: 2
Fore
SplineSet
106 702 m 0,0,1
 85 536 85 536 82 339 c 0,2,3
 82 296 82 296 83 257 c 1,4,-1
 105 276 l 1,5,-1
 167 331 l 2,6,7
 184 346 184 346 228.5 381.5 c 128,-1,8
 273 417 273 417 304 444 c 128,-1,9
 335 471 335 471 363 499 c 0,10,11
 371 507 371 507 382 507 c 128,-1,12
 393 507 393 507 401 499 c 128,-1,13
 409 491 409 491 409 480 c 128,-1,14
 409 469 409 469 401 461 c 0,15,16
 373 433 373 433 342 406 c 2,17,-1
 264 341 l 2,18,19
 218 304 218 304 201 289 c 2,20,-1
 190 279 l 1,21,22
 228 278 228 278 258 262 c 0,23,24
 297 241 297 241 325 192 c 0,25,26
 335 176 335 176 365 106 c 0,27,28
 388 53 388 53 407 27 c 0,29,30
 413 18 413 18 411.5 7 c 128,-1,31
 410 -4 410 -4 401 -10.5 c 128,-1,32
 392 -17 392 -17 381 -15.5 c 128,-1,33
 370 -14 370 -14 363 -5 c 0,34,35
 342 25 342 25 316 84 c 0,36,37
 288 148 288 148 278 165 c 0,38,39
 257 201 257 201 233 215 c 0,40,41
 203 231 203 231 155 222 c 0,42,43
 142 220 142 220 132 228 c 1,44,45
 107 206 107 206 86 190 c 1,46,47
 88 163 88 163 91 135 c 0,48,49
 101 41 101 41 123 9 c 0,50,51
 130 0 130 0 127.5 -11 c 128,-1,52
 125 -22 125 -22 116 -28.5 c 128,-1,53
 107 -35 107 -35 96 -32.5 c 128,-1,54
 85 -30 85 -30 79 -21 c 0,55,56
 49 23 49 23 37 129 c 0,57,58
 27 216 27 216 28 339 c 0,59,60
 31 540 31 540 52 708 c 0,61,62
 54 720 54 720 62.5 726.5 c 128,-1,63
 71 733 71 733 82.5 731.5 c 128,-1,64
 94 730 94 730 100.5 721.5 c 128,-1,65
 107 713 107 713 106 702 c 0,0,1
EndSplineSet
EndChar

StartChar: l
Encoding: 108 108 79
Width: 149
GlyphClass: 2
Flags: W
LayerCount: 2
Fore
SplineSet
114 690 m 0,0,1
 110 665 110 665 108.5 635.5 c 128,-1,2
 107 606 107 606 107 585 c 128,-1,3
 107 564 107 564 107.5 527 c 128,-1,4
 108 490 108 490 108 472 c 0,5,6
 108 399 108 399 109.5 252.5 c 128,-1,7
 111 106 111 106 111 33 c 0,8,9
 111 22 111 22 103 14 c 128,-1,10
 95 6 95 6 84 6 c 128,-1,11
 73 6 73 6 65 14 c 128,-1,12
 57 22 57 22 57 33 c 0,13,14
 57 106 57 106 55.5 252.5 c 128,-1,15
 54 399 54 399 54 472 c 0,16,17
 54 488 54 488 53.5 525.5 c 128,-1,18
 53 563 53 563 53 585 c 128,-1,19
 53 607 53 607 54.5 639 c 128,-1,20
 56 671 56 671 60 698 c 0,21,22
 62 709 62 709 71 715.5 c 128,-1,23
 80 722 80 722 91 720.5 c 128,-1,24
 102 719 102 719 108.5 710 c 128,-1,25
 115 701 115 701 114 690 c 0,0,1
EndSplineSet
EndChar

StartChar: m
Encoding: 109 109 80
Width: 743
GlyphClass: 2
Flags: W
LayerCount: 2
Fore
SplineSet
384 336 m 1,0,1
 404 388 404 388 431 427 c 0,2,3
 464 474 464 474 507.5 490 c 128,-1,4
 551 506 551 506 592 488 c 0,5,6
 629 472 629 472 657 434.5 c 128,-1,7
 685 397 685 397 696 349 c 0,8,9
 702 323 702 323 703.5 290 c 128,-1,10
 705 257 705 257 704 241.5 c 128,-1,11
 703 226 703 226 699 187 c 0,12,13
 691 93 691 93 707 47 c 0,14,15
 710 36 710 36 705 26 c 128,-1,16
 700 16 700 16 689.5 12.5 c 128,-1,17
 679 9 679 9 669 14 c 128,-1,18
 659 19 659 19 655 29 c 0,19,20
 638 84 638 84 646 191 c 0,21,22
 649 229 649 229 650 244.5 c 128,-1,23
 651 260 651 260 650 287.5 c 128,-1,24
 649 315 649 315 644 337 c 0,25,26
 635 374 635 374 615 401 c 128,-1,27
 595 428 595 428 571 438 c 0,28,29
 520 459 520 459 475 395 c 0,30,31
 417 313 417 313 398 155 c 0,32,33
 397 148 397 148 396 132 c 0,34,35
 396 104 396 104 395 100 c 0,36,37
 393 54 393 54 383 34 c 0,38,39
 382 31 382 31 380 28 c 0,40,41
 373 19 373 19 362 18 c 0,42,43
 342 15 342 15 333 33 c 0,44,45
 331 37 331 37 330 42 c 2,46,-1
 330 56 l 1,47,-1
 331 68 l 2,48,49
 332 73 332 73 332 75 c 2,50,-1
 332 166 l 2,51,52
 332 179 332 179 333 227 c 128,-1,53
 334 275 334 275 333 295.5 c 128,-1,54
 332 316 332 316 327.5 349.5 c 128,-1,55
 323 383 323 383 314 409 c 0,56,57
 298 452 298 452 275 458 c 0,58,59
 255 464 255 464 224 445 c 0,60,61
 203 433 203 433 182.5 415.5 c 128,-1,62
 162 398 162 398 133 368 c 2,63,-1
 100 335 l 2,64,65
 96 332 96 332 92 330 c 0,66,67
 71 118 71 118 96 -5 c 0,68,69
 99 -15 99 -15 92.5 -24.5 c 128,-1,70
 86 -34 86 -34 75.5 -36.5 c 128,-1,71
 65 -39 65 -39 55.5 -32.5 c 128,-1,72
 46 -26 46 -26 44 -15 c 0,73,74
 31 45 31 45 29 119.5 c 128,-1,75
 27 194 27 194 30 241 c 128,-1,76
 33 288 33 288 42.5 381 c 128,-1,77
 52 474 52 474 54 501 c 0,78,79
 55 512 55 512 63.5 519.5 c 128,-1,80
 72 527 72 527 83 526 c 128,-1,81
 94 525 94 525 101.5 516.5 c 128,-1,82
 109 508 109 508 108 497 c 2,83,-1
 100 412 l 1,84,85
 156 468 156 468 197 492 c 0,86,87
 248 522 248 522 289 510 c 0,88,89
 338 497 338 497 364 427 c 0,90,91
 379 388 379 388 384 336 c 1,0,1
EndSplineSet
EndChar

StartChar: n
Encoding: 110 110 81
Width: 446
GlyphClass: 2
Flags: W
LayerCount: 2
Fore
SplineSet
88 262 m 1,0,1
 88 193 88 193 92 138 c 0,2,3
 93 124 93 124 98 88 c 0,4,5
 102 53 102 53 103 33 c 0,6,7
 103 22 103 22 95.5 13.5 c 128,-1,8
 88 5 88 5 77 5 c 128,-1,9
 66 5 66 5 57.5 12.5 c 128,-1,10
 49 20 49 20 49 31 c 0,11,12
 48 49 48 49 44 80 c 0,13,14
 39 118 39 118 38 134 c 0,15,16
 32 221 32 221 36 326 c 0,17,18
 40 435 40 435 52 517 c 0,19,20
 54 528 54 528 63 534.5 c 128,-1,21
 72 541 72 541 83 539.5 c 128,-1,22
 94 538 94 538 100.5 529 c 128,-1,23
 107 520 107 520 106 509 c 0,24,25
 100 472 100 472 96 426 c 1,26,27
 121 459 121 459 151 481 c 0,28,29
 207 522 207 522 261 517 c 0,30,31
 325 511 325 511 366 443 c 0,32,33
 416 363 416 363 411 222 c 0,34,35
 410 188 410 188 403 110 c 0,36,37
 397 42 397 42 397 8 c 0,38,39
 397 -3 397 -3 389 -11 c 128,-1,40
 381 -19 381 -19 370 -19 c 128,-1,41
 359 -19 359 -19 351 -11 c 128,-1,42
 343 -3 343 -3 343 8 c 0,43,44
 343 44 343 44 349 115 c 0,45,46
 356 201 356 201 357 224 c 0,47,48
 361 348 361 348 320 415 c 0,49,50
 293 459 293 459 256 463 c 0,51,52
 222 466 222 466 184 438 c 0,53,54
 145 409 145 409 118.5 362 c 128,-1,55
 92 315 92 315 92 275 c 0,56,57
 92 268 92 268 88 262 c 1,0,1
EndSplineSet
EndChar

StartChar: o
Encoding: 111 111 82
Width: 512
GlyphClass: 2
Flags: W
LayerCount: 2
Fore
SplineSet
193 461 m 1,0,1
 160 444 160 444 140 416 c 0,2,3
 100 360 100 360 81 269 c 0,4,5
 62 177 62 177 77 111 c 0,6,7
 90 59 90 59 142.5 29.5 c 128,-1,8
 195 0 195 0 250 12 c 0,9,10
 294 23 294 23 351 79 c 0,11,12
 392 120 392 120 410.5 177 c 128,-1,13
 429 234 429 234 421 291 c 128,-1,14
 413 348 413 348 379.5 391.5 c 128,-1,15
 346 435 346 435 288 453 c 0,16,17
 265 461 265 461 252 461.5 c 128,-1,18
 239 462 239 462 218 456 c 0,19,20
 204 452 204 452 193 461 c 1,0,1
264 514 m 1,21,22
 280 512 280 512 304 505 c 0,23,24
 378 482 378 482 421.5 426 c 128,-1,25
 465 370 465 370 475 298 c 0,26,27
 484 229 484 229 462 160 c 0,28,29
 439 92 439 92 389 41 c 0,30,31
 321 -27 321 -27 262 -40 c 0,32,33
 187 -58 187 -58 115 -17 c 128,-1,34
 43 24 43 24 25 99 c 0,35,36
 6 177 6 177 28 280 c 256,37,38
 50 383 50 383 96 448 c 0,39,40
 141 511 141 511 233 531 c 0,41,42
 243 534 243 534 252 529 c 128,-1,43
 261 524 261 524 264 514 c 1,21,22
EndSplineSet
EndChar

StartChar: p
Encoding: 112 112 83
Width: 513
GlyphClass: 2
Flags: W
LayerCount: 2
Fore
SplineSet
91 373 m 0,0,1
 86 222 86 222 85 156 c 1,2,3
 103 155 103 155 109 138 c 0,4,5
 122 105 122 105 150.5 83.5 c 128,-1,6
 179 62 179 62 218 55 c 0,7,8
 257 49 257 49 295 58.5 c 128,-1,9
 333 68 333 68 360 92 c 0,10,11
 405 132 405 132 419.5 207.5 c 128,-1,12
 434 283 434 283 413 353 c 0,13,14
 391 426 391 426 342 459 c 0,15,16
 288 495 288 495 211 471 c 0,17,18
 197 467 197 467 185 460.5 c 128,-1,19
 173 454 173 454 159.5 442.5 c 128,-1,20
 146 431 146 431 139.5 424.5 c 128,-1,21
 133 418 133 418 115.5 399 c 128,-1,22
 98 380 98 380 93 374 c 0,23,24
 92 374 92 374 91 373 c 0,0,1
85 72 m 1,25,26
 86 -52 86 -52 95 -157 c 0,27,28
 96 -168 96 -168 89 -176.5 c 128,-1,29
 82 -185 82 -185 70.5 -186 c 128,-1,30
 59 -187 59 -187 50.5 -180 c 128,-1,31
 42 -173 42 -173 41 -161 c 0,32,33
 34 -77 34 -77 32 27 c 128,-1,34
 30 131 30 131 31.5 191 c 128,-1,35
 33 251 33 251 37 378 c 1,36,-1
 37 414 l 2,37,38
 37 439 37 439 38 460 c 128,-1,39
 39 481 39 481 41 500 c 0,40,41
 43 511 43 511 51.5 517.5 c 128,-1,42
 60 524 60 524 71.5 522.5 c 128,-1,43
 83 521 83 521 89.5 512.5 c 128,-1,44
 96 504 96 504 95 492 c 0,45,46
 92 475 92 475 92 453 c 1,47,48
 144 507 144 507 195 523 c 0,49,50
 297 554 297 554 372 503 c 0,51,52
 437 460 437 460 464 368 c 0,53,54
 479 312 479 312 478.5 255 c 128,-1,55
 478 198 478 198 456.5 142 c 128,-1,56
 435 86 435 86 396 52 c 0,57,58
 359 19 359 19 309 6.5 c 128,-1,59
 259 -6 259 -6 209 2 c 0,60,61
 130 16 130 16 85 72 c 1,25,26
EndSplineSet
EndChar

StartChar: q
Encoding: 113 113 84
Width: 654
GlyphClass: 2
Flags: W
LayerCount: 2
Fore
SplineSet
356 81 m 1,0,1
 303 11 303 11 231 3 c 0,2,3
 143 -6 143 -6 78 52 c 0,4,5
 11 113 11 113 17 225 c 0,6,7
 22 325 22 325 80 411 c 0,8,9
 144 504 144 504 231 519 c 0,10,11
 325 536 325 536 411 452 c 1,12,13
 414 472 414 472 420 486 c 0,14,15
 421 489 421 489 422 491 c 128,-1,16
 423 493 423 493 425 495 c 0,17,18
 430 502 430 502 437 504 c 0,19,20
 453 510 453 510 465 497 c 0,21,22
 470 493 470 493 472 486 c 0,23,24
 473 482 473 482 473 478.5 c 128,-1,25
 473 475 473 475 472 467 c 0,26,27
 472 463 472 463 471 455.5 c 128,-1,28
 470 448 470 448 470 446 c 0,29,30
 468 427 468 427 458 361 c 2,31,-1
 439 256 l 2,32,33
 427 190 427 190 422 154 c 0,34,35
 421 145 421 145 412 89 c 0,36,37
 406 49 406 49 404 21 c 0,38,39
 398 -56 398 -56 419 -94 c 0,40,41
 454 -154 454 -154 497 -143 c 0,42,43
 517 -138 517 -138 536 -117.5 c 128,-1,44
 555 -97 555 -97 567 -64 c 0,45,46
 570 -53 570 -53 580.5 -48.5 c 128,-1,47
 591 -44 591 -44 601.5 -47.5 c 128,-1,48
 612 -51 612 -51 616.5 -61.5 c 128,-1,49
 621 -72 621 -72 617 -82 c 0,50,51
 602 -125 602 -125 574 -155.5 c 128,-1,52
 546 -186 546 -186 510 -195 c 0,53,54
 471 -205 471 -205 435 -185.5 c 128,-1,55
 399 -166 399 -166 373 -120 c 0,56,57
 343 -69 343 -69 350 25 c 0,58,59
 352 48 352 48 356 81 c 1,0,1
387 400 m 0,60,61
 314 479 314 479 241 466 c 0,62,63
 175 455 175 455 125 381 c 128,-1,64
 75 307 75 307 71 222 c 0,65,66
 66 135 66 135 114 92 c 0,67,68
 161 50 161 50 225 57 c 0,69,70
 300 65 300 65 351 178 c 0,71,72
 390 264 390 264 405 379 c 0,73,74
 406 384 406 384 407 391 c 1,75,76
 395 391 395 391 387 400 c 0,60,61
EndSplineSet
EndChar

StartChar: r
Encoding: 114 114 85
Width: 478
GlyphClass: 2
Flags: W
LayerCount: 2
Fore
SplineSet
138 24 m 2,0,1
 138 46 138 46 136.5 86 c 128,-1,2
 135 126 135 126 135 143 c 0,3,4
 135 166 135 166 135.5 214.5 c 128,-1,5
 136 263 136 263 134.5 287.5 c 128,-1,6
 133 312 133 312 128.5 348 c 128,-1,7
 124 384 124 384 110.5 411 c 128,-1,8
 97 438 97 438 75 462 c 0,9,10
 68 470 68 470 68 481 c 128,-1,11
 68 492 68 492 76.5 499.5 c 128,-1,12
 85 507 85 507 96 507 c 128,-1,13
 107 507 107 507 115 498 c 0,14,15
 157 453 157 453 175 387 c 1,16,17
 199 441 199 441 238 469 c 0,18,19
 282 497 282 497 332 488 c 0,20,21
 381 479 381 479 413 444 c 0,22,23
 450 404 450 404 442 352 c 0,24,25
 432 298 432 298 370 250 c 0,26,27
 361 244 361 244 350 245.5 c 128,-1,28
 339 247 339 247 332.5 256 c 128,-1,29
 326 265 326 265 327.5 276 c 128,-1,30
 329 287 329 287 338 294 c 0,31,32
 383 328 383 328 388 361 c 0,33,34
 393 387 393 387 373 408 c 0,35,36
 353 430 353 430 322 435 c 128,-1,37
 291 440 291 440 270 425 c 0,38,39
 224 392 224 392 205 302 c 0,40,41
 191 237 191 237 191 143 c 0,42,43
 191 123 191 123 191.5 83.5 c 128,-1,44
 192 44 192 44 192 24 c 2,45,-1
 192 18 l 1,46,-1
 192 13 l 1,47,-1
 192 -4 l 1,48,49
 162 -4 162 -4 149 4 c 0,50,51
 140 9 140 9 138 18 c 2,52,-1
 138 24 l 2,0,1
EndSplineSet
EndChar

StartChar: s
Encoding: 115 115 86
Width: 470
GlyphClass: 2
Flags: W
LayerCount: 2
Fore
SplineSet
355 394 m 0,0,1
 354 399 354 399 351 407.5 c 128,-1,2
 348 416 348 416 347 420 c 128,-1,3
 346 424 346 424 344 429 c 128,-1,4
 342 434 342 434 339.5 437.5 c 128,-1,5
 337 441 337 441 335 443 c 0,6,7
 316 460 316 460 287.5 463 c 128,-1,8
 259 466 259 466 229 453 c 0,9,10
 200 441 200 441 181.5 419.5 c 128,-1,11
 163 398 163 398 162 374 c 0,12,13
 161 347 161 347 187 329 c 0,14,15
 206 316 206 316 270 293 c 2,16,-1
 310 277 l 2,17,18
 326 271 326 271 350 257 c 128,-1,19
 374 243 374 243 388.5 228.5 c 128,-1,20
 403 214 403 214 416 191 c 128,-1,21
 429 168 429 168 433 140 c 0,22,23
 438 105 438 105 433 84 c 0,24,25
 428 58 428 58 406 30 c 0,26,27
 382 0 382 0 340 -15 c 128,-1,28
 298 -30 298 -30 256 -28.5 c 128,-1,29
 214 -27 214 -27 175 -15 c 0,30,31
 108 7 108 7 82 53 c 0,32,33
 51 109 51 109 96 173 c 0,34,35
 103 182 103 182 114 183.5 c 128,-1,36
 125 185 125 185 134 178.5 c 128,-1,37
 143 172 143 172 144.5 161 c 128,-1,38
 146 150 146 150 140 141 c 0,39,40
 115 106 115 106 130 79 c 128,-1,41
 145 52 145 52 192 36 c 0,42,43
 241 20 241 20 291.5 28 c 128,-1,44
 342 36 342 36 364 64 c 0,45,46
 378 81 378 81 380 94 c 0,47,48
 383 106 383 106 379 132 c 0,49,50
 373 174 373 174 342 197 c 0,51,52
 314 219 314 219 251 242 c 0,53,54
 181 268 181 268 157 284 c 0,55,56
 106 319 106 319 108 376 c 0,57,58
 110 419 110 419 138.5 453 c 128,-1,59
 167 487 167 487 209 504 c 0,60,61
 246 521 246 521 293 517 c 128,-1,62
 340 513 340 513 371 483 c 0,63,64
 378 477 378 477 383.5 469 c 128,-1,65
 389 461 389 461 392.5 451.5 c 128,-1,66
 396 442 396 442 398.5 436 c 128,-1,67
 401 430 401 430 403.5 421 c 128,-1,68
 406 412 406 412 407 410 c 0,69,70
 410 400 410 400 405 390 c 128,-1,71
 400 380 400 380 389.5 376.5 c 128,-1,72
 379 373 379 373 369 378 c 128,-1,73
 359 383 359 383 355 394 c 0,0,1
EndSplineSet
EndChar

StartChar: t
Encoding: 116 116 87
Width: 408
GlyphClass: 2
Flags: W
LayerCount: 2
Fore
SplineSet
1 491 m 2,0,-1
 9 483 l 1,1,-1
 14 478 l 1,2,-1
 17 475 l 1,3,4
 31 468 31 468 69 466 c 0,5,6
 76 465 76 465 82 465 c 1,7,8
 96 558 96 558 119 635 c 0,9,10
 122 646 122 646 132 651 c 128,-1,11
 142 656 142 656 153 653 c 128,-1,12
 164 650 164 650 169 640 c 128,-1,13
 174 630 174 630 171 619 c 0,14,15
 150 550 150 550 137 464 c 1,16,17
 145 464 145 464 155 465 c 0,18,19
 178 465 178 465 217.5 466.5 c 128,-1,20
 257 468 257 468 274 468 c 2,21,-1
 318 468 l 2,22,23
 329 468 329 468 336.5 459.5 c 128,-1,24
 344 451 344 451 344 440 c 128,-1,25
 344 429 344 429 335.5 421.5 c 128,-1,26
 327 414 327 414 316 414 c 0,27,28
 301 415 301 415 276 414 c 128,-1,29
 251 413 251 413 215.5 412 c 128,-1,30
 180 411 180 411 156 411 c 0,31,32
 143 410 143 410 130 410 c 1,33,34
 127 387 127 387 126 364 c 0,35,36
 115 202 115 202 153 119 c 0,37,38
 171 82 171 82 197.5 62 c 128,-1,39
 224 42 224 42 248 42 c 128,-1,40
 272 42 272 42 292 62 c 0,41,42
 311 81 311 81 319 127 c 0,43,44
 321 138 321 138 330.5 144.5 c 128,-1,45
 340 151 340 151 351 149 c 128,-1,46
 362 147 362 147 368.5 137.5 c 128,-1,47
 375 128 375 128 373 117 c 0,48,49
 362 56 362 56 328.5 22 c 128,-1,50
 295 -12 295 -12 248 -12 c 0,51,52
 205 -12 205 -12 166.5 17.5 c 128,-1,53
 128 47 128 47 105 97 c 0,54,55
 60 192 60 192 72 367 c 0,56,57
 73 389 73 389 76 411 c 1,58,59
 70 412 70 412 66 412 c 0,60,61
 18 415 18 415 -5 425 c 0,62,63
 -16 430 -16 430 -26 441 c 2,64,-1
 -32 447 l 2,65,66
 -34 450 -34 450 -35 451 c 0,67,68
 -43 459 -43 459 -43.5 470 c 128,-1,69
 -44 481 -44 481 -36.5 489 c 128,-1,70
 -29 497 -29 497 -18 497.5 c 128,-1,71
 -7 498 -7 498 1 491 c 2,0,-1
EndSplineSet
EndChar

StartChar: u
Encoding: 117 117 88
Width: 587
GlyphClass: 2
Flags: W
LayerCount: 2
Fore
SplineSet
159 467 m 0,0,1
 129 395 129 395 121 303 c 128,-1,2
 113 211 113 211 137 142 c 0,3,4
 149 112 149 112 178.5 92.5 c 128,-1,5
 208 73 208 73 246 67.5 c 128,-1,6
 284 62 284 62 319 72 c 128,-1,7
 354 82 354 82 375 106 c 0,8,9
 398 132 398 132 414 163 c 1,10,11
 413 181 413 181 413 200 c 0,12,13
 414 240 414 240 426 343 c 0,14,15
 431 380 431 380 434 399 c 0,16,17
 438 423 438 423 442 438 c 2,18,-1
 449 455 l 2,19,20
 457 470 457 470 472 473 c 0,21,22
 492 478 492 478 503 460 c 0,23,24
 505 455 505 455 507 449 c 0,25,26
 508 443 508 443 508 434 c 0,27,28
 509 421 509 421 508 399 c 0,29,30
 507 383 507 383 506 360.5 c 128,-1,31
 505 338 505 338 505 337 c 0,32,33
 501 225 501 225 469 153 c 1,34,35
 474 106 474 106 490 81 c 0,36,37
 495 74 495 74 499 73 c 2,38,-1
 504 73 l 1,39,-1
 512 73 l 1,40,-1
 526 73 l 2,41,42
 537 73 537 73 544.5 64.5 c 128,-1,43
 552 56 552 56 552 45 c 128,-1,44
 552 34 552 34 543.5 26.5 c 128,-1,45
 535 19 535 19 524 19 c 0,46,47
 490 20 490 20 488 20 c 0,48,49
 463 26 463 26 446 51 c 0,50,51
 435 66 435 66 428 86 c 1,52,53
 422 78 422 78 415 70 c 0,54,55
 383 35 383 35 335.5 21 c 128,-1,56
 288 7 288 7 239 14 c 0,57,58
 189 21 189 21 147.5 48.5 c 128,-1,59
 106 76 106 76 87 122 c 0,60,61
 67 170 67 170 66 240 c 0,62,63
 64 311 64 311 76.5 374.5 c 128,-1,64
 89 438 89 438 109 487 c 0,65,66
 113 498 113 498 123.5 502 c 128,-1,67
 134 506 134 506 144.5 502 c 128,-1,68
 155 498 155 498 159 487.5 c 128,-1,69
 163 477 163 477 159 467 c 0,0,1
EndSplineSet
EndChar

StartChar: v
Encoding: 118 118 89
Width: 549
GlyphClass: 2
Flags: W
LayerCount: 2
Fore
SplineSet
103 498 m 0,0,1
 106 445 106 445 150 331 c 0,2,3
 173 272 173 272 223 158 c 2,4,-1
 254 88 l 1,5,6
 259 122 259 122 269 152 c 0,7,8
 338 361 338 361 470 464 c 0,9,10
 479 471 479 471 490 469.5 c 128,-1,11
 501 468 501 468 508 459.5 c 128,-1,12
 515 451 515 451 513.5 440 c 128,-1,13
 512 429 512 429 504 422 c 0,14,15
 385 330 385 330 321 136 c 0,16,17
 308 96 308 96 302 44 c 1,18,-1
 302 39 l 2,19,20
 302 38 302 38 302.5 33.5 c 128,-1,21
 303 29 303 29 303 23 c 0,22,23
 304 -5 304 -5 289 -20 c 0,24,25
 279 -28 279 -28 267 -28 c 128,-1,26
 255 -28 255 -28 246 -19 c 0,27,28
 240 -13 240 -13 236 -2 c 0,29,30
 234 3 234 3 233 6.5 c 128,-1,31
 232 10 232 10 231.5 11.5 c 128,-1,32
 231 13 231 13 230 14 c 0,33,34
 214 43 214 43 173 136 c 0,35,36
 122 253 122 253 99 311 c 0,37,38
 53 432 53 432 49 494 c 0,39,40
 48 505 48 505 55.5 513.5 c 128,-1,41
 63 522 63 522 74 523 c 128,-1,42
 85 524 85 524 93.5 516.5 c 128,-1,43
 102 509 102 509 103 498 c 0,0,1
EndSplineSet
EndChar

StartChar: w
Encoding: 119 119 90
Width: 719
GlyphClass: 2
Flags: W
LayerCount: 2
Fore
SplineSet
103 493 m 0,0,1
 101 441 101 441 136 321 c 0,2,3
 164 224 164 224 198 143 c 0,4,5
 220 90 220 90 230 70 c 2,6,-1
 231 67 l 1,7,8
 234 83 234 83 239 117 c 0,9,10
 255 234 255 234 256 237 c 0,11,12
 263 265 263 265 300 353 c 2,13,-1
 327 417 l 2,14,15
 338 442 338 442 346 455 c 0,16,17
 351 464 351 464 355.5 469.5 c 128,-1,18
 360 475 360 475 365 478 c 0,19,20
 379 487 379 487 394 479 c 0,21,22
 414 468 414 468 414 440 c 0,23,24
 414 432 414 432 413 429 c 2,25,-1
 413 427 l 1,26,-1
 419 407 l 2,27,28
 425 388 425 388 426 384 c 0,29,30
 470 219 470 219 516 127 c 0,31,32
 521 117 521 117 542 82 c 1,33,34
 545 101 545 101 548 137 c 0,35,36
 551 193 551 193 555 216 c 0,37,38
 558 229 558 229 562 244 c 2,39,-1
 569 270 l 2,40,41
 572 282 572 282 578 300 c 2,42,-1
 588 326 l 2,43,44
 591 334 591 334 599.5 354.5 c 128,-1,45
 608 375 608 375 610 380 c 2,46,-1
 622 406 l 2,47,48
 632 428 632 428 632 430 c 0,49,50
 637 440 637 440 647.5 444 c 128,-1,51
 658 448 658 448 668 443.5 c 128,-1,52
 678 439 678 439 682 428.5 c 128,-1,53
 686 418 686 418 682 408 c 0,54,55
 681 405 681 405 672.5 386 c 128,-1,56
 664 367 664 367 662 363 c 128,-1,57
 660 359 660 359 652.5 342 c 128,-1,58
 645 325 645 325 642 318 c 2,59,-1
 634 296 l 2,60,61
 629 282 629 282 626 273 c 128,-1,62
 623 264 623 264 619.5 251.5 c 128,-1,63
 616 239 616 239 613.5 228 c 128,-1,64
 611 217 611 217 609 206 c 0,65,66
 605 187 605 187 602 134 c 0,67,68
 598 83 598 83 591 55 c 0,69,70
 591 53 591 53 590 49.5 c 128,-1,71
 589 46 589 46 589 45 c 0,72,73
 587 37 587 37 585 31 c 0,74,75
 577 8 577 8 559 0 c 0,76,77
 548 -4 548 -4 537 0 c 0,78,79
 533 2 533 2 529 5 c 0,80,81
 526 7 526 7 523 11 c 128,-1,82
 520 15 520 15 515 23 c 0,83,84
 507 34 507 34 496 54 c 0,85,86
 474 91 474 91 468 103 c 0,87,88
 420 200 420 200 374 370 c 0,89,90
 373 375 373 375 371 382 c 1,91,-1
 350 333 l 2,92,93
 314 248 314 248 308 223 c 2,94,-1
 304 201 l 2,95,96
 302 185 302 185 298.5 156.5 c 128,-1,97
 295 128 295 128 292 109 c 0,98,99
 286 64 286 64 281 39 c 0,100,101
 277 22 277 22 273 11 c 0,102,103
 266 -6 266 -6 256 -14 c 0,104,105
 236 -29 236 -29 216 -10 c 0,106,107
 210 -5 210 -5 203 6 c 0,108,109
 193 20 193 20 181 47 c 0,110,111
 171 67 171 67 148 123 c 0,112,113
 113 208 113 208 84 306 c 0,114,115
 47 433 47 433 49 495 c 0,116,117
 49 506 49 506 57.5 513.5 c 128,-1,118
 66 521 66 521 77 521 c 128,-1,119
 88 521 88 521 95.5 512.5 c 128,-1,120
 103 504 103 504 103 493 c 0,0,1
EndSplineSet
EndChar

StartChar: x
Encoding: 120 120 91
Width: 576
GlyphClass: 2
Flags: W
LayerCount: 2
Fore
SplineSet
105 514 m 2,0,-1
 255 333 l 2,1,2
 271 313 271 313 289 286 c 1,3,-1
 316 307 l 2,4,5
 346 329 346 329 383 350.5 c 128,-1,6
 420 372 420 372 442.5 390.5 c 128,-1,7
 465 409 465 409 492 445 c 0,8,9
 499 454 499 454 510 455.5 c 128,-1,10
 521 457 521 457 530 450.5 c 128,-1,11
 539 444 539 444 540.5 433 c 128,-1,12
 542 422 542 422 536 413 c 0,13,14
 505 373 505 373 476.5 349.5 c 128,-1,15
 448 326 448 326 409 303 c 0,16,17
 372 281 372 281 348 263 c 2,18,-1
 319 241 l 1,19,-1
 322 236 l 2,20,21
 362 173 362 173 385 144 c 0,22,23
 399 127 399 127 423 102 c 2,24,-1
 465 59 l 2,25,26
 472 51 472 51 472 40 c 128,-1,27
 472 29 472 29 463.5 21.5 c 128,-1,28
 455 14 455 14 444 14 c 128,-1,29
 433 14 433 14 425 23 c 2,30,-1
 384 64 l 2,31,32
 358 91 358 91 343 110 c 0,33,34
 318 141 318 141 276 207 c 1,35,36
 174 124 174 124 93 31 c 0,37,38
 86 23 86 23 75 22 c 128,-1,39
 64 21 64 21 55.5 28.5 c 128,-1,40
 47 36 47 36 46 47 c 128,-1,41
 45 58 45 58 53 67 c 0,42,43
 135 163 135 163 246 253 c 1,44,45
 229 279 229 279 213 299 c 2,46,-1
 63 480 l 2,47,48
 56 489 56 489 57 500 c 128,-1,49
 58 511 58 511 67 518 c 128,-1,50
 76 525 76 525 87 524 c 128,-1,51
 98 523 98 523 105 514 c 2,0,-1
EndSplineSet
EndChar

StartChar: y
Encoding: 121 121 92
Width: 523
GlyphClass: 2
Flags: W
LayerCount: 2
Fore
SplineSet
142 488 m 0,0,1
 142 486 142 486 145 461.5 c 128,-1,2
 148 437 148 437 149.5 423.5 c 128,-1,3
 151 410 151 410 155 382 c 128,-1,4
 159 354 159 354 163 333 c 128,-1,5
 167 312 167 312 173.5 285.5 c 128,-1,6
 180 259 180 259 187 236 c 0,7,8
 211 157 211 157 242.5 121 c 128,-1,9
 274 85 274 85 313.5 97 c 128,-1,10
 353 109 353 109 372 168 c 1,11,-1
 372 170 l 1,12,-1
 392 265 l 2,13,14
 392 268 392 268 394 282 c 128,-1,15
 396 296 396 296 399.5 317.5 c 128,-1,16
 403 339 403 339 407 357 c 0,17,18
 413 394 413 394 419 414 c 0,19,20
 423 428 423 428 428 436 c 0,21,22
 432 444 432 444 438 449 c 0,23,24
 454 460 454 460 471 450 c 0,25,26
 496 435 496 435 486 401 c 0,27,28
 485 398 485 398 482 387 c 0,29,30
 480 382 480 382 480 380 c 0,31,32
 476 359 476 359 464 325 c 0,33,34
 452 289 452 289 449 276 c 0,35,36
 447 268 447 268 439 219 c 0,37,38
 432 182 432 182 425 158 c 0,39,40
 384 -43 384 -43 328 -122 c 0,41,42
 301 -160 301 -160 262.5 -178.5 c 128,-1,43
 224 -197 224 -197 186.5 -196 c 128,-1,44
 149 -195 149 -195 116 -178 c 0,45,46
 82 -161 82 -161 61.5 -131.5 c 128,-1,47
 41 -102 41 -102 39 -63 c 128,-1,48
 37 -24 37 -24 62 19 c 0,49,50
 67 28 67 28 78 31 c 128,-1,51
 89 34 89 34 98.5 28.5 c 128,-1,52
 108 23 108 23 111 12 c 128,-1,53
 114 1 114 1 108 -9 c 0,54,55
 86 -52 86 -52 96.5 -82.5 c 128,-1,56
 107 -113 107 -113 140 -130 c 0,57,58
 162 -141 162 -141 187 -142 c 128,-1,59
 212 -143 212 -143 238.5 -130 c 128,-1,60
 265 -117 265 -117 284 -90 c 0,61,62
 318 -43 318 -43 344 51 c 1,63,64
 337 48 337 48 329 45 c 0,65,66
 256 23 256 23 201 85 c 0,67,68
 162 130 162 130 135 220 c 0,69,70
 128 244 128 244 121.5 272.5 c 128,-1,71
 115 301 115 301 110.5 323 c 128,-1,72
 106 345 106 345 102 374 c 2,73,-1
 96 417 l 2,74,75
 94 431 94 431 91 455.5 c 128,-1,76
 88 480 88 480 88 482 c 0,77,78
 87 493 87 493 94 501.5 c 128,-1,79
 101 510 101 510 112 511.5 c 128,-1,80
 123 513 123 513 131.5 506 c 128,-1,81
 140 499 140 499 142 488 c 0,0,1
EndSplineSet
EndChar

StartChar: z
Encoding: 122 122 93
Width: 515
GlyphClass: 2
Flags: W
LayerCount: 2
Fore
SplineSet
76 473 m 0,0,1
 117 476 117 476 212 476 c 0,2,3
 296 476 296 476 368 467 c 0,4,5
 410 462 410 462 432 455 c 0,6,7
 447 450 447 450 456 444 c 0,8,9
 476 429 476 429 471 408 c 0,10,11
 469 397 469 397 460 386 c 0,12,13
 454 380 454 380 444 372 c 0,14,15
 430 361 430 361 406 344 c 2,16,-1
 368 320 l 2,17,18
 344 305 344 305 341 302 c 0,19,20
 267 250 267 250 188 165 c 0,21,22
 176 152 176 152 135 99 c 2,23,-1
 130 92 l 1,24,25
 153 95 153 95 165 95 c 0,26,27
 221 95 221 95 312 85 c 0,28,29
 430 72 430 72 455 70 c 0,30,31
 466 69 466 69 473.5 60.5 c 128,-1,32
 481 52 481 52 480 41 c 128,-1,33
 479 30 479 30 470.5 22.5 c 128,-1,34
 462 15 462 15 451 16 c 0,35,36
 425 18 425 18 306 31 c 0,37,38
 214 41 214 41 165 41 c 0,39,40
 153 41 153 41 114 35 c 0,41,42
 94 31 94 31 88 31 c 0,43,44
 82 30 82 30 78 30 c 0,45,46
 74 29 74 29 71 30 c 0,47,48
 68 30 68 30 65 31 c 0,49,50
 56 34 56 34 51 41 c 0,51,52
 47 47 47 47 46 53 c 128,-1,53
 45 59 45 59 46 62 c 2,54,-1
 47 65 l 2,55,56
 48 68 48 68 49.5 70.5 c 128,-1,57
 51 73 51 73 53 77 c 0,58,59
 56 82 56 82 63 91 c 2,60,-1
 92 131 l 2,61,62
 134 186 134 186 148 201 c 0,63,64
 230 291 230 291 309 346 c 0,65,66
 313 349 313 349 337 364 c 2,67,-1
 376 389 l 2,68,69
 392 400 392 400 401 407 c 1,70,71
 385 411 385 411 361 414 c 0,72,73
 294 422 294 422 212 422 c 0,74,75
 119 422 119 422 80 419 c 0,76,77
 69 418 69 418 60.5 425.5 c 128,-1,78
 52 433 52 433 51 444 c 128,-1,79
 50 455 50 455 57.5 463.5 c 128,-1,80
 65 472 65 472 76 473 c 0,0,1
EndSplineSet
EndChar

StartChar: braceleft
Encoding: 123 123 94
Width: 468
GlyphClass: 2
Flags: W
LayerCount: 2
Fore
SplineSet
353 619 m 0,0,1
 293 627 293 627 270 607 c 0,2,3
 253 592 253 592 251 551 c 0,4,5
 250 534 250 534 256 455 c 0,6,7
 261 388 261 388 251 353 c 0,8,9
 238 311 238 311 193 288 c 0,10,11
 188 285 188 285 182 282 c 1,12,-1
 185 278 l 2,13,14
 197 264 197 264 203 255 c 0,15,16
 215 238 215 238 217 227 c 0,17,18
 219 213 219 213 220 200 c 128,-1,19
 221 187 221 187 220.5 171.5 c 128,-1,20
 220 156 220 156 220 147 c 128,-1,21
 220 138 220 138 218.5 120.5 c 128,-1,22
 217 103 217 103 216 98 c 0,23,24
 212 27 212 27 228 -20 c 0,25,26
 247 -72 247 -72 266 -90 c 0,27,28
 303 -124 303 -124 340 -122 c 0,29,30
 372 -120 372 -120 379 -79 c 0,31,32
 381 -68 381 -68 390.5 -61.5 c 128,-1,33
 400 -55 400 -55 411 -57 c 128,-1,34
 422 -59 422 -59 428.5 -68.5 c 128,-1,35
 435 -78 435 -78 433 -89 c 0,36,37
 425 -129 425 -129 401 -151.5 c 128,-1,38
 377 -174 377 -174 343 -176 c 0,39,40
 283 -180 283 -180 230 -130 c 0,41,42
 201 -103 201 -103 178 -38 c 0,43,44
 157 19 157 19 162 101 c 0,45,46
 163 108 163 108 164.5 125.5 c 128,-1,47
 166 143 166 143 166 150.5 c 128,-1,48
 166 158 166 158 166.5 171.5 c 128,-1,49
 167 185 167 185 166 195.5 c 128,-1,50
 165 206 165 206 163 217 c 2,51,-1
 159 224 l 2,52,53
 154 231 154 231 143 244 c 2,54,-1
 127 264 l 1,55,-1
 120 274 l 2,56,57
 118 277 118 277 117 280 c 0,58,59
 112 292 112 292 118 303 c 0,60,61
 124 316 124 316 145 325 c 0,62,63
 167 335 167 335 168 335 c 0,64,65
 193 349 193 349 199 369 c 0,66,67
 206 394 206 394 202 451 c 0,68,69
 196 535 196 535 197 553 c 0,70,71
 200 617 200 617 235 647 c 0,72,73
 275 684 275 684 359 673 c 0,74,75
 371 671 371 671 377.5 662.5 c 128,-1,76
 384 654 384 654 382.5 642.5 c 128,-1,77
 381 631 381 631 372.5 624.5 c 128,-1,78
 364 618 364 618 353 619 c 0,0,1
EndSplineSet
EndChar

StartChar: bar
Encoding: 124 124 95
Width: 319
GlyphClass: 2
Flags: W
LayerCount: 2
Fore
SplineSet
277 726 m 0,0,1
 260 694 260 694 262 609 c 0,2,3
 262 583 262 583 264.5 536 c 128,-1,4
 267 489 267 489 267 471 c 0,5,6
 267 420 267 420 273 328 c 0,7,8
 279 238 279 238 280 203 c 0,9,10
 284 73 284 73 284 -200 c 0,11,12
 284 -211 284 -211 276 -219 c 128,-1,13
 268 -227 268 -227 257 -227 c 128,-1,14
 246 -227 246 -227 238 -219 c 128,-1,15
 230 -211 230 -211 230 -200 c 0,16,17
 230 72 230 72 226 201 c 0,18,19
 225 237 225 237 219 328 c 0,20,21
 213 420 213 420 213 471 c 0,22,23
 213 489 213 489 210.5 536 c 128,-1,24
 208 583 208 583 208 608 c 0,25,26
 206 706 206 706 229 750 c 0,27,28
 234 760 234 760 245 763.5 c 128,-1,29
 256 767 256 767 265.5 762 c 128,-1,30
 275 757 275 757 278.5 746 c 128,-1,31
 282 735 282 735 277 726 c 0,0,1
EndSplineSet
EndChar

StartChar: braceright
Encoding: 125 125 96
Width: 391
GlyphClass: 2
Flags: W
LayerCount: 2
Fore
SplineSet
120 653 m 0,0,1
 182 691 182 691 234 658 c 0,2,3
 281 628 281 628 291 559 c 0,4,5
 296 524 296 524 279 439 c 0,6,7
 266 373 266 373 274 340 c 0,8,9
 278 326 278 326 291 307 c 0,10,11
 305 286 305 286 309 284 c 1,12,-1
 308 286 l 1,13,-1
 312 286 l 1,14,-1
 316 286 l 2,15,16
 325 287 325 287 333 285 c 0,17,18
 352 280 352 280 355 260 c 0,19,20
 361 235 361 235 333 220 c 0,21,22
 326 217 326 217 326 216 c 0,23,24
 319 207 319 207 317 186 c 2,25,-1
 317 180 l 2,26,27
 316 165 316 165 319 114 c 0,28,29
 323 46 323 46 323 22 c 0,30,31
 324 -34 324 -34 315 -69 c 0,32,33
 302 -121 302 -121 268 -138 c 0,34,35
 247 -149 247 -149 209 -150 c 2,36,-1
 182 -150 l 1,37,-1
 161 -150 l 2,38,39
 150 -151 150 -151 141.5 -143.5 c 128,-1,40
 133 -136 133 -136 132 -125 c 128,-1,41
 131 -114 131 -114 138.5 -105.5 c 128,-1,42
 146 -97 146 -97 157 -96 c 0,43,44
 166 -95 166 -95 183 -96 c 2,45,-1
 208 -96 l 2,46,47
 234 -95 234 -95 244 -90 c 0,48,49
 256 -84 256 -84 263 -56 c 128,-1,50
 270 -28 270 -28 269 21 c 0,51,52
 269 50 269 50 265 110 c 0,53,54
 262 164 262 164 263 184 c 0,55,56
 263 185 263 185 263.5 190.5 c 128,-1,57
 264 196 264 196 264 198 c 128,-1,58
 264 200 264 200 264.5 205 c 128,-1,59
 265 210 265 210 265.5 212.5 c 128,-1,60
 266 215 266 215 267 219.5 c 128,-1,61
 268 224 268 224 270 227 c 2,62,-1
 273 234 l 2,63,64
 275 238 275 238 278 242 c 1,65,66
 262 254 262 254 246 277 c 0,67,68
 228 303 228 303 222 326 c 0,69,70
 210 371 210 371 226 450 c 0,71,72
 241 523 241 523 237 551 c 0,73,74
 231 596 231 596 205 613 c 0,75,76
 182 628 182 628 148 607 c 0,77,78
 139 601 139 601 128 603.5 c 128,-1,79
 117 606 117 606 111 615.5 c 128,-1,80
 105 625 105 625 107.5 636 c 128,-1,81
 110 647 110 647 120 653 c 0,0,1
EndSplineSet
EndChar

StartChar: asciitilde
Encoding: 126 126 97
Width: 558
GlyphClass: 2
Flags: W
LayerCount: 2
Fore
SplineSet
96 568 m 0,0,1
 88 646 88 646 138 685 c 0,2,3
 185 721 185 721 260 703 c 0,4,5
 270 701 270 701 280 697 c 128,-1,6
 290 693 290 693 300.5 686.5 c 128,-1,7
 311 680 311 680 316.5 677 c 128,-1,8
 322 674 322 674 334 665.5 c 128,-1,9
 346 657 346 657 348 656 c 0,10,11
 386 629 386 629 413 631 c 0,12,13
 431 632 431 632 442.5 640.5 c 128,-1,14
 454 649 454 649 476 673 c 0,15,16
 484 681 484 681 495.5 681 c 128,-1,17
 507 681 507 681 515 673.5 c 128,-1,18
 523 666 523 666 523 654.5 c 128,-1,19
 523 643 523 643 516 635 c 0,20,21
 515 635 515 635 508.5 628 c 128,-1,22
 502 621 502 621 501 620 c 2,23,-1
 494 613 l 2,24,25
 488 607 488 607 485.5 605.5 c 128,-1,26
 483 604 483 604 476.5 599 c 128,-1,27
 470 594 470 594 466 592 c 2,28,-1
 456 586 l 2,29,30
 450 583 450 583 444.5 582 c 128,-1,31
 439 581 439 581 431.5 579.5 c 128,-1,32
 424 578 424 578 417 577 c 0,33,34
 371 574 371 574 317 611 c 0,35,36
 314 614 314 614 302 622 c 128,-1,37
 290 630 290 630 286.5 632.5 c 128,-1,38
 283 635 283 635 275 639.5 c 128,-1,39
 267 644 267 644 260.5 646.5 c 128,-1,40
 254 649 254 649 248 651 c 0,41,42
 197 663 197 663 171 642 c 0,43,44
 145 622 145 622 150 574 c 0,45,46
 151 563 151 563 144 554 c 128,-1,47
 137 545 137 545 126 544 c 128,-1,48
 115 543 115 543 106 550 c 128,-1,49
 97 557 97 557 96 568 c 0,0,1
EndSplineSet
EndChar

StartChar: uni13A0
Encoding: 5024 5024 98
Width: 775
GlyphClass: 2
Flags: W
LayerCount: 2
Fore
SplineSet
26 704 m 0,0,1
 103 737 103 737 300 728 c 0,2,3
 498 719 498 719 569 679 c 0,4,5
 615 653 615 653 653 605 c 128,-1,6
 691 557 691 557 711.5 501.5 c 128,-1,7
 732 446 732 446 739.5 386 c 128,-1,8
 747 326 747 326 732 275 c 0,9,10
 720 229 720 229 685 183.5 c 128,-1,11
 650 138 650 138 608 110 c 0,12,13
 578 91 578 91 486 63 c 0,14,15
 461 55 461 55 361 29 c 0,16,17
 297 12 297 12 225 17 c 1,18,19
 217 5 217 5 203 5 c 0,20,21
 185 5 185 5 178 22 c 1,22,23
 147 27 147 27 112 35 c 0,24,25
 101 37 101 37 95 46.5 c 128,-1,26
 89 56 89 56 91.5 67 c 128,-1,27
 94 78 94 78 103.5 84 c 128,-1,28
 113 90 113 90 124 87 c 0,29,30
 151 81 151 81 175 77 c 1,31,32
 174 95 174 95 172 127 c 0,33,34
 168 194 168 194 168 225 c 0,35,36
 167 267 167 267 168.5 371 c 128,-1,37
 170 475 170 475 168 517 c 0,38,39
 167 537 167 537 162 592 c 0,40,41
 157 646 157 646 158 673 c 1,42,43
 80 668 80 668 48 654 c 0,44,45
 37 650 37 650 27 654 c 128,-1,46
 17 658 17 658 12.5 668.5 c 128,-1,47
 8 679 8 679 12 689 c 128,-1,48
 16 699 16 699 26 704 c 0,0,1
212 671 m 2,49,50
 211 644 211 644 216 598 c 0,51,52
 221 542 221 542 222 519 c 0,53,54
 224 476 224 476 222 372 c 0,55,56
 221 267 221 267 222 225 c 0,57,58
 222 204 222 204 226 130 c 0,59,60
 228 93 228 93 229 71 c 1,61,62
 294 67 294 67 347 81 c 0,63,64
 448 108 448 108 470 115 c 0,65,66
 554 140 554 140 578 156 c 0,67,68
 613 178 613 178 642 215.5 c 128,-1,69
 671 253 671 253 680 289 c 0,70,71
 692 331 692 331 685.5 382.5 c 128,-1,72
 679 434 679 434 661 481.5 c 128,-1,73
 643 529 643 529 611.5 569.5 c 128,-1,74
 580 610 580 610 543 631 c 0,75,76
 515 647 515 647 447.5 658.5 c 128,-1,77
 380 670 380 670 298 674 c 0,78,79
 254 676 254 676 212 675 c 1,80,-1
 212 671 l 2,49,50
EndSplineSet
EndChar

StartChar: uni13A1
Encoding: 5025 5025 99
Width: 799
GlyphClass: 2
Flags: W
LayerCount: 2
Fore
SplineSet
30 721 m 0,0,1
 34 721 34 721 53.5 725 c 128,-1,2
 73 729 73 729 82.5 730.5 c 128,-1,3
 92 732 92 732 108 734 c 0,4,5
 125 735 125 735 139 734 c 0,6,7
 170 732 170 732 205 720 c 0,8,9
 213 720 213 720 220 715 c 2,10,-1
 254 703 l 2,11,12
 267 698 267 698 298 688.5 c 128,-1,13
 329 679 329 679 355.5 669.5 c 128,-1,14
 382 660 382 660 404 650 c 0,15,16
 495 607 495 607 523 527 c 0,17,18
 529 511 529 511 531 490 c 0,19,20
 534 464 534 464 529 448 c 0,21,22
 520 424 520 424 477 399 c 0,23,24
 462 390 462 390 444 382 c 1,25,26
 456 373 456 373 466 361 c 0,27,28
 479 345 479 345 488 327 c 128,-1,29
 497 309 497 309 502.5 286 c 128,-1,30
 508 263 508 263 510 251 c 128,-1,31
 512 239 512 239 514.5 210.5 c 128,-1,32
 517 182 517 182 517 178 c 0,33,34
 522 130 522 130 537 101 c 128,-1,35
 552 72 552 72 589 54 c 0,36,37
 629 36 629 36 654 41 c 0,38,39
 673 44 673 44 685 63 c 0,40,41
 710 101 710 101 710 188 c 0,42,43
 710 199 710 199 718 207 c 128,-1,44
 726 215 726 215 737 215 c 128,-1,45
 748 215 748 215 756 207 c 128,-1,46
 764 199 764 199 764 188 c 0,47,48
 764 85 764 85 730 33 c 0,49,50
 705 -4 705 -4 664 -12 c 0,51,52
 622 -20 622 -20 567 6 c 0,53,54
 537 19 537 19 517 38 c 128,-1,55
 497 57 497 57 486.5 81 c 128,-1,56
 476 105 476 105 471 125 c 128,-1,57
 466 145 466 145 463 172 c 0,58,59
 463 180 463 180 460.5 207.5 c 128,-1,60
 458 235 458 235 456.5 244 c 128,-1,61
 455 253 455 253 451 272 c 128,-1,62
 447 291 447 291 440 303 c 0,63,64
 434 315 434 315 424 327 c 0,65,66
 406 349 406 349 371 353 c 1,67,68
 342 344 342 344 319 340 c 0,69,70
 300 336 300 336 286 337 c 0,71,72
 262 337 262 337 251 352 c 0,73,74
 243 363 243 363 245 375 c 0,75,76
 248 388 248 388 259 396 c 0,77,78
 267 400 267 400 279 402 c 0,79,80
 283 402 283 402 292 403 c 0,81,82
 298 403 298 403 300 404 c 0,83,84
 336 410 336 410 365 408 c 1,85,-1
 380 413 l 2,86,87
 421 429 421 429 450 445 c 0,88,89
 460 451 460 451 466.5 456 c 128,-1,90
 473 461 473 461 475 464 c 2,91,-1
 477 466 l 2,92,93
 479 470 479 470 478 485 c 0,94,95
 476 499 476 499 473 509 c 0,96,97
 452 567 452 567 381 601 c 0,98,99
 360 611 360 611 336 619 c 2,100,-1
 283 636 l 1,101,-1
 236 651 l 1,102,-1
 233 652 l 1,103,104
 237 571 237 571 231 362 c 0,105,106
 230 337 230 337 229 278 c 128,-1,107
 228 219 228 219 227 185 c 128,-1,108
 226 151 226 151 222 101.5 c 128,-1,109
 218 52 218 52 212 11 c 0,110,111
 210 0 210 0 201 -6.5 c 128,-1,112
 192 -13 192 -13 181 -11.5 c 128,-1,113
 170 -10 170 -10 163.5 -1 c 128,-1,114
 157 8 157 8 158 19 c 0,115,116
 165 59 165 59 168.5 106.5 c 128,-1,117
 172 154 172 154 173 187 c 128,-1,118
 174 220 174 220 175 278 c 0,119,120
 176 328 176 328 177 364 c 0,121,122
 184 585 184 585 178 672 c 1,123,124
 156 679 156 679 135 680 c 0,125,126
 124 681 124 681 111.5 680 c 128,-1,127
 99 679 99 679 91 678 c 2,128,-1
 65 672 l 2,129,130
 47 669 47 669 40 667 c 0,131,132
 29 665 29 665 20 671.5 c 128,-1,133
 11 678 11 678 8.5 689 c 128,-1,134
 6 700 6 700 12.5 709 c 128,-1,135
 19 718 19 718 30 721 c 0,0,1
EndSplineSet
EndChar

StartChar: uni13A2
Encoding: 5026 5026 100
Width: 710
GlyphClass: 2
Flags: W
LayerCount: 2
Fore
SplineSet
20 681 m 0,0,1
 122 702 122 702 225.5 712.5 c 128,-1,2
 329 723 329 723 449.5 717 c 128,-1,3
 570 711 570 711 657 683 c 0,4,5
 667 679 667 679 672 669 c 128,-1,6
 677 659 677 659 673.5 648.5 c 128,-1,7
 670 638 670 638 660 633 c 128,-1,8
 650 628 650 628 639 631 c 0,9,10
 534 666 534 666 374 665 c 1,11,12
 379 562 379 562 375 353 c 0,13,14
 371 117 371 117 373 23 c 0,15,16
 373 12 373 12 365.5 3.5 c 128,-1,17
 358 -5 358 -5 347 -5 c 128,-1,18
 336 -5 336 -5 327.5 2.5 c 128,-1,19
 319 10 319 10 319 21 c 0,20,21
 317 117 317 117 321 354 c 0,22,23
 325 562 325 562 320 664 c 1,24,25
 178 658 178 658 30 629 c 0,26,27
 19 626 19 626 10 632.5 c 128,-1,28
 1 639 1 639 -1.5 650 c 128,-1,29
 -4 661 -4 661 2.5 670 c 128,-1,30
 9 679 9 679 20 681 c 0,0,1
EndSplineSet
EndChar

StartChar: uni13A3
Encoding: 5027 5027 101
Width: 750
GlyphClass: 2
Flags: W
LayerCount: 2
Fore
SplineSet
183 314 m 1,0,1
 133 300 133 300 106.5 255.5 c 128,-1,2
 80 211 80 211 83 157 c 0,3,4
 86 101 86 101 118 69 c 0,5,6
 153 34 153 34 210 42 c 0,7,8
 272 50 272 50 301 94 c 128,-1,9
 330 138 330 138 322 193 c 0,10,11
 314 242 314 242 278 276.5 c 128,-1,12
 242 311 242 311 183 314 c 1,0,1
202 703 m 0,13,14
 226 710 226 710 254 713.5 c 128,-1,15
 282 717 282 717 313.5 719 c 128,-1,16
 345 721 345 721 361 723 c 0,17,18
 365 723 365 723 374 724 c 0,19,20
 416 730 416 730 439.5 732.5 c 128,-1,21
 463 735 463 735 500.5 737.5 c 128,-1,22
 538 740 538 740 570.5 739 c 128,-1,23
 603 738 603 738 635 734 c 0,24,25
 646 732 646 732 652.5 723 c 128,-1,26
 659 714 659 714 657.5 703 c 128,-1,27
 656 692 656 692 647 685.5 c 128,-1,28
 638 679 638 679 627 680 c 0,29,30
 552 691 552 691 433 677 c 0,31,32
 433 675 433 675 434 673 c 0,33,34
 447 579 447 579 446 503 c 1,35,36
 523 495 523 495 587.5 450 c 128,-1,37
 652 405 652 405 687 332.5 c 128,-1,38
 722 260 722 260 714 179 c 0,39,40
 709 132 709 132 676.5 88 c 128,-1,41
 644 44 644 44 598 15 c 0,42,43
 567 -4 567 -4 534.5 -14 c 128,-1,44
 502 -24 502 -24 465.5 -21.5 c 128,-1,45
 429 -19 429 -19 400 -1 c 0,46,47
 390 5 390 5 387.5 16 c 128,-1,48
 385 27 385 27 391 36.5 c 128,-1,49
 397 46 397 46 408 48.5 c 128,-1,50
 419 51 419 51 428 45 c 0,51,52
 456 28 456 28 493.5 32.5 c 128,-1,53
 531 37 531 37 569 61 c 0,54,55
 607 84 607 84 632 118 c 128,-1,56
 657 152 657 152 660 185 c 0,57,58
 665 236 665 236 648 283 c 0,59,60
 632 331 632 331 600 365.5 c 128,-1,61
 568 400 568 400 524.5 424 c 128,-1,62
 481 448 481 448 432 450 c 128,-1,63
 383 452 383 452 333 436 c 0,64,65
 289 419 289 419 242 371 c 1,66,67
 246 370 246 370 252 370 c 2,68,-1
 261 370 l 2,69,70
 272 370 272 370 279.5 361.5 c 128,-1,71
 287 353 287 353 287 342 c 0,72,73
 287 340 287 340 286 338 c 0,74,75
 323 315 323 315 345.5 279 c 128,-1,76
 368 243 368 243 375 202 c 0,77,78
 382 154 382 154 368 109 c 128,-1,79
 354 64 354 64 315 30 c 128,-1,80
 276 -4 276 -4 218 -12 c 0,81,82
 133 -23 133 -23 80 31 c 0,83,84
 34 78 34 78 29 154 c 0,85,86
 26 209 26 209 49 261.5 c 128,-1,87
 72 314 72 314 118 344 c 1,88,89
 120 353 120 353 126.5 359.5 c 128,-1,90
 133 366 133 366 142 367 c 0,91,92
 158 369 158 369 173 368 c 1,93,94
 174 376 174 376 180 383 c 0,95,96
 247 461 247 461 313 486 c 0,97,98
 352 501 352 501 392 504 c 1,99,100
 393 576 393 576 380 665 c 1,101,-1
 380 671 l 1,102,-1
 367 669 l 2,103,104
 346 666 346 666 315.5 664.5 c 128,-1,105
 285 663 285 663 261.5 660 c 128,-1,106
 238 657 238 657 216 651 c 0,107,108
 206 648 206 648 196 653.5 c 128,-1,109
 186 659 186 659 183 669.5 c 128,-1,110
 180 680 180 680 185.5 690 c 128,-1,111
 191 700 191 700 202 703 c 0,13,14
EndSplineSet
EndChar

StartChar: uni13A4
Encoding: 5028 5028 102
Width: 975
GlyphClass: 2
Flags: W
LayerCount: 2
Fore
SplineSet
710 338 m 1,0,1
 700 303 700 303 667 237 c 0,2,3
 631 167 631 167 580 118 c 0,4,5
 528 69 528 69 466 47 c 0,6,7
 329 0 329 0 196 99 c 0,8,9
 117 158 117 158 92 235 c 0,10,11
 60 332 60 332 94 443 c 0,12,13
 129 554 129 554 206 630 c 0,14,15
 289 711 289 711 386 716 c 0,16,17
 496 721 496 721 588 622 c 0,18,19
 652 553 652 553 674 480 c 1,20,21
 695 485 695 485 704 465 c 0,22,23
 718 431 718 431 718 395 c 1,24,25
 779 359 779 359 822 377 c 0,26,27
 845 386 845 386 861 410 c 128,-1,28
 877 434 877 434 883 467 c 0,29,30
 889 499 889 499 884 530 c 0,31,32
 878 561 878 561 862 580 c 0,33,34
 826 625 826 625 752 596 c 0,35,36
 741 592 741 592 731 596.5 c 128,-1,37
 721 601 721 601 717 611.5 c 128,-1,38
 713 622 713 622 717.5 632 c 128,-1,39
 722 642 722 642 732 646 c 0,40,41
 790 667 790 667 833 658 c 128,-1,42
 876 649 876 649 904 614 c 0,43,44
 928 584 928 584 936.5 540 c 128,-1,45
 945 496 945 496 936 457 c 0,46,47
 928 413 928 413 904 377.5 c 128,-1,48
 880 342 880 342 842 327 c 0,49,50
 783 302 783 302 710 338 c 1,0,1
660 369 m 1,51,52
 649 369 649 369 641 376.5 c 128,-1,53
 633 384 633 384 633 395 c 2,54,-1
 633 397 l 2,55,56
 631 403 631 403 632 408 c 0,57,58
 626 502 626 502 548 586 c 0,59,60
 474 666 474 666 389 662 c 0,61,62
 313 658 313 658 244 591 c 0,63,64
 176 525 176 525 146.5 428.5 c 128,-1,65
 117 332 117 332 144 251 c 0,66,67
 163 191 163 191 228 143 c 0,68,69
 338 60 338 60 449 98 c 0,70,71
 500 116 500 116 544 158 c 128,-1,72
 588 200 588 200 619 261 c 0,73,74
 655 332 655 332 662 368 c 1,75,-1
 660 369 l 1,51,52
EndSplineSet
EndChar

StartChar: uni13A5
Encoding: 5029 5029 103
Width: 243
GlyphClass: 2
Flags: W
LayerCount: 2
Fore
SplineSet
206 498 m 0,0,1
 192 275 192 275 192 55 c 0,2,3
 192 44 192 44 184 36 c 128,-1,4
 176 28 176 28 165 28 c 128,-1,5
 154 28 154 28 146 36 c 128,-1,6
 138 44 138 44 138 55 c 0,7,8
 138 277 138 277 152 502 c 0,9,10
 153 513 153 513 161.5 520.5 c 128,-1,11
 170 528 170 528 181 527 c 128,-1,12
 192 526 192 526 199.5 517.5 c 128,-1,13
 207 509 207 509 206 498 c 0,0,1
208 682 m 128,-1,15
 208 671 208 671 200 663 c 128,-1,16
 192 655 192 655 181 655 c 128,-1,17
 170 655 170 655 162 663 c 128,-1,18
 154 671 154 671 154 682 c 128,-1,19
 154 693 154 693 162 701 c 128,-1,20
 170 709 170 709 181 709 c 128,-1,21
 192 709 192 709 200 701 c 128,-1,14
 208 693 208 693 208 682 c 128,-1,15
EndSplineSet
EndChar

StartChar: uni13A6
Encoding: 5030 5030 104
Width: 687
GlyphClass: 2
Flags: W
LayerCount: 2
Fore
SplineSet
30 440 m 0,0,1
 115 455 115 455 216 453 c 1,2,3
 181 494 181 494 176 541 c 0,4,5
 171 589 171 589 189 629.5 c 128,-1,6
 207 670 207 670 239 695 c 128,-1,7
 271 720 271 720 312.5 731 c 128,-1,8
 354 742 354 742 394.5 737 c 128,-1,9
 435 732 435 732 473 706.5 c 128,-1,10
 511 681 511 681 533 637 c 0,11,12
 538 627 538 627 534.5 616.5 c 128,-1,13
 531 606 531 606 521 601 c 128,-1,14
 511 596 511 596 500.5 599.5 c 128,-1,15
 490 603 490 603 485 613 c 0,16,17
 465 651 465 651 431 670 c 128,-1,18
 397 689 397 689 361.5 685.5 c 128,-1,19
 326 682 326 682 294.5 666 c 128,-1,20
 263 650 263 650 244.5 617.5 c 128,-1,21
 226 585 226 585 230 547 c 128,-1,22
 234 509 234 509 271 474 c 0,23,24
 284 462 284 462 302 449 c 1,25,26
 361 445 361 445 470 432 c 0,27,28
 570 420 570 420 627 415 c 0,29,30
 638 414 638 414 645.5 405.5 c 128,-1,31
 653 397 653 397 652 386 c 128,-1,32
 651 375 651 375 642.5 367.5 c 128,-1,33
 634 360 634 360 623 361 c 0,34,35
 613 362 613 362 396 386 c 1,36,37
 453 346 453 346 490 300 c 128,-1,38
 527 254 527 254 536 189 c 0,39,40
 544 130 544 130 522 87 c 0,41,42
 517 77 517 77 511 68 c 0,43,44
 505 60 505 60 496 52 c 2,45,-1
 483 40 l 2,46,47
 478 36 478 36 466 30 c 2,48,-1
 452 21 l 2,49,50
 448 19 448 19 435 12.5 c 128,-1,51
 422 6 422 6 421 6 c 0,52,53
 368 -22 368 -22 317.5 -20 c 128,-1,54
 267 -18 267 -18 228 0.5 c 128,-1,55
 189 19 189 19 161 49 c 0,56,57
 117 97 117 97 119 146 c 0,58,59
 120 175 120 175 139 194.5 c 128,-1,60
 158 214 158 214 191 220 c 0,61,62
 202 221 202 221 211 214.5 c 128,-1,63
 220 208 220 208 221.5 197 c 128,-1,64
 223 186 223 186 216.5 177 c 128,-1,65
 210 168 210 168 199 166 c 0,66,67
 174 162 174 162 173 144 c 0,68,69
 172 117 172 117 201 86 c 0,70,71
 222 63 222 63 250.5 49 c 128,-1,72
 279 35 279 35 318.5 34.5 c 128,-1,73
 358 34 358 34 397 54 c 0,74,75
 400 56 400 56 405 58 c 2,76,-1
 436 74 l 2,77,78
 446 80 446 80 457 89.5 c 128,-1,79
 468 99 468 99 474 111 c 0,80,81
 488 140 488 140 482 181 c 0,82,83
 474 239 474 239 438 278 c 0,84,85
 402 318 402 318 336 361 c 2,86,-1
 283 397 l 1,87,88
 149 406 149 406 40 386 c 0,89,90
 29 384 29 384 19.5 390.5 c 128,-1,91
 10 397 10 397 8 408 c 128,-1,92
 6 419 6 419 12.5 428.5 c 128,-1,93
 19 438 19 438 30 440 c 0,0,1
EndSplineSet
EndChar

StartChar: uni13A7
Encoding: 5031 5031 105
Width: 712
GlyphClass: 2
Flags: W
LayerCount: 2
Fore
SplineSet
191 183 m 0,0,1
 257 211 257 211 293.5 287 c 128,-1,2
 330 363 330 363 321 443 c 0,3,4
 318 471 318 471 317 477 c 0,5,6
 313 493 313 493 308 497 c 0,7,8
 305 500 305 500 291 502 c 0,9,10
 281 505 281 505 264 506 c 0,11,12
 234 510 234 510 212.5 507 c 128,-1,13
 191 504 191 504 173 489 c 0,14,15
 134 457 134 457 116 404 c 0,16,17
 97 350 97 350 101 286 c 0,18,19
 104 224 104 224 127 169 c 128,-1,20
 150 114 150 114 186 81 c 0,21,22
 246 27 246 27 371 27 c 0,23,24
 477 27 477 27 541 88 c 0,25,26
 582 127 582 127 603 196 c 0,27,28
 624 264 624 264 624 345 c 0,29,30
 624 424 624 424 604 497 c 0,31,32
 585 570 585 570 551 616 c 0,33,34
 513 668 513 668 457 693 c 128,-1,35
 401 718 401 718 342 708.5 c 128,-1,36
 283 699 283 699 240 655 c 0,37,38
 233 647 233 647 221.5 647 c 128,-1,39
 210 647 210 647 202 654.5 c 128,-1,40
 194 662 194 662 194 673.5 c 128,-1,41
 194 685 194 685 202 693 c 0,42,43
 258 751 258 751 334 762.5 c 128,-1,44
 410 774 410 774 479.5 742 c 128,-1,45
 549 710 549 710 595 648 c 0,46,47
 634 594 634 594 656 512.5 c 128,-1,48
 678 431 678 431 678 345 c 0,49,50
 678 256 678 256 653.5 177 c 128,-1,51
 629 98 629 98 579 50 c 0,52,53
 499 -27 499 -27 371 -27 c 0,54,55
 226 -27 226 -27 150 41 c 0,56,57
 104 83 104 83 78 147 c 0,58,59
 51 212 51 212 47 283 c 0,60,61
 43 357 43 357 65.5 423 c 128,-1,62
 88 489 88 489 139 531 c 0,63,64
 160 548 160 548 183 555.5 c 128,-1,65
 206 563 206 563 226.5 562 c 128,-1,66
 247 561 247 561 270 560 c 0,67,68
 289 558 289 558 302 555 c 0,69,70
 328 550 328 550 342 539 c 0,71,72
 362 523 362 523 369 489 c 0,73,74
 372 479 372 479 375 449 c 0,75,76
 381 388 381 388 365.5 326 c 128,-1,77
 350 264 350 264 309.5 210.5 c 128,-1,78
 269 157 269 157 211 133 c 0,79,80
 201 129 201 129 190.5 133 c 128,-1,81
 180 137 180 137 176 147.5 c 128,-1,82
 172 158 172 158 176 168.5 c 128,-1,83
 180 179 180 179 191 183 c 0,0,1
EndSplineSet
EndChar

StartChar: uni13A8
Encoding: 5032 5032 106
Width: 606
GlyphClass: 2
Flags: W
LayerCount: 2
Fore
SplineSet
216 701 m 0,0,1
 219 598 219 598 211 405 c 1,2,3
 244 401 244 401 271 417 c 0,4,5
 278 421 278 421 285 429 c 0,6,7
 286 431 286 431 287 434 c 128,-1,8
 288 437 288 437 289 438 c 0,9,10
 293 448 293 448 299 454 c 0,11,12
 306 461 306 461 317 463 c 0,13,14
 328 464 328 464 337 458 c 0,15,16
 341 455 341 455 344 451.5 c 128,-1,17
 347 448 347 448 348 446 c 2,18,-1
 349 444 l 2,19,20
 349 441 349 441 350 439 c 2,21,-1
 350 436 l 1,22,-1
 350 431 l 1,23,-1
 350 427 l 2,24,25
 351 423 351 423 351 420 c 0,26,27
 351 401 351 401 353 386 c 0,28,29
 358 342 358 342 371 331 c 0,30,31
 393 313 393 313 412 314 c 0,32,33
 430 315 430 315 450 331 c 0,34,35
 489 363 489 363 512 425 c 0,36,37
 515 434 515 434 516 446 c 128,-1,38
 517 458 517 458 517 467 c 128,-1,39
 517 476 517 476 516 493.5 c 128,-1,40
 515 511 515 511 515 520 c 0,41,42
 515 532 515 532 522.5 540 c 128,-1,43
 530 548 530 548 541.5 548 c 128,-1,44
 553 548 553 548 561 540.5 c 128,-1,45
 569 533 569 533 569 522 c 0,46,47
 569 518 569 518 570 498.5 c 128,-1,48
 571 479 571 479 571 467.5 c 128,-1,49
 571 456 571 456 569 438 c 128,-1,50
 567 420 567 420 562 407 c 0,51,52
 534 331 534 331 484 290 c 0,53,54
 451 262 451 262 416 260 c 0,55,56
 374 258 374 258 337 289 c 0,57,58
 309 312 309 312 300 372 c 1,59,-1
 299 371 l 1,60,61
 257 345 257 345 208 351 c 1,62,63
 207 315 207 315 206 289 c 256,64,65
 205 263 205 263 204 178 c 0,66,67
 203 91 203 91 200 45 c 0,68,69
 199 34 199 34 190.5 26.5 c 128,-1,70
 182 19 182 19 171 20 c 128,-1,71
 160 21 160 21 152.5 29.5 c 128,-1,72
 145 38 145 38 146 49 c 0,73,74
 150 95 150 95 150.5 180 c 128,-1,75
 151 265 151 265 152 291 c 0,76,77
 153 312 153 312 158 427 c 128,-1,78
 163 542 163 542 162.5 562.5 c 128,-1,79
 162 583 162 583 162 699 c 0,80,81
 162 710 162 710 169.5 718.5 c 128,-1,82
 177 727 177 727 188 727 c 128,-1,83
 199 727 199 727 207.5 719.5 c 128,-1,84
 216 712 216 712 216 701 c 0,0,1
EndSplineSet
EndChar

StartChar: uni13A9
Encoding: 5033 5033 107
Width: 630
GlyphClass: 2
Flags: W
LayerCount: 2
Fore
SplineSet
181 687 m 0,0,1
 175 646 175 646 197.5 566.5 c 128,-1,2
 220 487 220 487 259 423 c 0,3,4
 301 354 301 354 345 338 c 0,5,6
 389 321 389 321 434 369 c 0,7,8
 439 373 439 373 443 379 c 2,9,-1
 480 475 l 1,10,-1
 509 547 l 1,11,12
 528 628 528 628 543 665 c 0,13,14
 547 676 547 676 557.5 680 c 128,-1,15
 568 684 568 684 578.5 680 c 128,-1,16
 589 676 589 676 593 665.5 c 128,-1,17
 597 655 597 655 593 645 c 0,18,19
 586 629 586 629 581 610 c 1,20,21
 591 597 591 597 583 582 c 0,22,23
 573 561 573 561 560 531 c 1,24,-1
 550 489 l 2,25,26
 527 400 527 400 491 352 c 1,27,-1
 469 300 l 2,28,29
 383 101 383 101 288 48 c 0,30,31
 255 30 255 30 193 31 c 0,32,33
 112 32 112 32 66 73.5 c 128,-1,34
 20 115 20 115 23 172 c 0,35,36
 25 229 25 229 72 257 c 0,37,38
 121 287 121 287 191 260 c 0,39,40
 202 256 202 256 206.5 246 c 128,-1,41
 211 236 211 236 207 225.5 c 128,-1,42
 203 215 203 215 193 210.5 c 128,-1,43
 183 206 183 206 173 210 c 0,44,45
 127 227 127 227 99 211 c 0,46,47
 78 197 78 197 76 169 c 0,48,49
 75 139 75 139 103.5 112.5 c 128,-1,50
 132 86 132 86 193 85 c 0,51,52
 242 84 242 84 262 96 c 0,53,54
 334 135 334 135 403 284 c 1,55,56
 365 272 365 272 326 287 c 0,57,58
 265 310 265 310 213 395 c 0,59,60
 170 465 170 465 145 554 c 0,61,62
 120 642 120 642 127 695 c 0,63,64
 129 706 129 706 137.5 712.5 c 128,-1,65
 146 719 146 719 157.5 717.5 c 128,-1,66
 169 716 169 716 175.5 707.5 c 128,-1,67
 182 699 182 699 181 687 c 0,0,1
EndSplineSet
EndChar

StartChar: uni13AA
Encoding: 5034 5034 108
Width: 644
GlyphClass: 2
Flags: W
LayerCount: 2
Fore
SplineSet
243 307 m 1,0,1
 289 312 289 312 354 305 c 0,2,3
 369 304 369 304 400.5 300 c 128,-1,4
 432 296 432 296 448 295 c 1,5,6
 420 392 420 392 401 497 c 0,7,8
 396 525 396 525 382 592 c 2,9,-1
 379 606 l 1,10,-1
 310 452 l 1,11,-1
 243 307 l 1,0,1
53 33 m 0,12,13
 62 62 62 62 76.5 93.5 c 128,-1,14
 91 125 91 125 112.5 165 c 128,-1,15
 134 205 134 205 141 219 c 2,16,-1
 260 474 l 1,17,-1
 331 631 l 1,18,-1
 353 677 l 1,19,-1
 361 691 l 2,20,21
 363 695 363 695 366 697 c 0,22,23
 369 701 369 701 372 703 c 0,24,25
 387 712 387 712 402 702 c 0,26,27
 409 698 409 698 413 689 c 0,28,29
 415 685 415 685 416 680 c 0,30,31
 419 673 419 673 422 660 c 0,32,33
 428 639 428 639 435 603 c 0,34,35
 448 544 448 544 455 507 c 0,36,37
 475 391 475 391 507 285 c 1,38,39
 516 276 516 276 516 264 c 0,40,41
 516 262 516 262 515 259 c 0,42,43
 553 141 553 141 606 30 c 0,44,45
 611 20 611 20 607.5 9 c 128,-1,46
 604 -2 604 -2 594 -6.5 c 128,-1,47
 584 -11 584 -11 573 -7.5 c 128,-1,48
 562 -4 562 -4 558 6 c 0,49,50
 504 119 504 119 465 239 c 1,51,52
 443 241 443 241 401.5 246 c 128,-1,53
 360 251 360 251 349 252 c 0,54,55
 270 260 270 260 220 249 c 0,56,57
 217 248 217 248 215 248 c 2,58,-1
 189 195 l 1,59,-1
 160 138 l 2,60,61
 139 100 139 100 126 72 c 128,-1,62
 113 44 113 44 105 17 c 0,63,64
 102 6 102 6 92 1 c 128,-1,65
 82 -4 82 -4 71 -1 c 128,-1,66
 60 2 60 2 55 12 c 128,-1,67
 50 22 50 22 53 33 c 0,12,13
EndSplineSet
EndChar

StartChar: uni13AB
Encoding: 5035 5035 109
Width: 485
GlyphClass: 2
Flags: W
LayerCount: 2
Fore
SplineSet
175 707 m 0,0,1
 199 710 199 710 239 709 c 128,-1,2
 279 708 279 708 302 706 c 2,3,-1
 365 700 l 2,4,5
 404 697 404 697 425 696 c 0,6,7
 436 695 436 695 443.5 686.5 c 128,-1,8
 451 678 451 678 450 667 c 128,-1,9
 449 656 449 656 440.5 648.5 c 128,-1,10
 432 641 432 641 421 642 c 0,11,12
 403 643 403 643 330 650 c 1,13,14
 334 636 334 636 336 606 c 0,15,16
 337 540 337 540 336 511.5 c 128,-1,17
 335 483 335 483 329.5 418.5 c 128,-1,18
 324 354 324 354 322 328 c 0,19,20
 321 315 321 315 320 261 c 128,-1,21
 319 207 319 207 315 168 c 128,-1,22
 311 129 311 129 301 96 c 0,23,24
 294 73 294 73 283 58.5 c 128,-1,25
 272 44 272 44 253 26 c 0,26,27
 233 8 233 8 221 -1 c 0,28,29
 195 -20 195 -20 173 -22 c 0,30,31
 130 -26 130 -26 77 6 c 0,32,33
 14 44 14 44 18 95 c 0,34,35
 19 108 19 108 26 123 c 2,36,-1
 31 133 l 2,37,38
 33 137 33 137 34 140 c 0,39,40
 38 150 38 150 48 154.5 c 128,-1,41
 58 159 58 159 68.5 155 c 128,-1,42
 79 151 79 151 83.5 141 c 128,-1,43
 88 131 88 131 84 120 c 0,44,45
 82 116 82 116 79 109 c 2,46,-1
 75 101 l 2,47,48
 72 94 72 94 72 91 c 0,49,50
 71 73 71 73 105 52 c 0,51,52
 143 30 143 30 167 32 c 0,53,54
 175 33 175 33 190 43 c 0,55,56
 199 50 199 50 217 66 c 0,57,58
 232 80 232 80 238.5 88.5 c 128,-1,59
 245 97 245 97 249 112 c 0,60,61
 258 141 258 141 261.5 175.5 c 128,-1,62
 265 210 265 210 266 260.5 c 128,-1,63
 267 311 267 311 268 332 c 0,64,65
 270 361 270 361 275.5 424 c 128,-1,66
 281 487 281 487 282 513 c 128,-1,67
 283 539 283 539 282 602 c 0,68,69
 280 628 280 628 278 636 c 0,70,71
 277 640 277 640 270 654 c 1,72,73
 220 657 220 657 181 653 c 0,74,75
 169 652 169 652 160.5 659 c 128,-1,76
 152 666 152 666 151 677.5 c 128,-1,77
 150 689 150 689 157 697.5 c 128,-1,78
 164 706 164 706 175 707 c 0,0,1
EndSplineSet
EndChar

StartChar: uni13AC
Encoding: 5036 5036 110
Width: 657
GlyphClass: 2
Flags: W
LayerCount: 2
Fore
SplineSet
24 67 m 0,0,1
 87 58 87 58 177 59 c 1,2,3
 188 101 188 101 186 169 c 0,4,5
 184 276 184 276 185 289 c 0,6,7
 185 296 185 296 187 329.5 c 128,-1,8
 189 363 189 363 190 372 c 2,9,-1
 192 412 l 2,10,11
 193 442 193 442 193 455 c 128,-1,12
 193 468 193 468 193.5 494.5 c 128,-1,13
 194 521 194 521 193.5 537 c 128,-1,14
 193 553 193 553 192 575.5 c 128,-1,15
 191 598 191 598 189 617.5 c 128,-1,16
 187 637 187 637 184 657 c 1,17,18
 138 658 138 658 96 658 c 0,19,20
 85 658 85 658 77 666 c 128,-1,21
 69 674 69 674 69 685 c 128,-1,22
 69 696 69 696 77 704 c 128,-1,23
 85 712 85 712 96 712 c 0,24,25
 144 712 144 712 198 710 c 1,26,-1
 202 712 l 2,27,28
 211 713 211 713 218 710 c 0,29,30
 269 708 269 708 597 687 c 0,31,32
 608 686 608 686 615.5 677.5 c 128,-1,33
 623 669 623 669 622 658 c 128,-1,34
 621 647 621 647 612.5 639.5 c 128,-1,35
 604 632 604 632 593 633 c 0,36,37
 274 653 274 653 239 655 c 1,38,39
 252 554 252 554 245 399 c 1,40,41
 265 394 265 394 287.5 392.5 c 128,-1,42
 310 391 310 391 341 391 c 128,-1,43
 372 391 372 391 390 390 c 0,44,45
 402 389 402 389 409.5 381 c 128,-1,46
 417 373 417 373 416 361.5 c 128,-1,47
 415 350 415 350 407 342.5 c 128,-1,48
 399 335 399 335 388 336 c 0,49,50
 374 337 374 337 344.5 337 c 128,-1,51
 315 337 315 337 289.5 338.5 c 128,-1,52
 264 340 264 340 242 344 c 1,53,-1
 239 287 l 2,54,55
 238 275 238 275 240 170 c 0,56,57
 242 104 242 104 233 60 c 1,58,59
 306 63 306 63 332 63 c 0,60,61
 444 63 444 63 583 51 c 0,62,63
 595 50 595 50 602 41.5 c 128,-1,64
 609 33 609 33 608 21.5 c 128,-1,65
 607 10 607 10 598.5 3 c 128,-1,66
 590 -4 590 -4 579 -3 c 0,67,68
 447 9 447 9 332 9 c 0,69,70
 313 9 313 9 238 6.5 c 128,-1,71
 163 4 163 4 113.5 5 c 128,-1,72
 64 6 64 6 16 13 c 0,73,74
 5 15 5 15 -1.5 24 c 128,-1,75
 -8 33 -8 33 -6.5 44 c 128,-1,76
 -5 55 -5 55 4 61.5 c 128,-1,77
 13 68 13 68 24 67 c 0,0,1
EndSplineSet
EndChar

StartChar: uni13AD
Encoding: 5037 5037 111
Width: 981
GlyphClass: 2
Flags: W
LayerCount: 2
Fore
SplineSet
880 427 m 1,0,1
 872 425 872 425 863 423 c 0,2,3
 848 420 848 420 803 409 c 0,4,5
 717 388 717 388 609 372 c 1,6,7
 607 284 607 284 600 195 c 0,8,9
 594 120 594 120 592 92 c 2,10,-1
 591 86 l 1,11,-1
 602 102 l 2,12,13
 613 121 613 121 616 124 c 0,14,15
 626 138 626 138 683 200 c 2,16,-1
 782 308 l 2,17,18
 841 373 841 373 868 410 c 0,19,20
 875 419 875 419 880 427 c 1,0,1
393 403 m 1,21,22
 392 489 392 489 362 524 c 0,23,24
 338 553 338 553 299 540 c 0,25,26
 254 524 254 524 214.5 465.5 c 128,-1,27
 175 407 175 407 169 327 c 0,28,29
 167 295 167 295 180.5 269 c 128,-1,30
 194 243 194 243 218 229 c 0,31,32
 238 216 238 216 266 219 c 128,-1,33
 294 222 294 222 319 245 c 0,34,35
 373 296 373 296 393 403 c 1,21,22
421 737 m 0,36,37
 491 729 491 729 564 730 c 0,38,39
 567 732 567 732 571 732 c 0,40,41
 576 732 576 732 581 731 c 0,42,43
 632 733 632 733 683 740 c 0,44,45
 695 741 695 741 703.5 734.5 c 128,-1,46
 712 728 712 728 713.5 716.5 c 128,-1,47
 715 705 715 705 708.5 696.5 c 128,-1,48
 702 688 702 688 691 686 c 0,49,50
 646 680 646 680 602 678 c 1,51,52
 610 547 610 547 609 427 c 1,53,54
 716 443 716 443 789 461 c 0,55,56
 843 474 843 474 852 476 c 0,57,58
 878 482 878 482 894 483 c 0,59,60
 906 484 906 484 913 484 c 0,61,62
 932 482 932 482 940 469 c 0,63,64
 949 457 949 457 946 440 c 0,65,66
 944 431 944 431 939 420 c 0,67,68
 930 403 930 403 912 378 c 0,69,70
 882 338 882 338 823 272 c 2,71,-1
 722 163 l 2,72,73
 669 106 669 106 658 92 c 0,74,75
 657 90 657 90 648 74 c 2,76,-1
 628 43 l 2,77,78
 613 23 613 23 600 13 c 0,79,80
 575 -6 575 -6 551 4 c 0,81,82
 542 8 542 8 538 17 c 0,83,84
 536 19 536 19 536 23 c 0,85,86
 535 25 535 25 535 28 c 0,87,88
 534 31 534 31 534 34 c 0,89,90
 534 40 534 40 535 50 c 2,91,-1
 538 96 l 2,92,93
 540 124 540 124 546 199 c 0,94,95
 553 288 553 288 554 364 c 1,96,-1
 436 348 l 1,97,98
 411 258 411 258 355 205 c 0,99,100
 318 170 318 170 272 165 c 128,-1,101
 226 160 226 160 191 183 c 0,102,103
 154 204 154 204 133 244 c 128,-1,104
 112 284 112 284 115 331 c 0,105,106
 122 425 122 425 170.5 497.5 c 128,-1,107
 219 570 219 570 282 591 c 0,108,109
 313 603 313 603 346 595 c 128,-1,110
 379 587 379 587 403 559 c 0,111,112
 426 532 426 532 437 487 c 1,113,114
 446 484 446 484 451.5 475.5 c 128,-1,115
 457 467 457 467 456 458 c 0,116,117
 452 426 452 426 448 405 c 1,118,-1
 555 419 l 1,119,120
 556 542 556 542 548 676 c 1,121,122
 480 675 480 675 415 683 c 0,123,124
 404 685 404 685 397 693.5 c 128,-1,125
 390 702 390 702 391.5 713 c 128,-1,126
 393 724 393 724 401.5 731 c 128,-1,127
 410 738 410 738 421 737 c 0,36,37
EndSplineSet
EndChar

StartChar: uni13AE
Encoding: 5038 5038 112
Width: 579
GlyphClass: 2
Flags: W
LayerCount: 2
Fore
SplineSet
49 34 m 0,0,1
 116 25 116 25 171 27 c 1,2,3
 180 98 180 98 183 169 c 0,4,5
 185 243 185 243 178 287 c 1,6,-1
 176 289 l 2,7,8
 169 299 169 299 164 307 c 0,9,10
 156 320 156 320 153 330 c 0,11,12
 150 338 150 338 149 345 c 0,13,14
 149 364 149 364 164 373 c 0,15,16
 182 384 182 384 199 372 c 0,17,18
 207 366 207 366 212 356 c 0,19,20
 214 352 214 352 217 345 c 0,21,22
 217 344 217 344 218 341.5 c 128,-1,23
 219 339 219 339 220 337 c 0,24,25
 225 326 225 326 228 311 c 1,26,27
 265 278 265 278 321 270 c 0,28,29
 394 259 394 259 443 300 c 0,30,31
 492 342 492 342 490 414 c 0,32,33
 488 483 488 483 447 544.5 c 128,-1,34
 406 606 406 606 340.5 638.5 c 128,-1,35
 275 671 275 671 208 658 c 0,36,37
 175 652 175 652 157 646 c 128,-1,38
 139 640 139 640 124 627 c 0,39,40
 118 622 118 622 113.5 616.5 c 128,-1,41
 109 611 109 611 104.5 603.5 c 128,-1,42
 100 596 100 596 98 591 c 2,43,-1
 90 574 l 1,44,-1
 81 557 l 2,45,46
 76 547 76 547 65.5 543.5 c 128,-1,47
 55 540 55 540 45 545 c 128,-1,48
 35 550 35 550 31.5 560.5 c 128,-1,49
 28 571 28 571 33 581 c 0,50,51
 35 584 35 584 40.5 596.5 c 128,-1,52
 46 609 46 609 50 616 c 2,53,-1
 59 632 l 2,54,55
 65 643 65 643 72.5 651.5 c 128,-1,56
 80 660 80 660 88 667 c 0,57,58
 104 682 104 682 126 691.5 c 128,-1,59
 148 701 148 701 160.5 704 c 128,-1,60
 173 707 173 707 198 712 c 0,61,62
 262 723 262 723 325.5 702 c 128,-1,63
 389 681 389 681 435.5 638.5 c 128,-1,64
 482 596 482 596 512 537 c 128,-1,65
 542 478 542 478 544 416 c 0,66,67
 547 317 547 317 478 260 c 128,-1,68
 409 203 409 203 313 216 c 0,69,70
 272 222 272 222 236 240 c 1,71,72
 238 208 238 208 237 167 c 0,73,74
 235 101 235 101 226 32 c 1,75,76
 251 35 251 35 275 42 c 0,77,78
 285 45 285 45 295 39.5 c 128,-1,79
 305 34 305 34 308 23.5 c 128,-1,80
 311 13 311 13 305.5 3 c 128,-1,81
 300 -7 300 -7 289 -10 c 0,82,83
 189 -39 189 -39 43 -20 c 0,84,85
 31 -18 31 -18 24.5 -9.5 c 128,-1,86
 18 -1 18 -1 19.5 10.5 c 128,-1,87
 21 22 21 22 29.5 28.5 c 128,-1,88
 38 35 38 35 49 34 c 0,0,1
EndSplineSet
EndChar

StartChar: uni13AF
Encoding: 5039 5039 113
Width: 854
GlyphClass: 2
Flags: W
LayerCount: 2
Fore
SplineSet
410 379 m 1,0,1
 457 379 457 379 574 386 c 128,-1,2
 691 393 691 393 750 393 c 0,3,4
 758 393 758 393 764 389 c 1,5,6
 761 436 761 436 750 482 c 0,7,8
 720 607 720 607 659 637 c 0,9,10
 624 654 624 654 552 627 c 0,11,12
 519 614 519 614 495 592 c 128,-1,13
 471 570 471 570 455.5 537.5 c 128,-1,14
 440 505 440 505 430.5 472 c 128,-1,15
 421 439 421 439 412 391 c 2,16,-1
 410 379 l 1,0,1
133 170 m 0,17,18
 132 165 132 165 129 157 c 2,19,-1
 128 153 l 2,20,21
 127 149 127 149 127 147 c 0,22,23
 124 139 124 139 125 135 c 0,24,25
 128 104 128 104 153.5 85.5 c 128,-1,26
 179 67 179 67 211 69.5 c 128,-1,27
 243 72 243 72 265 97 c 0,28,29
 280 114 280 114 292.5 137.5 c 128,-1,30
 305 161 305 161 312.5 180.5 c 128,-1,31
 320 200 320 200 328 233 c 128,-1,32
 336 266 336 266 339 284 c 2,33,-1
 349 343 l 2,34,35
 356 384 356 384 359 400 c 0,36,37
 366 440 366 440 373 468.5 c 128,-1,38
 380 497 380 497 393.5 532.5 c 128,-1,39
 407 568 407 568 424.5 593 c 128,-1,40
 442 618 442 618 470 641 c 0,41,42
 497 664 497 664 532 677 c 0,43,44
 627 713 627 713 683 685 c 0,45,46
 767 644 767 644 802 495 c 0,47,48
 816 436 816 436 819 376 c 0,49,50
 822 315 822 315 814 274 c 0,51,52
 790 154 790 154 733 83 c 0,53,54
 699 41 699 41 657.5 18.5 c 128,-1,55
 616 -4 616 -4 577 1 c 0,56,57
 532 7 532 7 505 44.5 c 128,-1,58
 478 82 478 82 473 144 c 0,59,60
 472 155 472 155 479.5 163.5 c 128,-1,61
 487 172 487 172 498 173 c 128,-1,62
 509 174 509 174 517.5 166.5 c 128,-1,63
 526 159 526 159 527 148 c 0,64,65
 531 101 531 101 547 79 c 128,-1,66
 563 57 563 57 584 55 c 0,67,68
 606 52 606 52 635 68 c 0,69,70
 664 83 664 83 691 117 c 0,71,72
 740 178 740 178 760 284 c 0,73,74
 765 309 765 309 766 344 c 1,75,76
 759 339 759 339 750 339 c 0,77,78
 694 339 694 339 577 332 c 128,-1,79
 460 325 460 325 401 325 c 1,80,81
 391 267 391 267 382.5 229 c 128,-1,82
 374 191 374 191 354 142.5 c 128,-1,83
 334 94 334 94 305 61 c 0,84,85
 272 22 272 22 218 16.5 c 128,-1,86
 164 11 164 11 120.5 42 c 128,-1,87
 77 73 77 73 71 129 c 0,88,89
 70 143 70 143 74 160 c 0,90,91
 74 161 74 161 77 172 c 0,92,93
 79 177 79 177 79 180 c 0,94,95
 82 191 82 191 91 197.5 c 128,-1,96
 100 204 100 204 111 201.5 c 128,-1,97
 122 199 122 199 128.5 190 c 128,-1,98
 135 181 135 181 133 170 c 0,17,18
EndSplineSet
EndChar

StartChar: uni13B0
Encoding: 5040 5040 114
Width: 451
GlyphClass: 2
Flags: W
LayerCount: 2
Fore
SplineSet
414 429 m 0,0,1
 393 383 393 383 403 320 c 0,2,3
 404 309 404 309 397.5 300 c 128,-1,4
 391 291 391 291 380 289.5 c 128,-1,5
 369 288 369 288 360 294.5 c 128,-1,6
 351 301 351 301 349 312 c 0,7,8
 347 328 347 328 346 342 c 0,9,10
 342 342 342 342 338 343 c 0,11,12
 321 348 321 348 304 350.5 c 128,-1,13
 287 353 287 353 260 355 c 2,14,-1
 220 358 l 2,15,16
 219 358 219 358 218 359 c 1,17,18
 218 176 218 176 243 50 c 1,19,20
 254 50 254 50 267 51 c 0,21,22
 278 52 278 52 286 44.5 c 128,-1,23
 294 37 294 37 295 25.5 c 128,-1,24
 296 14 296 14 288.5 6 c 128,-1,25
 281 -2 281 -2 269 -3 c 0,26,27
 195 -7 195 -7 132 -3 c 0,28,29
 121 -2 121 -2 113.5 6 c 128,-1,30
 106 14 106 14 107 25.5 c 128,-1,31
 108 37 108 37 116 44.5 c 128,-1,32
 124 52 124 52 136 51 c 0,33,34
 161 49 161 49 188 49 c 1,35,36
 175 120 175 120 169 206.5 c 128,-1,37
 163 293 163 293 163.5 353 c 128,-1,38
 164 413 164 413 166 515.5 c 128,-1,39
 168 618 168 618 168 662 c 1,40,41
 138 664 138 664 118 664 c 0,42,43
 107 664 107 664 99 672 c 128,-1,44
 91 680 91 680 91 691 c 128,-1,45
 91 702 91 702 99 710 c 128,-1,46
 107 718 107 718 118 718 c 0,47,48
 141 718 141 718 187 715 c 128,-1,49
 233 712 233 712 253 712 c 0,50,51
 264 712 264 712 272 704 c 128,-1,52
 280 696 280 696 280 685 c 128,-1,53
 280 674 280 674 272 666 c 128,-1,54
 264 658 264 658 253 658 c 0,55,56
 239 658 239 658 222 659 c 1,57,58
 222 613 222 613 220 529 c 128,-1,59
 218 445 218 445 218 412 c 1,60,-1
 226 412 l 2,61,62
 234 411 234 411 261 409 c 128,-1,63
 288 407 288 407 308 404.5 c 128,-1,64
 328 402 328 402 348 397 c 1,65,66
 352 423 352 423 364 451 c 0,67,68
 369 461 369 461 379.5 465 c 128,-1,69
 390 469 390 469 400 464.5 c 128,-1,70
 410 460 410 460 414 449.5 c 128,-1,71
 418 439 418 439 414 429 c 0,0,1
EndSplineSet
EndChar

StartChar: uni13B1
Encoding: 5041 5041 115
Width: 615
GlyphClass: 2
Flags: W
LayerCount: 2
Fore
SplineSet
40 721 m 0,0,1
 106 732 106 732 302 735 c 0,2,3
 400 736 400 736 461 731 c 0,4,5
 497 729 497 729 520 724 c 0,6,7
 551 717 551 717 563 703 c 0,8,9
 581 680 581 680 581 624 c 0,10,11
 581 610 581 610 579 586 c 0,12,13
 578 564 578 564 578 558 c 0,14,15
 578 547 578 547 570 539 c 128,-1,16
 562 531 562 531 551 531 c 128,-1,17
 540 531 540 531 532 539 c 128,-1,18
 524 547 524 547 524 558 c 0,19,20
 524 566 524 566 525 589 c 0,21,22
 527 612 527 612 527 624 c 0,23,24
 527 657 527 657 522 667 c 1,25,26
 516 670 516 670 508 671 c 0,27,28
 490 675 490 675 457 678 c 0,29,30
 398 682 398 682 303 681 c 2,31,-1
 217 679 l 1,32,33
 227 671 227 671 227 658 c 0,34,35
 227 603 227 603 232.5 518 c 128,-1,36
 238 433 238 433 243 368 c 128,-1,37
 248 303 248 303 246.5 221.5 c 128,-1,38
 245 140 245 140 233 74 c 1,39,-1
 262 74 l 1,40,-1
 300 74 l 2,41,42
 311 74 311 74 319 66 c 128,-1,43
 327 58 327 58 327 47 c 128,-1,44
 327 36 327 36 319 28 c 128,-1,45
 311 20 311 20 300 20 c 0,46,47
 290 20 290 20 247 19.5 c 128,-1,48
 204 19 204 19 185.5 19.5 c 128,-1,49
 167 20 167 20 134 22 c 128,-1,50
 101 24 101 24 74 27 c 0,51,52
 63 29 63 29 56.5 38 c 128,-1,53
 50 47 50 47 51.5 58 c 128,-1,54
 53 69 53 69 62 75.5 c 128,-1,55
 71 82 71 82 82 81 c 0,56,57
 124 75 124 75 179 74 c 1,58,-1
 179 82 l 1,59,60
 191 146 191 146 192.5 224 c 128,-1,61
 194 302 194 302 189 364 c 128,-1,62
 184 426 184 426 178.5 511.5 c 128,-1,63
 173 597 173 597 173 658 c 0,64,65
 173 669 173 669 181 677 c 1,66,67
 78 672 78 672 50 667 c 0,68,69
 39 665 39 665 29.5 671.5 c 128,-1,70
 20 678 20 678 18 689 c 128,-1,71
 16 700 16 700 22.5 709.5 c 128,-1,72
 29 719 29 719 40 721 c 0,0,1
EndSplineSet
EndChar

StartChar: uni13B2
Encoding: 5042 5042 116
Width: 880
GlyphClass: 2
Flags: W
LayerCount: 2
Fore
SplineSet
419 172 m 1,0,1
 505 309 505 309 505 527 c 0,2,3
 505 593 505 593 497 626 c 0,4,5
 485 673 485 673 456 673 c 0,6,7
 408 673 408 673 371 615 c 0,8,9
 339 564 339 564 328 498 c 0,10,11
 316 426 316 426 342.5 334.5 c 128,-1,12
 369 243 369 243 419 172 c 1,0,1
645 384 m 0,13,14
 696 395 696 395 817 399 c 0,15,16
 828 399 828 399 836.5 391.5 c 128,-1,17
 845 384 845 384 845 373 c 128,-1,18
 845 362 845 362 837.5 353.5 c 128,-1,19
 830 345 830 345 819 345 c 0,20,21
 813 345 813 345 803 344.5 c 128,-1,22
 793 344 793 344 784.5 344 c 128,-1,23
 776 344 776 344 769 343 c 1,24,25
 767 266 767 266 745 206 c 0,26,27
 686 45 686 45 590 21 c 0,28,29
 506 0 506 0 421 85 c 1,30,31
 384 45 384 45 339 18 c 0,32,33
 276 -20 276 -20 207 -28 c 0,34,35
 112 -40 112 -40 67 20 c 0,36,37
 48 45 48 45 39 85 c 128,-1,38
 30 125 30 125 33 165 c 0,39,40
 37 209 37 209 58.5 244 c 128,-1,41
 80 279 80 279 122 289 c 0,42,43
 136 293 136 293 163 291 c 0,44,45
 169 290 169 290 198 287 c 0,46,47
 209 286 209 286 216 277 c 128,-1,48
 223 268 223 268 222 257 c 128,-1,49
 221 246 221 246 212 239 c 128,-1,50
 203 232 203 232 192 233 c 0,51,52
 163 236 163 236 159 237 c 0,53,54
 140 238 140 238 134 237 c 0,55,56
 93 227 93 227 87 160 c 0,57,58
 85 129 85 129 92 98 c 0,59,60
 99 68 99 68 111 52 c 0,61,62
 136 18 136 18 201 26 c 0,63,64
 258 33 258 33 311 64 c 0,65,66
 352 89 352 89 385 126 c 1,67,68
 325 206 325 206 292.5 312.5 c 128,-1,69
 260 419 260 419 274 506 c 0,70,71
 287 584 287 584 325 644 c 0,72,73
 378 727 378 727 456 727 c 0,74,75
 526 727 526 727 549 640 c 0,76,77
 559 600 559 600 559 527 c 0,78,79
 559 420 559 420 534.5 314 c 128,-1,80
 510 208 510 208 454 128 c 1,81,-1
 456 126 l 2,82,83
 522 60 522 60 577 74 c 0,84,85
 645 91 645 91 695 224 c 0,86,87
 713 274 713 274 715 340 c 1,88,89
 683 337 683 337 655 332 c 0,90,91
 644 329 644 329 635 335.5 c 128,-1,92
 626 342 626 342 623.5 353 c 128,-1,93
 621 364 621 364 627.5 373 c 128,-1,94
 634 382 634 382 645 384 c 0,13,14
EndSplineSet
EndChar

StartChar: uni13B3
Encoding: 5043 5043 117
Width: 857
GlyphClass: 2
Flags: W
LayerCount: 2
Fore
SplineSet
97 704 m 2,0,-1
 243 178 l 1,1,-1
 250 148 l 2,2,3
 258 117 258 117 264 97 c 0,4,5
 268 83 268 83 272 72 c 1,6,-1
 275 81 l 2,7,8
 280 96 280 96 285.5 119.5 c 128,-1,9
 291 143 291 143 292 146 c 2,10,-1
 397 490 l 2,11,12
 398 494 398 494 402 506 c 2,13,-1
 410 534 l 1,14,-1
 419 566 l 2,15,16
 428 598 428 598 433 610 c 0,17,18
 436 621 436 621 439 627 c 0,19,20
 441 631 441 631 443 634 c 0,21,22
 445 638 445 638 448 640 c 0,23,24
 456 648 456 648 467 648 c 128,-1,25
 478 648 478 648 486 641 c 2,26,-1
 490 635 l 2,27,28
 491 633 491 633 492 630 c 0,29,30
 493 629 493 629 493.5 626.5 c 128,-1,31
 494 624 494 624 495 621 c 0,32,33
 496 615 496 615 498 605 c 0,34,35
 502 586 502 586 507 556 c 0,36,37
 518 487 518 487 520 471 c 0,38,39
 529 372 529 372 534.5 328.5 c 128,-1,40
 540 285 540 285 554.5 217.5 c 128,-1,41
 569 150 569 150 594 84 c 1,42,43
 595 89 595 89 597 95 c 0,44,45
 603 114 603 114 609 143 c 0,46,47
 610 149 610 149 612 157.5 c 128,-1,48
 614 166 614 166 615 171 c 128,-1,49
 616 176 616 176 617 179 c 0,50,51
 641 272 641 272 691 424 c 0,52,53
 756 621 756 621 769 665 c 0,54,55
 772 675 772 675 782 680.5 c 128,-1,56
 792 686 792 686 802.5 683 c 128,-1,57
 813 680 813 680 818.5 670 c 128,-1,58
 824 660 824 660 821 649 c 0,59,60
 807 602 807 602 742 407 c 0,61,62
 692 257 692 257 669 165 c 0,63,64
 668 163 668 163 667 158 c 2,65,-1
 664 146 l 2,66,67
 663 138 663 138 662 132 c 0,68,69
 655 101 655 101 649 79 c 0,70,71
 639 47 639 47 629 30 c 0,72,73
 621 16 621 16 612 9 c 0,74,75
 595 -3 595 -3 576 4 c 0,76,77
 554 11 554 11 550 39 c 0,78,79
 549 43 549 43 548.5 46 c 128,-1,80
 548 49 548 49 548 50 c 2,81,-1
 548 52 l 1,82,-1
 548 53 l 1,83,84
 520 126 520 126 503.5 199 c 128,-1,85
 487 272 487 272 482 318 c 0,86,87
 477 353 477 353 466 465 c 0,88,89
 465 475 465 475 459 511 c 1,90,91
 450 478 450 478 449 474 c 2,92,-1
 344 130 l 2,93,94
 343 128 343 128 337 104 c 2,95,-1
 327 65 l 2,96,97
 319 41 319 41 312 27 c 0,98,99
 306 16 306 16 300 10 c 0,100,101
 288 -2 288 -2 272 -2 c 128,-1,102
 256 -2 256 -2 244 12 c 0,103,104
 237 20 237 20 230 33 c 0,105,106
 221 50 221 50 212 82 c 0,107,108
 206 104 206 104 198 133 c 2,109,-1
 191 164 l 1,110,-1
 45 690 l 2,111,112
 42 700 42 700 47.5 710 c 128,-1,113
 53 720 53 720 63.5 723 c 128,-1,114
 74 726 74 726 84 720.5 c 128,-1,115
 94 715 94 715 97 704 c 2,0,-1
EndSplineSet
EndChar

StartChar: uni13B4
Encoding: 5044 5044 118
Width: 705
GlyphClass: 2
Flags: W
LayerCount: 2
Fore
SplineSet
384 403 m 1,0,1
 385 416 385 416 387 437 c 0,2,3
 391 493 391 493 392 509 c 0,4,5
 401 600 401 600 434 651 c 0,6,7
 459 689 459 689 495.5 702.5 c 128,-1,8
 532 716 532 716 566 708.5 c 128,-1,9
 600 701 600 701 626 678 c 0,10,11
 670 639 670 639 671 585 c 0,12,13
 671 525 671 525 613 476 c 0,14,15
 605 469 605 469 594 470 c 128,-1,16
 583 471 583 471 575.5 479.5 c 128,-1,17
 568 488 568 488 569 499 c 128,-1,18
 570 510 570 510 579 518 c 0,19,20
 617 550 617 550 617 585 c 0,21,22
 616 615 616 615 591 637 c 0,23,24
 574 651 574 651 554.5 655.5 c 128,-1,25
 535 660 535 660 514.5 651.5 c 128,-1,26
 494 643 494 643 480 621 c 0,27,28
 454 582 454 582 446 503 c 0,29,30
 444 488 444 488 441 434 c 0,31,32
 438 390 438 390 434 365 c 0,33,34
 416 252 416 252 375 161 c 0,35,36
 316 32 316 32 230 -1 c 0,37,38
 202 -12 202 -12 164 -14 c 0,39,40
 125 -15 125 -15 94 -4 c 0,41,42
 62 8 62 8 40 32.5 c 128,-1,43
 18 57 18 57 10 85 c 128,-1,44
 2 113 2 113 0.5 146 c 128,-1,45
 -1 179 -1 179 7 209 c 0,46,47
 19 272 19 272 53.5 330 c 128,-1,48
 88 388 88 388 130 416 c 0,49,50
 151 429 151 429 176 435 c 128,-1,51
 201 441 201 441 221.5 440.5 c 128,-1,52
 242 440 242 440 263 440 c 0,53,54
 329 438 329 438 375 411 c 0,55,56
 381 408 381 408 384 403 c 1,0,1
349 365 m 0,57,58
 314 384 314 384 261 386 c 0,59,60
 223 387 223 387 200.5 384.5 c 128,-1,61
 178 382 178 382 160 370 c 0,62,63
 128 350 128 350 99.5 301.5 c 128,-1,64
 71 253 71 253 60 198 c 0,65,66
 48 141 48 141 61.5 101 c 128,-1,67
 75 61 75 61 114 46 c 0,68,69
 132 40 132 40 161.5 41 c 128,-1,70
 191 42 191 42 210 49 c 0,71,72
 276 74 276 74 325 183 c 0,73,74
 362 265 362 265 379 367 c 1,75,76
 365 355 365 355 349 365 c 0,57,58
EndSplineSet
EndChar

StartChar: uni13B5
Encoding: 5045 5045 119
Width: 612
GlyphClass: 2
Flags: W
LayerCount: 2
Fore
SplineSet
137 58 m 1,0,1
 141 74 141 74 139.5 114 c 128,-1,2
 138 154 138 154 136.5 173 c 128,-1,3
 135 192 135 192 130.5 234.5 c 128,-1,4
 126 277 126 277 124 298 c 0,5,6
 117 356 117 356 123 426.5 c 128,-1,7
 129 497 129 497 155 552 c 0,8,9
 182 608 182 608 239 640.5 c 128,-1,10
 296 673 296 673 361 675 c 0,11,12
 428 677 428 677 484.5 646 c 128,-1,13
 541 615 541 615 564 550 c 0,14,15
 598 458 598 458 547 398 c 0,16,17
 500 345 500 345 407 345 c 2,18,-1
 400 345 l 2,19,20
 392 344 392 344 389 344 c 0,21,22
 370 343 370 343 357 350 c 0,23,24
 343 358 343 358 335 375 c 0,25,26
 333 380 333 380 332 383 c 128,-1,27
 331 386 331 386 330 388 c 0,28,29
 323 399 323 399 328 412 c 1,30,31
 312 466 312 466 322 493 c 0,32,33
 331 514 331 514 351 518 c 0,34,35
 368 521 368 521 383 510 c 0,36,37
 397 500 397 500 405.5 482 c 128,-1,38
 414 464 414 464 411 440.5 c 128,-1,39
 408 417 408 417 390 398 c 1,40,-1
 393 398 l 1,41,-1
 395 398 l 2,42,43
 402 399 402 399 407 399 c 0,44,45
 475 399 475 399 506 434 c 0,46,47
 536 469 536 469 514 532 c 0,48,49
 497 577 497 577 456 600 c 128,-1,50
 415 623 415 623 363 621 c 128,-1,51
 311 619 311 619 267 594 c 128,-1,52
 223 569 223 569 203 528 c 0,53,54
 166 451 166 451 178 303 c 2,55,-1
 184 241 l 2,56,57
 189 198 189 198 190.5 177.5 c 128,-1,58
 192 157 192 157 193.5 114 c 128,-1,59
 195 71 195 71 191 52 c 1,60,61
 275 50 275 50 341 62 c 0,62,63
 352 64 352 64 361.5 57.5 c 128,-1,64
 371 51 371 51 373 40 c 128,-1,65
 375 29 375 29 368.5 19.5 c 128,-1,66
 362 10 362 10 351 8 c 0,67,68
 323 4 323 4 291 1.5 c 128,-1,69
 259 -1 259 -1 235.5 -2 c 128,-1,70
 212 -3 212 -3 174 -1.5 c 128,-1,71
 136 0 136 0 119 1 c 128,-1,72
 102 2 102 2 58.5 5 c 128,-1,73
 15 8 15 8 4 9 c 128,-1,74
 -7 10 -7 10 -14.5 18.5 c 128,-1,75
 -22 27 -22 27 -21 38 c 128,-1,76
 -20 49 -20 49 -11.5 56.5 c 128,-1,77
 -3 64 -3 64 8 63 c 0,78,79
 23 62 23 62 49 60 c 128,-1,80
 75 58 75 58 96.5 56.5 c 128,-1,81
 118 55 118 55 137 54 c 1,82,-1
 137 58 l 1,0,1
EndSplineSet
EndChar

StartChar: uni13B6
Encoding: 5046 5046 120
Width: 685
GlyphClass: 2
Flags: W
LayerCount: 2
Fore
SplineSet
650 690 m 0,0,1
 647 664 647 664 647 568 c 0,2,3
 647 557 647 557 639 549 c 128,-1,4
 631 541 631 541 620 541 c 128,-1,5
 609 541 609 541 601 549 c 128,-1,6
 593 557 593 557 593 568 c 2,7,-1
 593 581 l 1,8,9
 579 580 579 580 570 590 c 0,10,11
 519 645 519 645 436 673 c 0,12,13
 332 708 332 708 256 672 c 0,14,15
 178 637 178 637 137 555 c 0,16,17
 96 478 96 478 102.5 378 c 128,-1,18
 109 278 109 278 165 202 c 0,19,20
 207 145 207 145 292 94 c 0,21,22
 361 53 361 53 408 57 c 0,23,24
 460 61 460 61 500 108 c 128,-1,25
 540 155 540 155 551 217 c 128,-1,26
 562 279 562 279 537 319 c 0,27,28
 511 361 511 361 450 363 c 0,29,30
 408 364 408 364 386 356 c 0,31,32
 363 347 363 347 339 318 c 0,33,34
 334 312 334 312 327 310 c 1,35,36
 325 246 325 246 323 217 c 0,37,38
 322 206 322 206 313.5 198.5 c 128,-1,39
 305 191 305 191 294 192 c 128,-1,40
 283 193 283 193 275.5 201.5 c 128,-1,41
 268 210 268 210 269 221 c 0,42,43
 271 244 271 244 273 310 c 128,-1,44
 275 376 275 376 279.5 424 c 128,-1,45
 284 472 284 472 294 516 c 0,46,47
 296 527 296 527 305.5 533 c 128,-1,48
 315 539 315 539 326 536.5 c 128,-1,49
 337 534 337 534 343 524.5 c 128,-1,50
 349 515 349 515 346 504 c 0,51,52
 335 454 335 454 331 385 c 1,53,54
 348 399 348 399 367 406 c 0,55,56
 398 419 398 419 452 417 c 0,57,58
 542 414 542 414 583 347 c 0,59,60
 618 290 618 290 604 208 c 0,61,62
 591 132 591 132 539 70.5 c 128,-1,63
 487 9 487 9 412 3 c 0,64,65
 348 -2 348 -2 264 48 c 0,66,67
 170 104 170 104 121 170 c 0,68,69
 78 229 78 229 60 302 c 128,-1,70
 42 375 42 375 50 446 c 128,-1,71
 58 517 58 517 88 579 c 0,72,73
 138 678 138 678 234 722 c 128,-1,74
 330 766 330 766 454 725 c 0,75,76
 538 697 538 697 593 643 c 1,77,78
 594 673 594 673 596 696 c 0,79,80
 597 707 597 707 606 714 c 128,-1,81
 615 721 615 721 626 720 c 128,-1,82
 637 719 637 719 644 710 c 128,-1,83
 651 701 651 701 650 690 c 0,0,1
EndSplineSet
EndChar

StartChar: uni13B7
Encoding: 5047 5047 121
Width: 713
GlyphClass: 2
Flags: W
LayerCount: 2
Fore
SplineSet
76 23 m 0,0,1
 78 98 78 98 83.5 182 c 128,-1,2
 89 266 89 266 97.5 368.5 c 128,-1,3
 106 471 106 471 110 527 c 1,4,-1
 110 539 l 1,5,-1
 110 564 l 2,6,7
 110 602 110 602 114 626 c 0,8,9
 119 668 119 668 135 685 c 128,-1,10
 151 702 151 702 173 697 c 0,11,12
 190 694 190 694 206 677 c 0,13,14
 224 659 224 659 244 597 c 0,15,16
 260 549 260 549 278 475 c 0,17,18
 287 441 287 441 298 392 c 2,19,-1
 318 310 l 2,20,21
 327 276 327 276 332 260 c 0,22,23
 338 240 338 240 360 184 c 2,24,-1
 364 173 l 1,25,-1
 372 199 l 2,26,27
 378 220 378 220 381 225 c 0,28,29
 409 293 409 293 456 426 c 2,30,-1
 510 577 l 2,31,32
 511 581 511 581 518 596 c 2,33,-1
 533 628 l 1,34,-1
 547 659 l 2,35,36
 551 665 551 665 553 669 c 0,37,38
 554 672 554 672 555.5 673.5 c 128,-1,39
 557 675 557 675 558 677 c 128,-1,40
 559 679 559 679 561 680 c 0,41,42
 569 687 569 687 579 687 c 0,43,44
 598 687 598 687 609 669 c 0,45,46
 614 661 614 661 618 648 c 0,47,48
 622 630 622 630 625 601 c 0,49,50
 626 584 626 584 627 527 c 0,51,52
 628 493 628 493 627 402.5 c 128,-1,53
 626 312 626 312 627.5 263.5 c 128,-1,54
 629 215 629 215 640.5 146.5 c 128,-1,55
 652 78 652 78 675 27 c 0,56,57
 680 17 680 17 676.5 6.5 c 128,-1,58
 673 -4 673 -4 662.5 -8.5 c 128,-1,59
 652 -13 652 -13 641.5 -9.5 c 128,-1,60
 631 -6 631 -6 627 5 c 0,61,62
 606 49 606 49 593.5 102 c 128,-1,63
 581 155 581 155 577 213.5 c 128,-1,64
 573 272 573 272 572 318.5 c 128,-1,65
 571 365 571 365 572 430 c 0,66,67
 574 487 574 487 573 527 c 0,68,69
 572 576 572 576 572 584 c 1,70,-1
 567 574 l 2,71,72
 561 560 561 560 560 559 c 0,73,74
 554 540 554 540 506.5 406.5 c 128,-1,75
 459 273 459 273 431 205 c 0,76,77
 429 200 429 200 423 182 c 2,78,-1
 412 146 l 1,79,-1
 399 111 l 1,80,-1
 392 97 l 2,81,82
 389 93 389 93 385 89 c 0,83,84
 377 81 377 81 365 81 c 0,85,86
 355 81 355 81 347 87 c 0,87,88
 344 90 344 90 342 93 c 128,-1,89
 340 96 340 96 337 100 c 0,90,91
 334 106 334 106 329 117 c 2,92,-1
 309 164 l 2,93,94
 287 223 287 223 280 244 c 0,95,96
 275 260 275 260 266 294 c 2,97,-1
 246 378 l 1,98,-1
 226 462 l 2,99,100
 207 537 207 537 193 580 c 0,101,102
 179 621 179 621 170 636 c 1,103,104
 168 629 168 629 167 619 c 0,105,106
 164 598 164 598 164 564 c 2,107,-1
 164 540 l 1,108,-1
 164 523 l 1,109,110
 160 467 160 467 151.5 365 c 128,-1,111
 143 263 143 263 137.5 179.5 c 128,-1,112
 132 96 132 96 130 21 c 0,113,114
 130 10 130 10 121.5 2.5 c 128,-1,115
 113 -5 113 -5 102 -5 c 128,-1,116
 91 -5 91 -5 83.5 3.5 c 128,-1,117
 76 12 76 12 76 23 c 0,0,1
EndSplineSet
EndChar

